M48
;Layer_Color=9474304
;FILE_FORMAT=2:5
INCH,TZ
;TYPE=PLATED
T1F00S00C0.01000
T2F00S00C0.01400
T3F00S00C0.01500
T4F00S00C0.02000
T5F00S00C0.03504
T6F00S00C0.04016
T7F00S00C0.17913
%
T01
X362500Y457500
X382000Y453500
X381500Y463500
X394441Y465724
Y461000
Y456669
X399559Y456669
Y461000
Y465724
X448000Y449000
X472000Y448500
Y459000
X484000Y457000
X483425Y451999
X491000Y454500
X525500Y455000
X554500Y459384
X559159Y461500
X569000Y460000
X568812Y454647
X568500Y472500
X571400Y471837
X568500Y484500
X571500Y487500
Y492500
Y506500
X572000Y511500
X571415Y524500
X571500Y529500
X573500Y542500
Y547500
X556600Y545000
X559600Y537000
X551966Y536868
X556400Y527000
X563500Y517000
X556500Y509000
X559500Y497500
X553550Y497262
X556000Y490000
X559500Y485029
X556059Y470191
X500500Y479000
X483000Y479500
X487000Y484500
X484150Y492283
X485000Y495500
X484537Y502308
X491607Y503135
X492809Y497309
X498400Y512600
X504200Y511173
X508500Y516000
X515300Y517565
X499684Y522000
X485509Y527139
X479150Y532000
X476055Y534845
X475000Y522000
X479086Y521037
X473000Y506500
Y484500
X481000Y550000
X485200Y549500
X489500Y557000
X488233Y565733
X488134Y572366
X487838Y576334
X491156Y576171
X485109Y574861
X483000Y590000
X475600
X485004Y598504
X488559Y600988
X491500Y600829
X484575Y609220
X482000Y608861
X473020Y605980
X488000Y620000
X505000Y598000
X508382Y559882
X500211Y548261
X475392Y566030
X537459Y536611
X539500Y535000
X457500Y522000
X442000Y516000
X432000Y527000
X422500
X418000
X409500Y525500
X405000Y514500
X404500Y508500
Y503500
X405000Y498500
X404500Y493000
X407500Y484500
X400000
X394000Y485000
X385500Y485500
X415500Y475000
X433500Y481000
X448500Y476500
X459000Y486500
X460500Y489500
X423059Y496669
Y501000
Y505724
X417941Y505724
Y501000
Y496669
X439500Y534500
Y539500
Y544500
Y569500
X432500
X439500Y579000
X436000Y584000
X450100Y589000
X440000Y614000
X439350Y623000
X423000Y606500
X436000Y628000
X440000Y633000
X423500Y645000
X435850Y658000
X439000Y688500
Y697500
X429000Y698500
Y705000
X419500Y702000
X411500
X427500Y691000
X472400Y686500
X486000Y698283
X488600
X491233
X491500Y722500
X488000
X484500Y720500
X484000Y671000
X488000Y673626
X491500
X491600Y649500
X489000
X486400
X482600Y640000
X480990Y628967
X488338Y625334
X491500Y625000
X473600
X556000Y632000
X565500Y632088
X571300Y632000
X572500Y643500
X569400Y650500
X556000Y650000
X556500Y668000
X570000
X570500Y673500
X573100Y688894
X565500Y687500
X556000
Y704000
X568500
X571500Y704954
X569500Y716500
X569110Y724000
X566000Y723330
X556500Y723500
Y729850
T02
X569400Y695500
T03
X381500Y458500
Y468500
X532500Y482500
X523785Y499386
X526529Y516206
X517585Y544055
X518400Y568100
X528500Y586000
X527500Y598000
X536700Y621000
X378500Y475500
X536700Y640900
X535358Y658694
X535500Y678189
X536188Y697941
X534000Y716000
X569400Y677500
X568000Y659000
X560500Y640000
T04
X443000Y674500
T05
X329000Y472063
Y479937
T06
X330000Y495500
Y505500
Y515500
Y525500
Y535500
Y545500
Y555500
Y565500
Y575500
Y585500
Y595500
Y605500
Y615500
X390000
Y605500
Y595500
Y585500
Y575500
Y565500
Y555500
Y545500
Y535500
Y525500
Y515500
Y505500
Y495500
Y625500
Y635500
Y645500
Y655500
Y665500
Y675500
Y685500
Y695500
Y705500
Y715500
Y725500
X330000
Y715500
Y705500
Y695500
Y685500
Y675500
Y665500
Y655500
Y645500
Y635500
Y625500
T07
X418327Y724000
X446673
M30
