G04*
G04 #@! TF.GenerationSoftware,Altium Limited,Altium Designer,23.5.1 (21)*
G04*
G04 Layer_Color=128*
%FSLAX25Y25*%
%MOIN*%
G70*
G04*
G04 #@! TF.SameCoordinates,62E66B6F-0332-4FDC-AC1A-6E2C05ECB38F*
G04*
G04*
G04 #@! TF.FilePolarity,Positive*
G04*
G01*
G75*
%ADD15C,0.00500*%
D15*
X387992Y725500D02*
X392008D01*
X390000Y723492D02*
Y727508D01*
X387992Y715500D02*
X392008D01*
X390000Y713492D02*
Y717508D01*
X387992Y705500D02*
X392008D01*
X390000Y703492D02*
Y707508D01*
X387992Y695500D02*
X392008D01*
X390000Y693492D02*
Y697508D01*
X387992Y685500D02*
X392008D01*
X390000Y683492D02*
Y687508D01*
X387992Y675500D02*
X392008D01*
X390000Y673492D02*
Y677508D01*
X387992Y665500D02*
X392008D01*
X390000Y663492D02*
Y667508D01*
X387992Y655500D02*
X392008D01*
X390000Y653492D02*
Y657508D01*
X387992Y645500D02*
X392008D01*
X390000Y643492D02*
Y647508D01*
X387992Y495500D02*
X392008D01*
X390000Y493492D02*
Y497508D01*
X327992Y525500D02*
X332008D01*
X330000Y523492D02*
Y527508D01*
X327992Y535500D02*
X332008D01*
X330000Y533492D02*
Y537508D01*
X327992Y545500D02*
X332008D01*
X330000Y543492D02*
Y547508D01*
X327992Y555500D02*
X332008D01*
X330000Y553492D02*
Y557508D01*
X327992Y565500D02*
X332008D01*
X330000Y563492D02*
Y567508D01*
X327992Y575500D02*
X332008D01*
X330000Y573492D02*
Y577508D01*
X327992Y585500D02*
X332008D01*
X330000Y583492D02*
Y587508D01*
X327992Y595500D02*
X332008D01*
X330000Y593492D02*
Y597508D01*
X327992Y605500D02*
X332008D01*
X330000Y603492D02*
Y607508D01*
X327992Y615500D02*
X332008D01*
X330000Y613492D02*
Y617508D01*
X327992Y625500D02*
X332008D01*
X330000Y623492D02*
Y627508D01*
X327992Y635500D02*
X332008D01*
X330000Y633492D02*
Y637508D01*
X327992Y515500D02*
X332008D01*
X330000Y513492D02*
Y517508D01*
X327992Y505500D02*
X332008D01*
X330000Y503492D02*
Y507508D01*
X327992Y495500D02*
X332008D01*
X330000Y493492D02*
Y497508D01*
X327992Y645500D02*
X332008D01*
X330000Y643492D02*
Y647508D01*
X327992Y655500D02*
X332008D01*
X330000Y653492D02*
Y657508D01*
X327992Y665500D02*
X332008D01*
X330000Y663492D02*
Y667508D01*
X327992Y675500D02*
X332008D01*
X330000Y673492D02*
Y677508D01*
X327992Y685500D02*
X332008D01*
X330000Y683492D02*
Y687508D01*
X327992Y695500D02*
X332008D01*
X330000Y693492D02*
Y697508D01*
X327992Y705500D02*
X332008D01*
X330000Y703492D02*
Y707508D01*
X327992Y715500D02*
X332008D01*
X330000Y713492D02*
Y717508D01*
X327992Y725500D02*
X332008D01*
X330000Y723492D02*
Y727508D01*
X387992Y635500D02*
X392008D01*
X390000Y633492D02*
Y637508D01*
X387992Y625500D02*
X392008D01*
X390000Y623492D02*
Y627508D01*
X387992Y615500D02*
X392008D01*
X390000Y613492D02*
Y617508D01*
X387992Y605500D02*
X392008D01*
X390000Y603492D02*
Y607508D01*
X387992Y595500D02*
X392008D01*
X390000Y593492D02*
Y597508D01*
X387992Y585500D02*
X392008D01*
X390000Y583492D02*
Y587508D01*
X387992Y575500D02*
X392008D01*
X390000Y573492D02*
Y577508D01*
X387992Y565500D02*
X392008D01*
X390000Y563492D02*
Y567508D01*
X387992Y555500D02*
X392008D01*
X390000Y553492D02*
Y557508D01*
X387992Y545500D02*
X392008D01*
X390000Y543492D02*
Y547508D01*
X387992Y535500D02*
X392008D01*
X390000Y533492D02*
Y537508D01*
X387992Y525500D02*
X392008D01*
X390000Y523492D02*
Y527508D01*
X387992Y515500D02*
X392008D01*
X390000Y513492D02*
Y517508D01*
X387992Y505500D02*
X392008D01*
X390000Y503492D02*
Y507508D01*
X327248Y479937D02*
X330752D01*
X329000Y478185D02*
Y481689D01*
X327248Y472063D02*
X330752D01*
X329000Y470311D02*
Y473815D01*
X437716Y724000D02*
X455630D01*
X446673Y715043D02*
Y732957D01*
X409370Y724000D02*
X427283D01*
X418327Y715043D02*
Y732957D01*
X535950Y640900D02*
X537450D01*
X536700Y640150D02*
Y641650D01*
X526750Y598000D02*
X528250D01*
X527500Y597250D02*
Y598750D01*
X534608Y658694D02*
X536108D01*
X535358Y657943D02*
Y659444D01*
X523035Y499386D02*
X524535D01*
X523785Y498636D02*
Y500136D01*
X531750Y482500D02*
X533250D01*
X532500Y481750D02*
Y483250D01*
X525779Y516206D02*
X527279D01*
X526529Y515456D02*
Y516956D01*
X516835Y544055D02*
X518335D01*
X517585Y543304D02*
Y544804D01*
X517650Y568100D02*
X519150D01*
X518400Y567350D02*
Y568850D01*
X535950Y621000D02*
X537450D01*
X536700Y620250D02*
Y621750D01*
X535438Y697941D02*
X536938D01*
X536188Y697191D02*
Y698691D01*
X534750Y678189D02*
X536250D01*
X535500Y677439D02*
Y678939D01*
X533250Y716000D02*
X534750D01*
X534000Y715250D02*
Y716750D01*
X555500Y704000D02*
X556500D01*
X556000Y703500D02*
Y704500D01*
X569000Y716500D02*
X570000D01*
X569500Y716000D02*
Y717000D01*
X567250Y659000D02*
X568750D01*
X568000Y658250D02*
Y659750D01*
X448000Y476500D02*
X449000D01*
X448500Y476000D02*
Y477000D01*
X422500Y606500D02*
X423500D01*
X423000Y606000D02*
Y607000D01*
X568500Y460000D02*
X569500D01*
X569000Y459500D02*
Y460500D01*
X483500Y457000D02*
X484500D01*
X484000Y456500D02*
Y457500D01*
X484037Y502308D02*
X485037D01*
X484537Y501808D02*
Y502808D01*
X492309Y497309D02*
X493309D01*
X492809Y496809D02*
Y497809D01*
X484500Y495500D02*
X485500D01*
X485000Y495000D02*
Y496000D01*
X487733Y565733D02*
X488733D01*
X488233Y565233D02*
Y566233D01*
X484609Y574861D02*
X485609D01*
X485109Y574361D02*
Y575361D01*
X377750Y475500D02*
X379250D01*
X378500Y474750D02*
Y476250D01*
X559100Y537000D02*
X560100D01*
X559600Y536500D02*
Y537500D01*
X559000Y485029D02*
X560000D01*
X559500Y484529D02*
Y485529D01*
X553050Y497262D02*
X554050D01*
X553550Y496762D02*
Y497762D01*
X555500Y490000D02*
X556500D01*
X556000Y489500D02*
Y490500D01*
X555559Y470191D02*
X556559D01*
X556059Y469691D02*
Y470691D01*
X442000Y674500D02*
X444000D01*
X443000Y673500D02*
Y675500D01*
X422000Y527000D02*
X423000D01*
X422500Y526500D02*
Y527500D01*
X435350Y658000D02*
X436350D01*
X435850Y657500D02*
Y658500D01*
X570000Y673500D02*
X571000D01*
X570500Y673000D02*
Y674000D01*
X569500Y668000D02*
X570500D01*
X570000Y667500D02*
Y668500D01*
X568000Y704000D02*
X569000D01*
X568500Y703500D02*
Y704500D01*
X485009Y527139D02*
X486009D01*
X485509Y526639D02*
Y527639D01*
X475555Y534845D02*
X476555D01*
X476055Y534345D02*
Y535345D01*
X478650Y532000D02*
X479650D01*
X479150Y531500D02*
Y532500D01*
X486500Y484500D02*
X487500D01*
X487000Y484000D02*
Y485000D01*
X500000Y479000D02*
X501000D01*
X500500Y478500D02*
Y479500D01*
X483650Y492283D02*
X484650D01*
X484150Y491783D02*
Y492783D01*
X482500Y479500D02*
X483500D01*
X483000Y479000D02*
Y480000D01*
X554000Y459384D02*
X555000D01*
X554500Y458884D02*
Y459884D01*
X568312Y454647D02*
X569312D01*
X568812Y454147D02*
Y455147D01*
X525000Y455000D02*
X526000D01*
X525500Y454500D02*
Y455500D01*
X482925Y451999D02*
X483925D01*
X483425Y451499D02*
Y452499D01*
X435500Y584000D02*
X436500D01*
X436000Y583500D02*
Y584500D01*
X432000Y569500D02*
X433000D01*
X432500Y569000D02*
Y570000D01*
X435500Y628000D02*
X436500D01*
X436000Y627500D02*
Y628500D01*
X438850Y623000D02*
X439850D01*
X439350Y622500D02*
Y623500D01*
X563000Y517000D02*
X564000D01*
X563500Y516500D02*
Y517500D01*
X551466Y536868D02*
X552466D01*
X551966Y536369D02*
Y537368D01*
X555900Y527000D02*
X556900D01*
X556400Y526500D02*
Y527500D01*
X556000Y729850D02*
X557000D01*
X556500Y729350D02*
Y730350D01*
X491107Y503135D02*
X492107D01*
X491607Y502635D02*
Y503635D01*
X558659Y461500D02*
X559659D01*
X559159Y461000D02*
Y462000D01*
X571000Y704954D02*
X572000D01*
X571500Y704454D02*
Y705454D01*
X572600Y688894D02*
X573600D01*
X573100Y688394D02*
Y689394D01*
X568610Y724000D02*
X569611D01*
X569110Y723500D02*
Y724500D01*
X399059Y465724D02*
X400059D01*
X399559Y465224D02*
Y466224D01*
X393941Y456669D02*
X394941D01*
X394441Y456169D02*
Y457169D01*
X399059Y456669D02*
X400059D01*
X399559Y456169D02*
Y457169D01*
X399059Y461000D02*
X400059D01*
X399559Y460500D02*
Y461500D01*
X393941Y465724D02*
X394941D01*
X394441Y465224D02*
Y466224D01*
X393941Y461000D02*
X394941D01*
X394441Y460500D02*
Y461500D01*
X422559Y505724D02*
X423559D01*
X423059Y505224D02*
Y506224D01*
X417441Y496669D02*
X418441D01*
X417941Y496169D02*
Y497169D01*
X422559Y496669D02*
X423559D01*
X423059Y496169D02*
Y497169D01*
X422559Y501000D02*
X423559D01*
X423059Y500500D02*
Y501500D01*
X417441Y505724D02*
X418441D01*
X417941Y505224D02*
Y506224D01*
X417441Y501000D02*
X418441D01*
X417941Y500500D02*
Y501500D01*
X508000Y516000D02*
X509000D01*
X508500Y515500D02*
Y516500D01*
X514800Y517565D02*
X515800D01*
X515300Y517065D02*
Y518065D01*
X497900Y512600D02*
X498900D01*
X498400Y512100D02*
Y513100D01*
X503700Y511173D02*
X504700D01*
X504200Y510673D02*
Y511673D01*
X539000Y535000D02*
X540000D01*
X539500Y534500D02*
Y535500D01*
X536959Y536611D02*
X537959D01*
X537459Y536111D02*
Y537111D01*
X499184Y522000D02*
X500184D01*
X499684Y521500D02*
Y522500D01*
X478586Y521037D02*
X479586D01*
X479086Y520537D02*
Y521537D01*
X556000Y723500D02*
X557000D01*
X556500Y723000D02*
Y724000D01*
X568900Y650500D02*
X569900D01*
X569400Y650000D02*
Y651000D01*
X568650Y677500D02*
X570150D01*
X569400Y676750D02*
Y678250D01*
X568700Y695500D02*
X570100D01*
X569400Y694800D02*
Y696200D01*
X572000Y643500D02*
X573000D01*
X572500Y643000D02*
Y644000D01*
X565000Y632088D02*
X566000D01*
X565500Y631588D02*
Y632588D01*
X570800Y632000D02*
X571800D01*
X571300Y631500D02*
Y632500D01*
X556100Y545000D02*
X557100D01*
X556600Y544500D02*
Y545500D01*
X507882Y559882D02*
X508882D01*
X508382Y559382D02*
Y560382D01*
X499711Y548261D02*
X500710D01*
X500211Y547761D02*
Y548761D01*
X573000Y547500D02*
X574000D01*
X573500Y547000D02*
Y548000D01*
X573000Y542500D02*
X574000D01*
X573500Y542000D02*
Y543000D01*
X504500Y598000D02*
X505500D01*
X505000Y597500D02*
Y598500D01*
X472500Y506500D02*
X473500D01*
X473000Y506000D02*
Y507000D01*
X484700Y549500D02*
X485700D01*
X485200Y549000D02*
Y550000D01*
X480500D02*
X481500D01*
X481000Y549500D02*
Y550500D01*
X484075Y609220D02*
X485075D01*
X484575Y608719D02*
Y609720D01*
X472520Y605980D02*
X473520D01*
X473020Y605480D02*
Y606480D01*
X475100Y590000D02*
X476100D01*
X475600Y589500D02*
Y590500D01*
X474893Y566030D02*
X475892D01*
X475392Y565530D02*
Y566530D01*
X487634Y572366D02*
X488634D01*
X488134Y571866D02*
Y572866D01*
X482500Y590000D02*
X483500D01*
X483000Y589500D02*
Y590500D01*
X571000Y492500D02*
X572000D01*
X571500Y492000D02*
Y493000D01*
X568000Y484500D02*
X569000D01*
X568500Y484000D02*
Y485000D01*
X568000Y472500D02*
X569000D01*
X568500Y472000D02*
Y473000D01*
X570900Y471837D02*
X571900D01*
X571400Y471337D02*
Y472337D01*
X473100Y625000D02*
X474100D01*
X473600Y624500D02*
Y625500D01*
X480490Y628967D02*
X481490D01*
X480990Y628467D02*
Y629467D01*
X439000Y579000D02*
X440000D01*
X439500Y578500D02*
Y579500D01*
X471900Y686500D02*
X472900D01*
X472400Y686000D02*
Y687000D01*
X482100Y640000D02*
X483100D01*
X482600Y639500D02*
Y640500D01*
X481500Y608861D02*
X482500D01*
X482000Y608361D02*
Y609361D01*
X484504Y598504D02*
X485504D01*
X485004Y598004D02*
Y599004D01*
X491000Y600829D02*
X492000D01*
X491500Y600329D02*
Y601329D01*
X491000Y625000D02*
X492000D01*
X491500Y624500D02*
Y625500D01*
X483500Y671000D02*
X484500D01*
X484000Y670500D02*
Y671500D01*
X472500Y484500D02*
X473500D01*
X473000Y484000D02*
Y485000D01*
X471500Y459000D02*
X472500D01*
X472000Y458500D02*
Y459500D01*
X471500Y448500D02*
X472500D01*
X472000Y448000D02*
Y449000D01*
X488100Y698283D02*
X489100D01*
X488600Y697783D02*
Y698783D01*
X485500Y698283D02*
X486500D01*
X486000Y697783D02*
Y698783D01*
X491000Y722500D02*
X492000D01*
X491500Y722000D02*
Y723000D01*
X487500Y722500D02*
X488500D01*
X488000Y722000D02*
Y723000D01*
X484000Y720500D02*
X485000D01*
X484500Y720000D02*
Y721000D01*
X490733Y698283D02*
X491733D01*
X491233Y697783D02*
Y698783D01*
X423000Y645000D02*
X424000D01*
X423500Y644500D02*
Y645500D01*
X565500Y723330D02*
X566500D01*
X566000Y722830D02*
Y723830D01*
X417500Y527000D02*
X418500D01*
X418000Y526500D02*
Y527500D01*
X431500Y527000D02*
X432500D01*
X432000Y526500D02*
Y527500D01*
X449600Y589000D02*
X450600D01*
X450100Y588500D02*
Y589500D01*
X457000Y522000D02*
X458000D01*
X457500Y521500D02*
Y522500D01*
X556000Y509000D02*
X557000D01*
X556500Y508500D02*
Y509500D01*
X380750Y468500D02*
X382250D01*
X381500Y467750D02*
Y469250D01*
X380750Y458500D02*
X382250D01*
X381500Y457750D02*
Y459250D01*
X393500Y485000D02*
X394500D01*
X394000Y484500D02*
Y485500D01*
X433000Y481000D02*
X434000D01*
X433500Y480500D02*
Y481500D01*
X527750Y586000D02*
X529250D01*
X528500Y585250D02*
Y586750D01*
X474500Y522000D02*
X475500D01*
X475000Y521500D02*
Y522500D01*
X490500Y454500D02*
X491500D01*
X491000Y454000D02*
Y455000D01*
X399500Y484500D02*
X400500D01*
X400000Y484000D02*
Y485000D01*
X381500Y453500D02*
X382500D01*
X382000Y453000D02*
Y454000D01*
X362000Y457500D02*
X363000D01*
X362500Y457000D02*
Y458000D01*
X381000Y463500D02*
X382000D01*
X381500Y463000D02*
Y464000D01*
X385000Y485500D02*
X386000D01*
X385500Y485000D02*
Y486000D01*
X404000Y503500D02*
X405000D01*
X404500Y503000D02*
Y504000D01*
X407000Y484500D02*
X408000D01*
X407500Y484000D02*
Y485000D01*
X404000Y493000D02*
X405000D01*
X404500Y492500D02*
Y493500D01*
X415000Y475000D02*
X416000D01*
X415500Y474500D02*
Y475500D01*
X447500Y449000D02*
X448500D01*
X448000Y448500D02*
Y449500D01*
X458500Y486500D02*
X459500D01*
X459000Y486000D02*
Y487000D01*
X409000Y525500D02*
X410000D01*
X409500Y525000D02*
Y526000D01*
X441500Y516000D02*
X442500D01*
X442000Y515500D02*
Y516500D01*
X439000Y569500D02*
X440000D01*
X439500Y569000D02*
Y570000D01*
Y614000D02*
X440500D01*
X440000Y613500D02*
Y614500D01*
X411000Y702000D02*
X412000D01*
X411500Y701500D02*
Y702500D01*
X487500Y620000D02*
X488500D01*
X488000Y619500D02*
Y620500D01*
X488500Y649500D02*
X489500D01*
X489000Y649000D02*
Y650000D01*
X565000Y687500D02*
X566000D01*
X565500Y687000D02*
Y688000D01*
X571000Y529500D02*
X572000D01*
X571500Y529000D02*
Y530000D01*
Y511500D02*
X572500D01*
X572000Y511000D02*
Y512000D01*
X559000Y497500D02*
X560000D01*
X559500Y497000D02*
Y498000D01*
X559750Y640000D02*
X561250D01*
X560500Y639250D02*
Y640750D01*
X404500Y498500D02*
X405500D01*
X405000Y498000D02*
Y499000D01*
X404000Y508500D02*
X405000D01*
X404500Y508000D02*
Y509000D01*
Y514500D02*
X405500D01*
X405000Y514000D02*
Y515000D01*
X439000Y534500D02*
X440000D01*
X439500Y534000D02*
Y535000D01*
X439000Y539500D02*
X440000D01*
X439500Y539000D02*
Y540000D01*
X439000Y544500D02*
X440000D01*
X439500Y544000D02*
Y545000D01*
Y633000D02*
X440500D01*
X440000Y632500D02*
Y633500D01*
X427000Y691000D02*
X428000D01*
X427500Y690500D02*
Y691500D01*
X428500Y705000D02*
X429500D01*
X429000Y704500D02*
Y705500D01*
X428500Y698500D02*
X429500D01*
X429000Y698000D02*
Y699000D01*
X438500Y688500D02*
X439500D01*
X439000Y688000D02*
Y689000D01*
X438500Y697500D02*
X439500D01*
X439000Y697000D02*
Y698000D01*
X419000Y702000D02*
X420000D01*
X419500Y701500D02*
Y702500D01*
X487500Y673626D02*
X488500D01*
X488000Y673126D02*
Y674126D01*
X491000Y673626D02*
X492000D01*
X491500Y673126D02*
Y674126D01*
X485900Y649500D02*
X486900D01*
X486400Y649000D02*
Y650000D01*
X491100Y649500D02*
X492100D01*
X491600Y649000D02*
Y650000D01*
X487838Y625334D02*
X488837D01*
X488338Y624834D02*
Y625834D01*
X488059Y600988D02*
X489059D01*
X488559Y600488D02*
Y601488D01*
X487337Y576334D02*
X488338D01*
X487838Y575834D02*
Y576834D01*
X490656Y576171D02*
X491656D01*
X491156Y575671D02*
Y576671D01*
X489000Y557000D02*
X490000D01*
X489500Y556500D02*
Y557500D01*
X571000Y487500D02*
X572000D01*
X571500Y487000D02*
Y488000D01*
X571000Y506500D02*
X572000D01*
X571500Y506000D02*
Y507000D01*
X570915Y524500D02*
X571915D01*
X571415Y524000D02*
Y525000D01*
X555500Y632000D02*
X556500D01*
X556000Y631500D02*
Y632500D01*
X555500Y650000D02*
X556500D01*
X556000Y649500D02*
Y650500D01*
Y668000D02*
X557000D01*
X556500Y667500D02*
Y668500D01*
X555500Y687500D02*
X556500D01*
X556000Y687000D02*
Y688000D01*
X460000Y489500D02*
X461000D01*
X460500Y489000D02*
Y490000D01*
M02*
