G04*
G04 #@! TF.GenerationSoftware,Altium Limited,Altium Designer,23.5.1 (21)*
G04*
G04 Layer_Physical_Order=4*
G04 Layer_Color=16711680*
%FSLAX25Y25*%
%MOIN*%
G70*
G04*
G04 #@! TF.SameCoordinates,62E66B6F-0332-4FDC-AC1A-6E2C05ECB38F*
G04*
G04*
G04 #@! TF.FilePolarity,Positive*
G04*
G01*
G75*
%ADD13C,0.01000*%
%ADD18R,0.04921X0.01181*%
%ADD19R,0.11811X0.07874*%
%ADD52C,0.06181*%
%ADD53R,0.06181X0.06181*%
%ADD54C,0.05472*%
%ADD55R,0.05472X0.05472*%
%ADD58C,0.02500*%
%ADD60C,0.23622*%
%ADD61R,0.23622X0.23622*%
%ADD62C,0.03000*%
%ADD63C,0.02000*%
%ADD64C,0.04000*%
G04:AMPARAMS|DCode=65|XSize=63.17mil|YSize=20.79mil|CornerRadius=10.39mil|HoleSize=0mil|Usage=FLASHONLY|Rotation=180.000|XOffset=0mil|YOffset=0mil|HoleType=Round|Shape=RoundedRectangle|*
%AMROUNDEDRECTD65*
21,1,0.06317,0.00000,0,0,180.0*
21,1,0.04238,0.02079,0,0,180.0*
1,1,0.02079,-0.02119,0.00000*
1,1,0.02079,0.02119,0.00000*
1,1,0.02079,0.02119,0.00000*
1,1,0.02079,-0.02119,0.00000*
%
%ADD65ROUNDEDRECTD65*%
%ADD66R,0.06317X0.02079*%
%ADD67R,0.03150X0.03543*%
%ADD68R,0.05315X0.04331*%
%ADD69R,0.04331X0.05315*%
D13*
X527000Y654465D02*
Y669063D01*
X541500Y618967D02*
Y639965D01*
X527000Y654465D02*
X541500Y639965D01*
X539700Y653931D02*
Y682765D01*
X527000Y690366D02*
X538100Y679266D01*
Y653268D02*
Y679266D01*
X539700Y653931D02*
X544700Y648931D01*
X538100Y653268D02*
X543100Y648268D01*
X529030Y693435D02*
X539700Y682765D01*
X525075Y475335D02*
X530335D01*
X535658Y480658D02*
Y502690D01*
X530335Y475335D02*
X535658Y480658D01*
X526563Y512563D02*
X543200Y529200D01*
X524000Y512563D02*
X526563D01*
X543200Y529200D02*
Y536652D01*
X529705Y538500D02*
X531415Y540210D01*
X522325Y536790D02*
X524035Y538500D01*
X529705D01*
X531415Y540210D02*
Y544664D01*
X527329Y548750D02*
X531415Y544664D01*
X522325Y532336D02*
Y536790D01*
X522970Y531691D02*
X536191D01*
X522325Y532336D02*
X522970Y531691D01*
X525937Y535500D02*
X529710D01*
X535063Y540853D01*
X525000Y534563D02*
X525937Y535500D01*
X535063Y540853D02*
Y568397D01*
X536191Y531691D02*
X539500Y535000D01*
X530798Y528397D02*
X535867D01*
X525065Y522664D02*
X530798Y528397D01*
X535867D02*
X541600Y534130D01*
X511434Y541165D02*
X520185D01*
X521260Y542240D02*
Y542437D01*
X504768Y534500D02*
X511434Y541165D01*
X520185D02*
X521260Y542240D01*
X538263Y567071D02*
X540400Y569209D01*
X536663Y543189D02*
X543200Y536652D01*
X539863Y544514D02*
Y566409D01*
X535063Y568397D02*
X539812Y573146D01*
X536663Y567734D02*
X540106Y571177D01*
X538263Y543852D02*
X544800Y537315D01*
X536663Y543189D02*
Y567734D01*
X538263Y543852D02*
Y567071D01*
X539863Y544514D02*
X546400Y537977D01*
X520294Y719309D02*
X536191D01*
X542000Y692894D02*
Y713500D01*
X536191Y719309D02*
X542000Y713500D01*
X543600Y711900D02*
X555291Y700209D01*
X543600Y711900D02*
Y717400D01*
X540091Y720909D02*
X543600Y717400D01*
X542000Y692894D02*
X557760Y677134D01*
X557260Y698937D02*
Y699134D01*
X556185Y700209D02*
X557260Y699134D01*
X555291Y700209D02*
X556185D01*
X505655Y720909D02*
X540091D01*
X504993Y722509D02*
X543991D01*
X549563Y716937D01*
X557760D01*
X565303Y659000D02*
X568000D01*
X564240Y657937D02*
X565303Y659000D01*
X488041Y565924D02*
Y566459D01*
X485000Y567500D02*
X485762D01*
X488041Y565924D02*
X488233Y565733D01*
X487000Y567500D02*
X488041Y566459D01*
X485762Y567500D02*
X487000D01*
X488500D01*
X483351D02*
X485000D01*
X484500Y572998D02*
X485040D01*
Y574791D01*
X485109Y574861D01*
X483351Y572500D02*
X484002D01*
X484500Y572998D01*
X559600Y537000D02*
Y539903D01*
X559500Y481677D02*
X559740Y481437D01*
X559500Y481677D02*
Y485029D01*
X554935Y498917D02*
Y507595D01*
X553550Y497262D02*
Y497533D01*
X554935Y498917D01*
X477050Y532870D02*
X478155Y533975D01*
Y537289D01*
X477050Y530656D02*
Y532870D01*
X475392Y540051D02*
X478155Y537289D01*
X479150Y532000D02*
Y532209D01*
X481441Y534500D01*
X477050Y530656D02*
X481026Y526681D01*
X417530Y524500D02*
X483351D01*
X521144Y444991D02*
X538511D01*
X498400Y467735D02*
X521144Y444991D01*
X504200Y466461D02*
Y500300D01*
Y466461D02*
X522470Y448191D01*
X494700Y507537D02*
X502600Y499637D01*
Y465798D02*
X521807Y446591D01*
X498400Y483778D02*
X499277Y484655D01*
X496300Y508200D02*
X504200Y500300D01*
X493100Y506875D02*
X499277Y500697D01*
X502600Y465798D02*
Y499637D01*
X498400Y467735D02*
Y483778D01*
X486835Y489500D02*
X490500D01*
X484150Y492185D02*
X486835Y489500D01*
X484150Y492185D02*
Y492283D01*
X524500Y451260D02*
X525575Y452335D01*
X525691Y456191D02*
X528240Y458740D01*
Y458937D01*
X525575Y452335D02*
X526540D01*
X538511Y444991D02*
X551260Y457740D01*
X470900Y483630D02*
X511139Y443391D01*
X527193Y446591D02*
X540458Y459856D01*
X553230Y443391D02*
X566400Y456561D01*
X526530Y448191D02*
X538858Y460519D01*
X511139Y443391D02*
X553230D01*
X538858Y460519D02*
Y487838D01*
X521807Y446591D02*
X527193D01*
X540458Y459856D02*
Y469438D01*
X499277Y484655D02*
Y500697D01*
X522470Y448191D02*
X526530D01*
X559600Y539903D02*
X560240Y540543D01*
Y520240D02*
Y520437D01*
X551966Y536868D02*
Y539947D01*
X552520Y540500D01*
X563480Y517000D02*
X563500D01*
X560240Y520240D02*
X563480Y517000D01*
X556500Y723500D02*
Y729850D01*
X558740Y457937D02*
X559159Y458356D01*
Y461500D01*
X507590Y516639D02*
X508229Y516000D01*
X498391Y515386D02*
X499644Y516639D01*
X498391Y512609D02*
Y515386D01*
X504768Y524500D02*
X508168Y521100D01*
X517585Y497884D02*
X520260Y495209D01*
X499644Y516639D02*
X507590D01*
X508633Y521100D02*
X520260Y509473D01*
X498391Y512609D02*
X498400Y512600D01*
X508229Y516000D02*
X508500D01*
X517585Y497884D02*
Y509885D01*
X508168Y521100D02*
X508633D01*
X507970Y519500D02*
X517585Y509885D01*
X496791Y542230D02*
X497209Y541812D01*
Y516900D02*
Y541812D01*
X496300Y508200D02*
Y515991D01*
X497209Y516900D01*
X504200Y509998D02*
Y511173D01*
X491991Y540242D02*
X492409Y539823D01*
X493100Y517316D02*
X494009Y518226D01*
X492409Y518888D02*
Y539823D01*
X495191Y541567D02*
X495609Y541149D01*
Y517563D02*
Y541149D01*
X493591Y540905D02*
X494009Y540486D01*
X491500Y506212D02*
X496012Y501700D01*
X481067Y564639D02*
X486356D01*
X475600Y572844D02*
Y590000D01*
X494700Y516654D02*
X495609Y517563D01*
X494009Y518226D02*
Y540486D01*
X485470Y557500D02*
X491991Y550979D01*
X495191Y557161D02*
X500530Y562500D01*
X496791Y554049D02*
X500242Y557500D01*
X502649Y519500D02*
X507970D01*
X515985Y481310D02*
Y503283D01*
X520760Y458937D02*
Y476535D01*
X520260Y501937D02*
Y509473D01*
X515985Y481310D02*
X520760Y476535D01*
X520260Y481937D02*
Y495209D01*
X502649Y509500D02*
X503702D01*
X502649Y514500D02*
X504768D01*
X503702Y509500D02*
X504200Y509998D01*
X502649Y524500D02*
X504768D01*
X515300Y517565D02*
X522290D01*
X525065Y520340D02*
Y522664D01*
X522290Y517565D02*
X525065Y520340D01*
X541600Y534130D02*
Y535870D01*
X537459Y536611D02*
X537730D01*
X538219Y537100D01*
X540370D01*
X541600Y535870D01*
X480940Y519500D02*
X485470D01*
X480377Y518937D02*
X480940Y519500D01*
X561000Y674465D02*
Y691063D01*
X574600Y620577D02*
Y660430D01*
X564175Y670855D02*
X574600Y660430D01*
X564740Y698740D02*
Y698937D01*
Y698740D02*
X567789Y695691D01*
X561000Y674465D02*
X564175Y671290D01*
X566771Y701809D02*
X576200Y692379D01*
X565483Y701809D02*
X566771D01*
X576200Y619914D02*
Y692379D01*
X547329Y591043D02*
X576200Y619914D01*
X564175Y670855D02*
Y671290D01*
X547035Y593012D02*
X574600Y620577D01*
X561500Y653965D02*
Y669063D01*
Y653965D02*
X569200Y646265D01*
X546447Y596949D02*
X567600Y618102D01*
X560500Y649866D02*
X567600Y642766D01*
Y618102D02*
Y642766D01*
X546740Y594980D02*
X569200Y617440D01*
X526540Y452335D02*
X537258Y463053D01*
X550085Y514854D02*
Y531353D01*
X535658Y502690D02*
X546400Y513432D01*
Y537977D01*
X544800Y514095D02*
Y537315D01*
X537258Y502027D02*
X550085Y514854D01*
X519679Y565809D02*
X523790D01*
X528805Y499065D02*
X529771D01*
X540400Y569209D02*
X543333D01*
X524000Y494260D02*
X528805Y499065D01*
X529771D02*
X544800Y514095D01*
X543333Y569209D02*
X543424Y569300D01*
X545384Y553246D02*
Y565272D01*
X543424Y565363D02*
X545294D01*
X555195Y536463D02*
Y543436D01*
X550085Y531353D02*
X555195Y536463D01*
X556500Y512563D02*
Y524130D01*
X500005Y555000D02*
X505294D01*
X519370Y565500D02*
X519679Y565809D01*
X523790D02*
X524435Y565164D01*
X526911Y548750D02*
X527329D01*
X498391Y553386D02*
X500005Y555000D01*
X522825Y552836D02*
Y558195D01*
X505294Y555000D02*
X506908Y556614D01*
X522825Y552836D02*
X526911Y548750D01*
X522825Y558195D02*
X524435Y559805D01*
Y565164D01*
X506282Y559012D02*
X506908Y558386D01*
X506282Y559012D02*
Y560752D01*
X502649Y552500D02*
X505056D01*
X506908Y556614D02*
Y558386D01*
X512903Y553883D02*
X521760Y562740D01*
X484820Y529500D02*
X485318Y529002D01*
X508382Y559882D02*
X508507Y559756D01*
X505056Y552500D02*
X508507Y555951D01*
Y559756D01*
X511030Y565500D02*
X519370D01*
X512903Y547635D02*
Y553883D01*
X506282Y560752D02*
X511030Y565500D01*
X495191Y541567D02*
Y557161D01*
X491991Y540242D02*
Y550979D01*
X493591Y540905D02*
Y560561D01*
X500530Y567500D01*
X501080Y550361D02*
X502649Y548792D01*
X500242Y557500D02*
X502649D01*
Y544500D02*
Y548792D01*
X499644Y550361D02*
X501080D01*
X498391Y551614D02*
Y553386D01*
X496791Y542230D02*
Y554049D01*
X498391Y551614D02*
X499644Y550361D01*
X556260Y532626D02*
X559126D01*
X546152Y577083D02*
X562675Y560560D01*
X559126Y532626D02*
X562675Y536175D01*
X546447Y579051D02*
X564275Y561223D01*
X561189Y477983D02*
X564337Y481132D01*
X569075Y488045D02*
Y563211D01*
X556500Y524130D02*
X564275Y531905D01*
X560223Y477983D02*
X561189D01*
X546740Y581020D02*
X565875Y561885D01*
X562675Y536175D02*
Y560560D01*
X564275Y531905D02*
Y561223D01*
X555000Y450260D02*
X559805Y455065D01*
X565875Y515405D02*
Y561885D01*
X560771Y455065D02*
X564703Y458998D01*
X557065Y506596D02*
X565875Y515405D01*
X511386Y529507D02*
X520260Y520634D01*
X502649Y529500D02*
X502657Y529507D01*
X511386D01*
X504768Y539500D02*
X512903Y547635D01*
X502649Y572500D02*
X515594D01*
X521760Y578665D01*
Y581937D01*
X523825Y624774D02*
Y638872D01*
X498891Y615614D02*
Y619361D01*
X501030Y621500D01*
X522760Y639937D02*
X523825Y638872D01*
X500144Y614361D02*
X521086D01*
X501030Y621500D02*
X503149D01*
X510880Y697845D02*
X524470Y711435D01*
X525435Y618710D02*
Y623164D01*
X526500Y624362D02*
Y632063D01*
X529175Y613491D02*
X539812Y602854D01*
X528065Y696210D02*
X529240Y695035D01*
X523825Y624774D02*
X525435Y623164D01*
X527035Y619240D02*
Y623827D01*
X500742Y611500D02*
X503149D01*
X498891Y615614D02*
X500144Y614361D01*
X527035Y619240D02*
X529175Y617100D01*
X526500Y624362D02*
X527035Y623827D01*
X529175Y613491D02*
Y617100D01*
X521086Y614361D02*
X525435Y618710D01*
X497291Y614951D02*
X500742Y611500D01*
X502649Y577500D02*
X505056D01*
X485970Y616500D02*
X497415Y605055D01*
X504386Y601500D02*
X504884Y601002D01*
Y598116D02*
X505000Y598000D01*
X503149Y601500D02*
X504386D01*
X504884Y598116D02*
Y601002D01*
X523500Y595944D02*
Y601500D01*
X505056Y577500D02*
X523500Y595944D01*
X504933Y579639D02*
X508507Y583214D01*
X489209Y520214D02*
Y536049D01*
X490809Y519551D02*
Y539161D01*
X485318Y527330D02*
X485509Y527139D01*
X485318Y527330D02*
Y529002D01*
X481441Y534500D02*
X483351D01*
X481026Y524998D02*
Y526681D01*
X497415Y602090D02*
X508507Y590997D01*
X499644Y579639D02*
X504933D01*
X481690Y552500D02*
X483351D01*
X481191Y552002D02*
X481690Y552500D01*
X481191Y550191D02*
Y552002D01*
X481000Y550000D02*
X481191Y550191D01*
X478900Y538806D02*
Y560168D01*
X481232Y562500D01*
X506908Y586005D02*
Y588995D01*
X505542Y584639D02*
X506908Y586005D01*
X486176Y600401D02*
X491879Y594698D01*
X486176Y600401D02*
Y601002D01*
X483851Y601500D02*
X485678D01*
X501204Y594698D02*
X506908Y588995D01*
X485678Y601500D02*
X486176Y601002D01*
X491879Y594698D02*
X501204D01*
X487022Y578761D02*
X493765D01*
X485762Y577500D02*
X487022Y578761D01*
X499644Y584639D02*
X505542D01*
X483351Y577500D02*
X485762D01*
X480346Y580361D02*
X486599D01*
X477290Y692544D02*
X505655Y720909D01*
X493765Y578761D02*
X499644Y584639D01*
X479093Y581614D02*
Y588386D01*
X483851Y611500D02*
X484077D01*
X484575Y611002D01*
Y609220D02*
Y611002D01*
X485899Y537096D02*
X487609Y535386D01*
X390000Y535500D02*
X406563Y518937D01*
X445170Y581100D02*
X473600Y609530D01*
Y625000D01*
X438630Y581100D02*
X445170D01*
X481232Y562500D02*
X483351D01*
X480610Y537096D02*
X485899D01*
X473020Y573161D02*
Y605980D01*
X491500Y506212D02*
Y517979D01*
X478900Y538806D02*
X480610Y537096D01*
X477493Y565951D02*
Y568688D01*
X479093Y566614D02*
X481067Y564639D01*
X479093Y566614D02*
Y569351D01*
X497415Y602090D02*
Y605055D01*
X475600Y572844D02*
X479093Y569351D01*
X491500Y517979D02*
X492409Y518888D01*
X485758Y539500D02*
X489209Y536049D01*
X485470Y544500D02*
X490809Y539161D01*
X508507Y583214D02*
Y590997D01*
X487609Y521639D02*
Y535386D01*
X485470Y557500D02*
X487609Y559639D01*
X483351Y539500D02*
X485758D01*
X486356Y564639D02*
X487609Y563386D01*
Y559639D02*
Y563386D01*
X485758Y514500D02*
X490809Y519551D01*
X485635Y516639D02*
X489209Y520214D01*
X485470Y519500D02*
X487609Y521639D01*
X481026Y524998D02*
X481524Y524500D01*
X483351Y529500D02*
X484820D01*
X475392Y540051D02*
Y566030D01*
X488500Y567500D02*
X495756Y574756D01*
X494156Y576414D02*
X500242Y582500D01*
X475690Y693206D02*
X504993Y722509D01*
X500242Y582500D02*
X502649D01*
X495756Y574756D02*
Y575751D01*
X494156Y575419D02*
Y576414D01*
X396530Y545500D02*
X417530Y524500D01*
X480440Y570266D02*
X489004D01*
X483851Y616500D02*
X485970D01*
X489004Y570266D02*
X494156Y575419D01*
X477493Y573214D02*
X480440Y570266D01*
X475690Y626772D02*
X475700Y626762D01*
X477700Y589256D02*
Y597981D01*
X483000Y587851D02*
X483351Y587500D01*
X483000Y587851D02*
Y590000D01*
X486599Y580361D02*
X493738Y587500D01*
X477493Y589049D02*
X477700Y589256D01*
X477290Y627434D02*
X477300Y627425D01*
X479093Y581614D02*
X480346Y580361D01*
X475690Y626772D02*
Y693206D01*
X493738Y587500D02*
X502649D01*
X480512Y489000D02*
Y493918D01*
X479093Y495338D02*
X480512Y493918D01*
X479093Y495338D02*
Y512361D01*
X559805Y455065D02*
X560771D01*
X568500Y475470D02*
Y484500D01*
X566400Y473370D02*
X568500Y475470D01*
X567475Y488707D02*
Y562548D01*
X564337Y481132D02*
Y485570D01*
X564703Y473936D02*
X565937Y475170D01*
X480169Y516639D02*
X485635D01*
X547329Y584957D02*
X569075Y563211D01*
X556000Y473760D02*
X560223Y477983D01*
X565937Y484907D02*
X569075Y488045D01*
X470900Y507370D02*
X480169Y516639D01*
X470900Y483630D02*
Y507370D01*
X564703Y458998D02*
Y473936D01*
X566400Y456561D02*
Y473370D01*
X552760Y509770D02*
Y520437D01*
X565937Y475170D02*
Y484907D01*
X482024Y626500D02*
X483851D01*
X481526Y626998D02*
X482024Y626500D01*
X481526Y626998D02*
Y628161D01*
X480990Y628696D02*
X481526Y628161D01*
X480990Y628696D02*
Y628967D01*
X478900Y601306D02*
Y628087D01*
X477493Y573214D02*
Y589049D01*
X477290Y627434D02*
Y692544D01*
X475700Y599981D02*
Y626762D01*
X479300Y588594D02*
Y598644D01*
X385809Y547236D02*
X389883Y551309D01*
X408840D02*
X438630Y581100D01*
X385809Y529691D02*
X390000Y525500D01*
X389883Y551309D02*
X408840D01*
X385809Y529691D02*
Y547236D01*
X482600Y639900D02*
X483851Y638649D01*
X478890Y628097D02*
X478900Y628087D01*
X482600Y639900D02*
Y640000D01*
X482116Y606998D02*
Y608745D01*
X482614Y606500D02*
X483851D01*
X482116Y606998D02*
X482614Y606500D01*
X482000Y608861D02*
X482116Y608745D01*
X540359Y686631D02*
Y701869D01*
X473000Y484500D02*
Y484771D01*
X473335Y485105D01*
Y487335D01*
X523260Y663339D02*
Y676937D01*
X520085Y649054D02*
Y660164D01*
X523260Y663339D01*
X503149Y631500D02*
X507807D01*
X507931Y629361D02*
X520085Y641515D01*
X503500Y627500D02*
X505361Y629361D01*
X507807Y631500D02*
X518485Y642177D01*
X520085Y641515D02*
Y642164D01*
X522760Y644839D02*
Y657937D01*
X520085Y642164D02*
X522760Y644839D01*
X529693Y695035D02*
X541900Y682828D01*
X510880Y651855D02*
Y697845D01*
X526465Y695547D02*
Y701402D01*
X497291Y614951D02*
Y638265D01*
X540359Y686631D02*
X543500Y683491D01*
Y671394D02*
Y683491D01*
X503011Y699763D02*
X519685Y716437D01*
X483851Y631500D02*
X486000D01*
X503011Y648511D01*
X475700Y599981D02*
X477700Y597981D01*
X487609Y586614D02*
Y592597D01*
X569200Y617440D02*
Y646265D01*
X390000Y545500D02*
X396530D01*
X495756Y575751D02*
X499644Y579639D01*
X493100Y506875D02*
Y517316D01*
X551260Y457740D02*
Y457937D01*
X538263Y615730D02*
X541500Y618967D01*
X543424Y616365D02*
X544700Y617642D01*
X526500Y650063D02*
X527565Y648998D01*
X543424Y610638D02*
Y616365D01*
X538263Y608929D02*
Y615730D01*
X539863Y615067D02*
X543100Y618305D01*
X527565Y637710D02*
X539900Y625375D01*
X528578Y693435D02*
X529030D01*
X536663Y608266D02*
Y616393D01*
X539900Y619630D01*
X539863Y609591D02*
Y615067D01*
X536663Y608266D02*
X540106Y604823D01*
X538263Y608929D02*
X540400Y606791D01*
X539863Y609591D02*
X540507Y608947D01*
X544500D01*
X529240Y695035D02*
X529693D01*
X543100Y618305D02*
Y648268D01*
X526465Y695547D02*
X528578Y693435D01*
X541900Y653994D02*
Y682828D01*
X544700Y617642D02*
Y648931D01*
X565240Y676937D02*
X569166D01*
X473020Y573161D02*
X477493Y568688D01*
Y565951D02*
X480944Y562500D01*
X406563Y518937D02*
X480377D01*
X480944Y562500D02*
X481232D01*
X483851Y636500D02*
Y638649D01*
X557065Y494628D02*
Y506596D01*
X464244Y489500D02*
X465000Y490256D01*
X460500Y489500D02*
X464244D01*
X473335Y487335D02*
X475000Y489000D01*
X483851Y621500D02*
X486235D01*
X487735Y620000D01*
X488000D01*
X463335Y486410D02*
X465000Y484744D01*
X461590Y486410D02*
X463335D01*
X461500Y486500D02*
X461590Y486410D01*
X459000Y486500D02*
X461500D01*
X527740Y481937D02*
X527803Y482000D01*
X559500Y501197D02*
X559740Y501437D01*
X559500Y497500D02*
Y501197D01*
X563177Y640000D02*
X563740Y639437D01*
X560500Y640000D02*
X563177D01*
X496012Y489500D02*
Y501700D01*
X561500Y705791D02*
X565483Y701809D01*
X561500Y705791D02*
Y709063D01*
X556000Y473563D02*
Y473760D01*
X564337Y485570D02*
X567475Y488707D01*
X547035Y582988D02*
X567475Y562548D01*
X481232Y514500D02*
X485758D01*
X552760Y509770D02*
X554935Y507595D01*
X538858Y487838D02*
X552260Y501240D01*
X537258Y463053D02*
Y502027D01*
X483937Y585361D02*
X486356D01*
X487609Y586614D01*
X483351Y584775D02*
X483937Y585361D01*
X483351Y582500D02*
Y584775D01*
Y544500D02*
X485470D01*
X479093Y512361D02*
X481232Y514500D01*
X521760Y562740D02*
Y562937D01*
X502649Y539500D02*
X504768D01*
X503149Y616500D02*
X518520D01*
X522760Y620740D01*
Y620937D01*
X503011Y648511D02*
Y699763D01*
X495691Y611839D02*
X501030Y606500D01*
X519685Y716437D02*
X522760D01*
X529175Y701849D02*
Y710790D01*
X528065Y700739D02*
X529175Y701849D01*
X528065Y696210D02*
Y700739D01*
X497291Y638265D02*
X510880Y651855D01*
X509280Y652518D02*
Y698508D01*
X556260Y639437D02*
Y639634D01*
X526465Y701402D02*
X526500Y701437D01*
X541900Y653994D02*
X556260Y639634D01*
X524470Y711435D02*
X528530D01*
X477300Y600644D02*
Y627425D01*
X528530Y711435D02*
X529175Y710790D01*
X526500Y701437D02*
Y708563D01*
X495691Y611839D02*
Y638928D01*
X509280Y698508D02*
X523807Y713035D01*
X543500Y671394D02*
X556760Y658134D01*
X501030Y606500D02*
X503149D01*
X495691Y638928D02*
X509280Y652518D01*
X523807Y713035D02*
X529193D01*
X540359Y701869D01*
X478890Y628097D02*
Y677905D01*
X556760Y657937D02*
Y658134D01*
X518485Y677064D02*
X523260Y681839D01*
X505268Y636500D02*
X518485Y649717D01*
X557760Y676937D02*
Y677134D01*
X478890Y677905D02*
X520294Y719309D01*
X478900Y601306D02*
X487609Y592597D01*
X477300Y600644D02*
X479300Y598644D01*
X479093Y588386D02*
X479300Y588594D01*
X505361Y629361D02*
X507931D01*
X518485Y642177D02*
Y647454D01*
X520085Y649054D01*
X523260Y681839D02*
Y698437D01*
X503149Y636500D02*
X505268D01*
X518485Y649717D02*
Y677064D01*
X556000Y493563D02*
X557065Y494628D01*
X552260Y501240D02*
Y501437D01*
X524500Y451063D02*
Y451260D01*
X494700Y507537D02*
Y516654D01*
X545294Y565363D02*
X545384Y565272D01*
Y553246D02*
X555195Y543436D01*
X540458Y469438D02*
X552260Y481240D01*
X502649Y534500D02*
X504768D01*
X552260Y481240D02*
Y481437D01*
X500530Y562500D02*
X502649D01*
X500530Y567500D02*
X502649D01*
X504768Y514500D02*
X515985Y503283D01*
X520260Y520437D02*
Y520634D01*
X543424Y585047D02*
X543514Y584957D01*
X547329D01*
X555000Y450063D02*
Y450260D01*
X543514Y582988D02*
X547035D01*
X543424Y583078D02*
X543514Y582988D01*
X543424Y581110D02*
X543514Y581020D01*
X546740D01*
X543514Y579051D02*
X546447D01*
X543424Y579142D02*
X543514Y579051D01*
Y577083D02*
X546152D01*
X543424Y577174D02*
X543514Y577083D01*
X543333Y575114D02*
X543424Y575205D01*
X543333Y571177D02*
X543424Y571268D01*
X540507Y567053D02*
X542500D01*
X539863Y566409D02*
X540507Y567053D01*
X540106Y571177D02*
X543333D01*
X525500Y555260D02*
X529536Y559296D01*
X533463Y569060D02*
X539517Y575114D01*
X533463Y562258D02*
Y569060D01*
X539517Y575114D02*
X543333D01*
Y573146D02*
X543424Y573237D01*
X539812Y573146D02*
X543333D01*
X530501Y559296D02*
X533463Y562258D01*
X524000Y474260D02*
X525075Y475335D01*
X524000Y474063D02*
Y474260D01*
Y494063D02*
Y494260D01*
X529536Y559296D02*
X530501D01*
X525500Y555063D02*
Y555260D01*
Y574063D02*
X528063D01*
X534379Y580379D01*
Y580609D01*
X540694Y586925D01*
X543333D01*
X543424Y587015D01*
X532600Y593563D02*
X537178Y588984D01*
X543424D01*
X527500Y593563D02*
X532600D01*
X539900Y619630D02*
Y625375D01*
X527565Y637710D02*
Y648998D01*
X526500Y612866D02*
Y613063D01*
Y612866D02*
X538571Y600796D01*
X543424D01*
X539812Y602854D02*
X543333D01*
X543424Y602764D01*
X540106Y604823D02*
X543333D01*
X543424Y604733D01*
X540400Y606791D02*
X543333D01*
X543424Y606701D01*
X527000Y690366D02*
Y690563D01*
X543514Y591043D02*
X547329D01*
X543424Y590952D02*
X543514Y591043D01*
Y593012D02*
X547035D01*
X543424Y592921D02*
X543514Y593012D01*
X543424Y594889D02*
X543514Y594980D01*
X546740D01*
X543514Y596949D02*
X546447D01*
X543424Y596859D02*
X543514Y596949D01*
X560500Y649866D02*
Y650063D01*
X560000Y612765D02*
Y631563D01*
X545784Y598549D02*
X560000Y612765D01*
X544000Y598549D02*
X545784D01*
D18*
X543424Y610638D02*
D03*
Y608670D02*
D03*
Y606701D02*
D03*
Y604733D02*
D03*
Y602764D02*
D03*
Y600796D02*
D03*
Y598827D02*
D03*
Y596859D02*
D03*
Y594889D02*
D03*
Y592921D02*
D03*
Y590952D02*
D03*
Y588984D02*
D03*
Y587015D02*
D03*
Y585047D02*
D03*
Y583078D02*
D03*
Y581110D02*
D03*
Y579142D02*
D03*
Y577174D02*
D03*
Y575205D02*
D03*
Y573237D02*
D03*
Y571268D02*
D03*
Y569300D02*
D03*
Y567331D02*
D03*
Y565363D02*
D03*
D19*
X552576Y558708D02*
D03*
Y617291D02*
D03*
D52*
X390000Y725500D02*
D03*
Y715500D02*
D03*
Y705500D02*
D03*
Y695500D02*
D03*
Y685500D02*
D03*
Y675500D02*
D03*
Y665500D02*
D03*
Y655500D02*
D03*
Y645500D02*
D03*
Y495500D02*
D03*
X330000Y525500D02*
D03*
Y535500D02*
D03*
Y545500D02*
D03*
Y555500D02*
D03*
Y565500D02*
D03*
Y575500D02*
D03*
Y585500D02*
D03*
Y595500D02*
D03*
Y605500D02*
D03*
Y615500D02*
D03*
Y625500D02*
D03*
Y635500D02*
D03*
Y515500D02*
D03*
Y505500D02*
D03*
Y495500D02*
D03*
Y645500D02*
D03*
Y655500D02*
D03*
Y665500D02*
D03*
Y675500D02*
D03*
Y685500D02*
D03*
Y695500D02*
D03*
Y705500D02*
D03*
Y715500D02*
D03*
Y725500D02*
D03*
X390000Y635500D02*
D03*
Y625500D02*
D03*
Y615500D02*
D03*
Y605500D02*
D03*
Y595500D02*
D03*
Y585500D02*
D03*
Y575500D02*
D03*
Y565500D02*
D03*
Y555500D02*
D03*
Y545500D02*
D03*
Y535500D02*
D03*
Y525500D02*
D03*
Y515500D02*
D03*
D53*
Y505500D02*
D03*
D54*
X329000Y479937D02*
D03*
D55*
Y472063D02*
D03*
D58*
X536565Y640900D02*
X536700D01*
X530240Y639937D02*
X535602D01*
X536565Y640900D01*
X527500Y598000D02*
X527596Y598096D01*
X527773D01*
X530980Y601303D01*
X530565Y658459D02*
X534988D01*
X530240Y658134D02*
X530565Y658459D01*
X530240Y657937D02*
Y658134D01*
X535223Y658694D02*
X535358D01*
X534988Y658459D02*
X535223Y658694D01*
X523785Y499386D02*
Y499514D01*
X524936Y500665D01*
X527803Y482000D02*
X531865D01*
X532365Y482500D01*
X532500D01*
X526529Y516341D02*
X527415Y517228D01*
Y520112D02*
X527740Y520437D01*
X526529Y516206D02*
Y516341D01*
X527415Y517228D02*
Y520112D01*
X517500Y544105D02*
X517835Y544440D01*
X528740Y542437D02*
Y542634D01*
X524392Y546059D02*
X527492Y542959D01*
X517500Y543824D02*
Y544105D01*
X527492Y542959D02*
X528415D01*
X517835Y544975D02*
X518919Y546059D01*
X528415Y542959D02*
X528740Y542634D01*
X517835Y544440D02*
Y544975D01*
X518919Y546059D02*
X524392D01*
X528915Y563262D02*
Y564007D01*
Y563262D02*
X529240Y562937D01*
X518459Y568159D02*
X524764D01*
X528915Y564007D01*
X518400Y568100D02*
X518459Y568159D01*
X536637Y620937D02*
X536700Y621000D01*
X530240Y620937D02*
X536637D01*
X536093Y698036D02*
X536188Y697941D01*
X530740Y698361D02*
X531065Y698036D01*
X536093D01*
X530740Y698361D02*
Y698437D01*
Y677134D02*
X531065Y677459D01*
X534634D01*
X530740Y676937D02*
Y677134D01*
X535365Y678189D02*
X535500D01*
X534634Y677459D02*
X535365Y678189D01*
X530240Y716421D02*
X530565Y716096D01*
X530240Y716421D02*
Y716437D01*
X530565Y716096D02*
X533904D01*
X534000Y716000D01*
X565240Y716825D02*
Y716937D01*
Y716825D02*
X565565Y716500D01*
X569500D01*
X524936Y500665D02*
X526665D01*
X530980Y601303D02*
Y601500D01*
X527740Y501740D02*
Y501937D01*
X526665Y500665D02*
X527740Y501740D01*
X529240Y581937D02*
Y584989D01*
X528500Y585729D02*
X529240Y584989D01*
X528500Y585729D02*
Y586000D01*
D60*
X446673Y724000D02*
D03*
D61*
X418327D02*
D03*
D62*
X536700Y640900D02*
D03*
X527500Y598000D02*
D03*
X535358Y658694D02*
D03*
X523785Y499386D02*
D03*
X532500Y482500D02*
D03*
X526529Y516206D02*
D03*
X517585Y544055D02*
D03*
X518400Y568100D02*
D03*
X536700Y621000D02*
D03*
X536188Y697941D02*
D03*
X535500Y678189D02*
D03*
X534000Y716000D02*
D03*
X568000Y659000D02*
D03*
X378500Y475500D02*
D03*
X569400Y677500D02*
D03*
Y695500D02*
D03*
X381500Y468500D02*
D03*
Y458500D02*
D03*
X528500Y586000D02*
D03*
X560500Y640000D02*
D03*
D63*
X556000Y704000D02*
D03*
X569500Y716500D02*
D03*
X448500Y476500D02*
D03*
X423000Y606500D02*
D03*
X569000Y460000D02*
D03*
X484000Y457000D02*
D03*
X484537Y502308D02*
D03*
X492809Y497309D02*
D03*
X485000Y495500D02*
D03*
X488233Y565733D02*
D03*
X485109Y574861D02*
D03*
X559600Y537000D02*
D03*
X559500Y485029D02*
D03*
X553550Y497262D02*
D03*
X556000Y490000D02*
D03*
X556059Y470191D02*
D03*
X422500Y527000D02*
D03*
X435850Y658000D02*
D03*
X570500Y673500D02*
D03*
X570000Y668000D02*
D03*
X568500Y704000D02*
D03*
X485509Y527139D02*
D03*
X476055Y534845D02*
D03*
X479150Y532000D02*
D03*
X487000Y484500D02*
D03*
X500500Y479000D02*
D03*
X484150Y492283D02*
D03*
X483000Y479500D02*
D03*
X554500Y459384D02*
D03*
X568812Y454647D02*
D03*
X525500Y455000D02*
D03*
X483425Y451999D02*
D03*
X436000Y584000D02*
D03*
X432500Y569500D02*
D03*
X436000Y628000D02*
D03*
X439350Y623000D02*
D03*
X563500Y517000D02*
D03*
X551966Y536868D02*
D03*
X556400Y527000D02*
D03*
X556500Y729850D02*
D03*
X491607Y503135D02*
D03*
X559159Y461500D02*
D03*
X571500Y704954D02*
D03*
X573100Y688894D02*
D03*
X569110Y724000D02*
D03*
X399559Y465724D02*
D03*
X394441Y456669D02*
D03*
X399559Y456669D02*
D03*
Y461000D02*
D03*
X394441Y465724D02*
D03*
Y461000D02*
D03*
X423059Y505724D02*
D03*
X417941Y496669D02*
D03*
X423059Y496669D02*
D03*
Y501000D02*
D03*
X417941Y505724D02*
D03*
Y501000D02*
D03*
X508500Y516000D02*
D03*
X515300Y517565D02*
D03*
X498400Y512600D02*
D03*
X504200Y511173D02*
D03*
X539500Y535000D02*
D03*
X537459Y536611D02*
D03*
X499684Y522000D02*
D03*
X479086Y521037D02*
D03*
X556500Y723500D02*
D03*
X569400Y650500D02*
D03*
X572500Y643500D02*
D03*
X565500Y632088D02*
D03*
X571300Y632000D02*
D03*
X556600Y545000D02*
D03*
X508382Y559882D02*
D03*
X500211Y548261D02*
D03*
X573500Y547500D02*
D03*
Y542500D02*
D03*
X505000Y598000D02*
D03*
X473000Y506500D02*
D03*
X485200Y549500D02*
D03*
X481000Y550000D02*
D03*
X484575Y609220D02*
D03*
X473020Y605980D02*
D03*
X475600Y590000D02*
D03*
X475392Y566030D02*
D03*
X488134Y572366D02*
D03*
X483000Y590000D02*
D03*
X571500Y492500D02*
D03*
X568500Y484500D02*
D03*
Y472500D02*
D03*
X571400Y471837D02*
D03*
X473600Y625000D02*
D03*
X480990Y628967D02*
D03*
X439500Y579000D02*
D03*
X472400Y686500D02*
D03*
X482600Y640000D02*
D03*
X482000Y608861D02*
D03*
X485004Y598504D02*
D03*
X491500Y600829D02*
D03*
Y625000D02*
D03*
X484000Y671000D02*
D03*
X473000Y484500D02*
D03*
X472000Y459000D02*
D03*
Y448500D02*
D03*
X488600Y698283D02*
D03*
X486000D02*
D03*
X491500Y722500D02*
D03*
X488000D02*
D03*
X484500Y720500D02*
D03*
X491233Y698283D02*
D03*
X423500Y645000D02*
D03*
X566000Y723330D02*
D03*
X418000Y527000D02*
D03*
X432000D02*
D03*
X450100Y589000D02*
D03*
X457500Y522000D02*
D03*
X556500Y509000D02*
D03*
X394000Y485000D02*
D03*
X433500Y481000D02*
D03*
X475000Y522000D02*
D03*
X491000Y454500D02*
D03*
X400000Y484500D02*
D03*
X382000Y453500D02*
D03*
X362500Y457500D02*
D03*
X381500Y463500D02*
D03*
X385500Y485500D02*
D03*
X404500Y503500D02*
D03*
X407500Y484500D02*
D03*
X404500Y493000D02*
D03*
X415500Y475000D02*
D03*
X448000Y449000D02*
D03*
X459000Y486500D02*
D03*
X409500Y525500D02*
D03*
X442000Y516000D02*
D03*
X439500Y569500D02*
D03*
X440000Y614000D02*
D03*
X411500Y702000D02*
D03*
X488000Y620000D02*
D03*
X489000Y649500D02*
D03*
X565500Y687500D02*
D03*
X571500Y529500D02*
D03*
X572000Y511500D02*
D03*
X559500Y497500D02*
D03*
X405000Y498500D02*
D03*
X404500Y508500D02*
D03*
X405000Y514500D02*
D03*
X439500Y534500D02*
D03*
Y539500D02*
D03*
Y544500D02*
D03*
X440000Y633000D02*
D03*
X427500Y691000D02*
D03*
X429000Y705000D02*
D03*
Y698500D02*
D03*
X439000Y688500D02*
D03*
Y697500D02*
D03*
X419500Y702000D02*
D03*
X488000Y673626D02*
D03*
X491500D02*
D03*
X486400Y649500D02*
D03*
X491600D02*
D03*
X488338Y625334D02*
D03*
X488559Y600988D02*
D03*
X487838Y576334D02*
D03*
X491156Y576171D02*
D03*
X489500Y557000D02*
D03*
X571500Y487500D02*
D03*
Y506500D02*
D03*
X571415Y524500D02*
D03*
X556000Y632000D02*
D03*
Y650000D02*
D03*
X556500Y668000D02*
D03*
X556000Y687500D02*
D03*
X460500Y489500D02*
D03*
D64*
X443000Y674500D02*
D03*
D65*
X483351Y544500D02*
D03*
Y539500D02*
D03*
Y534500D02*
D03*
Y529500D02*
D03*
Y524500D02*
D03*
Y519500D02*
D03*
Y514500D02*
D03*
Y509500D02*
D03*
X502649D02*
D03*
Y514500D02*
D03*
Y519500D02*
D03*
Y524500D02*
D03*
Y529500D02*
D03*
Y534500D02*
D03*
Y539500D02*
D03*
X483351Y587500D02*
D03*
Y582500D02*
D03*
Y577500D02*
D03*
Y572500D02*
D03*
Y567500D02*
D03*
Y562500D02*
D03*
Y557500D02*
D03*
Y552500D02*
D03*
X502649D02*
D03*
Y557500D02*
D03*
Y562500D02*
D03*
Y567500D02*
D03*
Y572500D02*
D03*
Y577500D02*
D03*
Y582500D02*
D03*
X483851Y636500D02*
D03*
Y631500D02*
D03*
Y626500D02*
D03*
Y621500D02*
D03*
Y616500D02*
D03*
Y611500D02*
D03*
Y606500D02*
D03*
Y601500D02*
D03*
X503149D02*
D03*
Y606500D02*
D03*
Y611500D02*
D03*
Y616500D02*
D03*
Y621500D02*
D03*
Y626500D02*
D03*
Y631500D02*
D03*
D66*
X502649Y544500D02*
D03*
Y587500D02*
D03*
X503149Y636500D02*
D03*
D67*
X555000Y450063D02*
D03*
X558740Y457937D02*
D03*
X551260D02*
D03*
X561000Y691063D02*
D03*
X564740Y698937D02*
D03*
X557260D02*
D03*
X526500Y613063D02*
D03*
X530240Y620937D02*
D03*
X522760D02*
D03*
X527000Y690563D02*
D03*
X530740Y698437D02*
D03*
X523260D02*
D03*
X556260Y532626D02*
D03*
X560000Y540500D02*
D03*
X552520D02*
D03*
X524000Y494063D02*
D03*
X527740Y501937D02*
D03*
X520260D02*
D03*
X525000Y534563D02*
D03*
X528740Y542437D02*
D03*
X521260D02*
D03*
X524500Y451063D02*
D03*
X528240Y458937D02*
D03*
X520760D02*
D03*
X556000Y493563D02*
D03*
X559740Y501437D02*
D03*
X552260D02*
D03*
X527240Y593626D02*
D03*
X530980Y601500D02*
D03*
X523500D02*
D03*
X560500Y650063D02*
D03*
X564240Y657937D02*
D03*
X556760D02*
D03*
X526500Y650063D02*
D03*
X530240Y657937D02*
D03*
X522760D02*
D03*
X556000Y473563D02*
D03*
X559740Y481437D02*
D03*
X552260D02*
D03*
X561500Y709063D02*
D03*
X565240Y716937D02*
D03*
X557760D02*
D03*
X527000Y669063D02*
D03*
X530740Y676937D02*
D03*
X523260D02*
D03*
X525500Y555063D02*
D03*
X529240Y562937D02*
D03*
X521760D02*
D03*
X560000Y631563D02*
D03*
X563740Y639437D02*
D03*
X556260D02*
D03*
X556500Y512563D02*
D03*
X560240Y520437D02*
D03*
X552760D02*
D03*
X524000Y512563D02*
D03*
X527740Y520437D02*
D03*
X520260D02*
D03*
X525500Y574063D02*
D03*
X529240Y581937D02*
D03*
X521760D02*
D03*
X561500Y669063D02*
D03*
X565240Y676937D02*
D03*
X557760D02*
D03*
X526500Y632063D02*
D03*
X530240Y639937D02*
D03*
X522760D02*
D03*
X524000Y474063D02*
D03*
X527740Y481937D02*
D03*
X520260D02*
D03*
X526500Y708563D02*
D03*
X530240Y716437D02*
D03*
X522760D02*
D03*
D68*
X465000Y490256D02*
D03*
Y484744D02*
D03*
D69*
X475000Y489000D02*
D03*
X480512D02*
D03*
X490500Y489500D02*
D03*
X496012D02*
D03*
M02*
