G04*
G04 #@! TF.GenerationSoftware,Altium Limited,Altium Designer,23.5.1 (21)*
G04*
G04 Layer_Physical_Order=1*
G04 Layer_Color=255*
%FSLAX25Y25*%
%MOIN*%
G70*
G04*
G04 #@! TF.SameCoordinates,62E66B6F-0332-4FDC-AC1A-6E2C05ECB38F*
G04*
G04*
G04 #@! TF.FilePolarity,Positive*
G04*
G01*
G75*
%ADD13C,0.01000*%
%ADD16R,0.05800X0.04400*%
%ADD17R,0.05764X0.01624*%
%ADD18R,0.04921X0.01181*%
%ADD19R,0.11811X0.07874*%
%ADD20R,0.04400X0.05800*%
%ADD21R,0.05906X0.02362*%
G04:AMPARAMS|DCode=22|XSize=94.49mil|YSize=122.05mil|CornerRadius=1.89mil|HoleSize=0mil|Usage=FLASHONLY|Rotation=180.000|XOffset=0mil|YOffset=0mil|HoleType=Round|Shape=RoundedRectangle|*
%AMROUNDEDRECTD22*
21,1,0.09449,0.11827,0,0,180.0*
21,1,0.09071,0.12205,0,0,180.0*
1,1,0.00378,-0.04535,0.05913*
1,1,0.00378,0.04535,0.05913*
1,1,0.00378,0.04535,-0.05913*
1,1,0.00378,-0.04535,-0.05913*
%
%ADD22ROUNDEDRECTD22*%
G04:AMPARAMS|DCode=23|XSize=23.62mil|YSize=57.09mil|CornerRadius=2.01mil|HoleSize=0mil|Usage=FLASHONLY|Rotation=270.000|XOffset=0mil|YOffset=0mil|HoleType=Round|Shape=RoundedRectangle|*
%AMROUNDEDRECTD23*
21,1,0.02362,0.05307,0,0,270.0*
21,1,0.01961,0.05709,0,0,270.0*
1,1,0.00402,-0.02653,-0.00980*
1,1,0.00402,-0.02653,0.00980*
1,1,0.00402,0.02653,0.00980*
1,1,0.00402,0.02653,-0.00980*
%
%ADD23ROUNDEDRECTD23*%
%ADD24R,0.03543X0.02756*%
%ADD25R,0.03937X0.03937*%
%ADD26R,0.06693X0.08465*%
%ADD27R,0.06890X0.03740*%
%ADD28R,0.06890X0.12598*%
%ADD29R,0.02559X0.03543*%
%ADD30R,0.05512X0.05472*%
%ADD31R,0.19134X0.13228*%
%ADD32R,0.08268X0.07087*%
%ADD33R,0.05118X0.06693*%
%ADD34R,0.03701X0.02126*%
%ADD35R,0.03937X0.03937*%
%ADD36R,0.07890X0.06510*%
%ADD52C,0.06181*%
%ADD53R,0.06181X0.06181*%
%ADD54C,0.05472*%
%ADD55R,0.05472X0.05472*%
%ADD58C,0.02500*%
%ADD59C,0.04000*%
%ADD60C,0.23622*%
%ADD61R,0.23622X0.23622*%
%ADD62C,0.03000*%
%ADD63C,0.02000*%
%ADD64C,0.04000*%
D13*
X534100Y635518D02*
Y650100D01*
X533900Y635318D02*
X534100Y635518D01*
Y650100D02*
X538800Y654800D01*
X533900Y626082D02*
Y635318D01*
X510500Y597082D02*
X518000D01*
X524418D01*
X532064Y589435D02*
X542500D01*
X524418Y597082D02*
X532064Y589435D01*
X521185Y500463D02*
X522600Y501878D01*
X521185Y478748D02*
Y500463D01*
X522329Y511566D02*
Y520401D01*
Y511566D02*
X522600Y511295D01*
X522329Y520401D02*
X525759Y523832D01*
X517700Y475264D02*
X521185Y478748D01*
X522600Y501878D02*
Y511295D01*
X517700Y450900D02*
X527000Y460200D01*
X523929Y512229D02*
X527000Y509157D01*
Y460200D02*
Y509157D01*
X532300Y563468D02*
X540182Y571350D01*
X529100Y564939D02*
X539539Y575378D01*
X530729Y488616D02*
Y518042D01*
Y488616D02*
X537100Y482244D01*
X530700Y564131D02*
X540256Y573687D01*
X532329Y500171D02*
Y523488D01*
X529129Y461871D02*
Y517282D01*
Y461871D02*
X535500Y455500D01*
X532329Y500171D02*
X538800Y493700D01*
X532159Y523658D02*
Y546975D01*
X533759Y546312D02*
X533900Y546453D01*
X533759Y530798D02*
Y546312D01*
X532159Y546975D02*
X532300Y547115D01*
X529100Y548441D02*
Y564939D01*
X523929Y512229D02*
Y519738D01*
X520729Y521064D02*
X524159Y524495D01*
X530700Y547778D02*
Y564131D01*
X520729Y510903D02*
Y521064D01*
X521000Y502927D02*
Y510632D01*
X527359Y523169D02*
Y548963D01*
X506500Y475264D02*
X517700D01*
X501626D02*
X506500D01*
X501626Y450900D02*
X506500D01*
X520729Y510903D02*
X521000Y510632D01*
X524159Y524495D02*
Y550288D01*
X532300Y547115D02*
Y563468D01*
X528959Y517452D02*
Y548300D01*
X530559Y547637D02*
X530700Y547778D01*
X532159Y523658D02*
X532329Y523488D01*
X530559Y518211D02*
X530729Y518042D01*
X533900Y562806D02*
X540477Y569382D01*
X506500Y499627D02*
X517700D01*
X530559Y518211D02*
Y547637D01*
X525759Y523832D02*
Y549626D01*
X506500Y450900D02*
X517700D01*
X533929Y516471D02*
X538800Y511600D01*
X533900Y546453D02*
Y562806D01*
X523929Y519738D02*
X527359Y523169D01*
X517700Y499627D02*
X521000Y502927D01*
X501626Y499627D02*
X506500D01*
X528959Y548300D02*
X529100Y548441D01*
X533929Y516471D02*
Y530629D01*
X528959Y517452D02*
X529129Y517282D01*
X533759Y530798D02*
X533929Y530629D01*
X535500Y626744D02*
X539300Y622944D01*
Y613141D02*
X541539Y610902D01*
X539300Y613141D02*
Y622944D01*
X534100Y615604D02*
X540584Y609120D01*
X533900Y626082D02*
X534100Y625882D01*
Y615604D02*
Y625882D01*
X556000Y704000D02*
X560771D01*
X555765Y706559D02*
X560771D01*
X555024Y707300D02*
X555765Y706559D01*
X563153Y504847D02*
Y506070D01*
Y504847D02*
X568380Y499620D01*
X569612D01*
X562841Y506382D02*
X563153Y506070D01*
X569612Y499620D02*
X575200Y494033D01*
Y450137D02*
Y494033D01*
X555536Y506382D02*
X562841D01*
X554062Y448062D02*
Y451062D01*
X552400Y446400D02*
X554062Y448062D01*
X470063Y446400D02*
X552400D01*
X554941Y451941D02*
X560771D01*
X554062Y451062D02*
X554941Y451941D01*
X554062Y451062D02*
Y454738D01*
X535500Y452844D02*
Y455500D01*
Y460756D01*
X448500Y469427D02*
Y476500D01*
Y469427D02*
X450810Y467117D01*
X423000Y606500D02*
X434100D01*
X435000Y605600D01*
X448793Y560767D02*
Y571137D01*
X444740Y559500D02*
X445421Y560181D01*
X448207D02*
X448793Y560767D01*
X445421Y560181D02*
X448207D01*
X445107Y593763D02*
X448737D01*
X452200Y556997D02*
Y590300D01*
X444870Y594000D02*
X445107Y593763D01*
X448737D02*
X452200Y590300D01*
X439217Y595962D02*
Y599217D01*
X442417Y603319D02*
X443098Y604000D01*
X442417Y602417D02*
Y603319D01*
X439217Y599217D02*
X442417Y602417D01*
X443098Y604000D02*
X446642D01*
X437500Y632530D02*
Y642902D01*
X442598Y648000D01*
X437500Y632530D02*
X439397Y630633D01*
X432200Y634500D02*
X435900Y638200D01*
Y646302D01*
X442598Y653000D01*
X440317Y636363D02*
Y640719D01*
X442598Y643000D01*
X440317Y636363D02*
X441399Y635281D01*
X330000Y625500D02*
X365000Y660500D01*
X447560D02*
X450023Y658037D01*
X365000Y660500D02*
X447560D01*
X567181Y464789D02*
X571210Y460759D01*
X563153Y468708D02*
X567072Y464789D01*
X569000Y457371D02*
Y460000D01*
X567072Y464789D02*
X567181D01*
X568688Y457059D02*
X569000Y457371D01*
X567229Y457059D02*
X568688D01*
X563153Y468708D02*
Y469570D01*
X571210Y450673D02*
Y460759D01*
X489242Y457029D02*
X489271Y457059D01*
X484029Y457029D02*
X489242D01*
X484000Y457000D02*
X484029Y457029D01*
X483792Y500208D02*
X493000Y491000D01*
Y484151D02*
X495729Y481423D01*
X493000Y484151D02*
Y491000D01*
X495729Y481423D02*
X500585D01*
X483545Y504393D02*
Y505310D01*
X488736Y510500D01*
X482436Y503284D02*
X483545Y504393D01*
X484728Y502499D02*
Y503312D01*
X482437Y501439D02*
Y501563D01*
Y501439D02*
X483667Y500208D01*
X483792D01*
X482436Y501564D02*
Y503284D01*
Y501564D02*
X482437Y501563D01*
X484537Y502308D02*
X484728Y502499D01*
X489271Y500668D02*
X491341D01*
X491653Y500356D01*
Y498735D02*
Y500356D01*
X492809Y497309D02*
Y497579D01*
X491653Y498735D02*
X492809Y497579D01*
X478500Y496500D02*
X479500Y495500D01*
X485000D01*
X476193Y565500D02*
X487729D01*
X487962Y565733D02*
X488233D01*
X475392Y566030D02*
X475663D01*
X476193Y565500D01*
X487729D02*
X487962Y565733D01*
X466811Y588319D02*
X468681D01*
X466130Y589000D02*
X466811Y588319D01*
X493347Y554825D02*
Y563653D01*
X468681Y588319D02*
X493347Y563653D01*
X512400Y621445D02*
X517700D01*
X539096Y597032D02*
X543500D01*
X540584Y609120D02*
X542000D01*
X519400Y609939D02*
X538213Y591126D01*
X530700Y614479D02*
Y683100D01*
X527500Y613153D02*
X539594Y601060D01*
X532300Y666500D02*
X538800Y673000D01*
X519400Y609939D02*
Y619745D01*
X540541Y726059D02*
X560771D01*
X530700Y614479D02*
X540182Y604997D01*
X505800Y650409D02*
X517700D01*
X529100Y699700D02*
X538800Y709400D01*
X525900Y612491D02*
Y710700D01*
X501626Y718900D02*
X517700D01*
X524300Y611828D02*
Y687936D01*
X540182Y604997D02*
X543409D01*
X539391Y599000D02*
X543500D01*
X538507Y593095D02*
X543500D01*
X501626Y670173D02*
X517700D01*
X522700Y611165D02*
Y665173D01*
X530700Y683100D02*
X538800Y691200D01*
X538213Y591126D02*
X543500D01*
X521100Y610502D02*
Y647009D01*
X525900Y612491D02*
X539391Y599000D01*
X501626Y694536D02*
X517700D01*
X543409Y601060D02*
X543500Y600969D01*
X524300Y611828D02*
X539096Y597032D01*
X538523Y595341D02*
X542000D01*
X532300Y615141D02*
X540477Y606964D01*
X522700Y611165D02*
X538523Y595341D01*
X527500Y613153D02*
Y715800D01*
X540641Y690059D02*
X560771D01*
X529100Y613816D02*
X539701Y603215D01*
X543409Y604997D02*
X543500Y604906D01*
X543409Y606964D02*
X543500Y606874D01*
X539594Y601060D02*
X543409D01*
X527500Y715800D02*
X538800Y727100D01*
X521100Y610502D02*
X538507Y593095D01*
X540477Y606964D02*
X543409D01*
X532300Y615141D02*
Y666500D01*
X529100Y613816D02*
Y699700D01*
X539701Y603215D02*
X542500D01*
X384276Y476500D02*
X385500Y475276D01*
X556000Y490000D02*
X560771D01*
X553550Y497262D02*
X555592Y495220D01*
X550000Y486400D02*
X551041Y487441D01*
X562841D01*
X556059Y470191D02*
Y470419D01*
X557769Y472129D01*
X424900Y521100D02*
Y524600D01*
X422500Y527000D02*
X424900Y524600D01*
X435850Y658000D02*
X444370D01*
X567229Y670618D02*
X569299D01*
X569611Y670930D01*
Y672340D01*
X570500Y673229D01*
Y673500D01*
X567229Y665500D02*
X569299D01*
X569611Y665812D01*
X570000Y667729D02*
Y668000D01*
X569611Y665812D02*
Y667340D01*
X570000Y667729D01*
X567229Y706559D02*
X568188D01*
X568500Y706247D01*
Y704000D02*
Y706247D01*
X485509Y527139D02*
X485701Y526948D01*
X479150Y548150D02*
X481000Y550000D01*
X471653Y534265D02*
X479581Y526337D01*
X468453Y532939D02*
Y533819D01*
X478280Y529900D02*
X489021D01*
X470053Y533602D02*
Y537219D01*
X479581Y526337D02*
X482717D01*
X470053Y533602D02*
X478918Y524737D01*
X468453Y532939D02*
X478255Y523137D01*
X481391D01*
X471653Y534265D02*
Y569537D01*
X476055Y532125D02*
Y534845D01*
Y532125D02*
X478280Y529900D01*
X478918Y524737D02*
X482054D01*
X495729Y505786D02*
X500585D01*
X487000Y481735D02*
Y484500D01*
X487312Y481423D02*
X489271D01*
X487000Y481735D02*
X487312Y481423D01*
X495797Y478932D02*
X500432D01*
X500500Y479000D01*
X495729Y478864D02*
X495797Y478932D01*
X483000Y479500D02*
X483191Y479309D01*
X484197D02*
X487201Y476305D01*
X480800Y478730D02*
X495729Y463801D01*
X480800Y478730D02*
Y485444D01*
X483191Y479309D02*
X484197D01*
X495729Y457059D02*
Y463801D01*
X554500Y459384D02*
X554691Y459193D01*
X556880Y458881D02*
Y459974D01*
X535500Y460756D02*
X536228Y461484D01*
X554691Y457890D02*
Y459193D01*
X557769Y454812D02*
X560459D01*
X555370Y461484D02*
X556880Y459974D01*
X554691Y457890D02*
X557769Y454812D01*
X560459D02*
X560771Y454500D01*
X536228Y461484D02*
X555370D01*
X556880Y458881D02*
X558701Y457059D01*
X568812Y452253D02*
Y454647D01*
X567229Y451941D02*
X568500D01*
X568812Y452253D01*
X565337Y444800D02*
X571210Y450673D01*
X525759Y549626D02*
X525800Y549666D01*
X436000Y584000D02*
X444870D01*
X433900Y581630D02*
X439147Y576383D01*
X433900Y581630D02*
Y590644D01*
X439217Y595962D01*
X432500Y566600D02*
Y569500D01*
Y566600D02*
X434000Y565100D01*
X436000Y628000D02*
X444370D01*
X439350Y623000D02*
X444370D01*
X541550Y536868D02*
X551966D01*
X539500Y535000D02*
X539681D01*
X556400Y527000D02*
X560771D01*
X487987Y733550D02*
X567250D01*
X485999Y738350D02*
X569238D01*
X569901Y739950D02*
X580000Y729851D01*
X485336Y739950D02*
X569901D01*
X567913Y735150D02*
X575200Y727863D01*
X567250Y733550D02*
X573600Y727200D01*
X569238Y738350D02*
X578400Y729188D01*
X486662Y736750D02*
X568575D01*
X488650Y731950D02*
X566587D01*
X487325Y735150D02*
X567913D01*
X455177Y705265D02*
X486662Y736750D01*
X566587Y731950D02*
X571210Y727327D01*
X568575Y736750D02*
X576800Y728525D01*
X453577Y705928D02*
X485999Y738350D01*
X451977Y706591D02*
X485336Y739950D01*
X456777Y704602D02*
X487325Y735150D01*
X458377Y703940D02*
X487987Y733550D01*
X459977Y703277D02*
X488650Y731950D01*
X540259Y701441D02*
X562841D01*
X539800Y665500D02*
X562841D01*
X539518Y629382D02*
X562841D01*
X539659Y647441D02*
X562841D01*
X540541Y720941D02*
X562841D01*
X540441Y684941D02*
X562841D01*
X489243Y451970D02*
X489271Y451941D01*
X491653Y503181D02*
X495683D01*
X491607Y503135D02*
X491653Y503181D01*
X495683D02*
X495729Y503227D01*
X535500Y626744D02*
Y633300D01*
X541539Y565445D02*
X543409D01*
X404962Y503500D02*
X409772D01*
X539681Y535000D02*
X541550Y536868D01*
X477567Y628967D02*
X480924D01*
X555174Y653000D02*
X555615Y652559D01*
X329500Y495000D02*
X330000Y495500D01*
X329000Y480000D02*
X329500Y480500D01*
Y495000D01*
X455177Y641681D02*
Y705265D01*
X453723Y633135D02*
Y635873D01*
X459977Y651881D02*
Y703277D01*
X563891Y683029D02*
X570566D01*
X563153Y628208D02*
X563891Y627470D01*
X563153Y646267D02*
X568020Y641400D01*
X573370D01*
X580000Y636904D02*
Y729851D01*
X453577Y638281D02*
Y705928D01*
X451977Y637618D02*
X453723Y635873D01*
X453577Y638281D02*
X463858Y628000D01*
X458377Y648481D02*
Y703940D01*
X451977Y637618D02*
Y706591D01*
X569299Y684941D02*
X573100Y688742D01*
X570566Y663588D02*
X576800Y669822D01*
Y728525D01*
X570566Y699529D02*
X573600Y702563D01*
X573100Y688742D02*
Y688894D01*
X575200Y687663D02*
Y727863D01*
X571309Y704762D02*
X571500Y704954D01*
X569299Y701441D02*
X571309Y703451D01*
Y704762D01*
X578400Y646430D02*
Y729188D01*
X573600Y702563D02*
Y727200D01*
X563153Y719767D02*
X563891Y719029D01*
X570566D02*
X571210Y719673D01*
X568798Y726059D02*
X569110Y725747D01*
X563153Y719767D02*
Y720629D01*
X563891Y719029D02*
X570566D01*
X569110Y724000D02*
Y725747D01*
X571210Y719673D02*
Y727327D01*
X464228Y569500D02*
X466000D01*
X563153Y523267D02*
X569952Y516468D01*
X451854Y508435D02*
X457826Y502463D01*
X517700Y650409D02*
X521100Y647009D01*
X555362Y542376D02*
X555427Y542441D01*
X502335Y530150D02*
X503376Y531191D01*
X501626Y482464D02*
X517000D01*
X492450Y521520D02*
X500500Y513470D01*
Y511730D02*
Y513470D01*
X482717Y526337D02*
X485934Y523120D01*
X497594Y507098D02*
X499396Y508900D01*
X508500Y516000D02*
X513464D01*
X515029Y517565D02*
X515300D01*
X493113Y523120D02*
X502100Y514133D01*
Y511067D02*
Y514133D01*
X539435Y540676D02*
X550000D01*
X537459Y538700D02*
X539435Y540676D01*
X495729Y476305D02*
X500585D01*
X524200Y550329D02*
Y566827D01*
X525800Y566164D02*
X538951Y579315D01*
X524159Y550288D02*
X524200Y550329D01*
X535744Y452600D02*
X537800D01*
X500585Y451941D02*
X501626Y450900D01*
X527400Y565501D02*
X539246Y577347D01*
X537459Y536611D02*
Y538700D01*
X535359Y533041D02*
X538800Y529600D01*
X535359Y533041D02*
Y544293D01*
X535500Y544434D01*
X538800Y529600D02*
X539500D01*
X535500Y544434D02*
Y562143D01*
X540771Y567414D01*
X498814Y519900D02*
X505300D01*
X501626Y506827D02*
X517000D01*
X497584Y521130D02*
Y524720D01*
X495729Y525032D02*
X497272D01*
X497584Y524720D01*
X499684Y522000D02*
X499711Y522027D01*
Y526299D01*
X497584Y521130D02*
X498814Y519900D01*
X500585Y505786D02*
X501626Y506827D01*
X499933Y508900D02*
X502100Y511067D01*
X497594Y506098D02*
Y507098D01*
X488736Y510500D02*
X499270D01*
X505300Y519900D02*
X509300Y523900D01*
X485271Y521520D02*
X492450D01*
X481391Y523137D02*
X491528Y513000D01*
X550000Y540676D02*
X551700Y542376D01*
X555427Y542441D02*
X560771D01*
X479394Y519468D02*
Y520459D01*
X467772Y534500D02*
X468453Y533819D01*
X551700Y542376D02*
X555362D01*
X500585Y481423D02*
X501626Y482464D01*
X479086Y520766D02*
X479394Y520459D01*
X491528Y513000D02*
X497729D01*
X479394Y519468D02*
X480862Y518000D01*
X466000Y534500D02*
X467772D01*
X479086Y520766D02*
Y521037D01*
X497282Y505786D02*
X497594Y506098D01*
X556500Y723500D02*
X560771D01*
X567229Y701441D02*
X569299D01*
X563891Y699529D02*
X570566D01*
X567229Y652559D02*
X569088D01*
X569400Y650500D02*
Y652247D01*
X569088Y652559D02*
X569400Y652247D01*
X456777Y645081D02*
Y704602D01*
X570566Y627470D02*
X580000Y636904D01*
X563891Y663588D02*
X570566D01*
X567229Y647441D02*
X569299D01*
X572309Y643691D02*
X572500Y643500D01*
X569299Y647441D02*
X572309Y644431D01*
Y643691D02*
Y644431D01*
X571109Y632191D02*
X571300Y632000D01*
X569299Y634500D02*
X571109Y632690D01*
Y632191D02*
Y632690D01*
X565812Y629382D02*
X567229D01*
X565500Y629694D02*
X565812Y629382D01*
X565500Y629694D02*
Y632088D01*
X495729Y527591D02*
X496041Y527279D01*
X498731D01*
X499711Y526299D01*
X483100Y548630D02*
X493347Y538383D01*
X483100Y548630D02*
Y550870D01*
X493659Y530150D02*
X502335D01*
X473292Y560677D02*
Y578609D01*
X522559Y525720D02*
Y550951D01*
X524200Y566827D02*
X538657Y581284D01*
X495729Y500668D02*
X500585D01*
X527400Y549004D02*
Y565501D01*
X538800Y475600D02*
X550000D01*
X520830Y523991D02*
X522559Y525720D01*
X537800Y452600D02*
X539500Y450900D01*
X522600Y550992D02*
Y567490D01*
X522559Y550951D02*
X522600Y550992D01*
Y567490D02*
X538362Y583252D01*
X521000Y551654D02*
Y568152D01*
X504067Y548354D02*
X517700D01*
X527359Y548963D02*
X527400Y549004D01*
X510000Y523991D02*
X520830D01*
X540477Y569382D02*
X543500D01*
X521000Y568152D02*
X538069Y585221D01*
X539500Y529600D02*
X540000Y530100D01*
X556600Y545000D02*
X560771D01*
X499341Y546161D02*
X501873D01*
X504067Y548354D01*
X498110Y547391D02*
X499341Y546161D01*
X500019Y548452D02*
Y550354D01*
Y548452D02*
X500211Y548261D01*
X498110Y547391D02*
Y549084D01*
X498731Y551643D02*
X500019Y550354D01*
X497799Y549396D02*
X498110Y549084D01*
X496041Y551643D02*
X498731D01*
X571415Y547500D02*
X573500D01*
X571500Y542500D02*
X573500D01*
X567258Y547530D02*
X571385D01*
X567258Y542471D02*
X571470D01*
X571385Y547530D02*
X571415Y547500D01*
X571470Y542471D02*
X571500Y542500D01*
X506600Y554514D02*
X506846Y554759D01*
Y555900D02*
X516654D01*
X517000Y555554D01*
X472782Y603880D02*
X482059D01*
X497799Y598123D02*
X500021Y595900D01*
X509318D02*
X510500Y597082D01*
X500021Y595900D02*
X509318D01*
X495729Y598123D02*
X497799D01*
X487201Y476305D02*
X489271D01*
X484728Y503312D02*
X487201Y505786D01*
X488134Y573447D02*
X488446Y573759D01*
X567229Y529559D02*
X567258Y529529D01*
X473600Y625000D02*
X477567Y628967D01*
X480924D02*
X480957Y629000D01*
X479150Y532000D02*
Y548150D01*
X489021Y529900D02*
X489271Y530150D01*
X485701Y526533D02*
X487201Y525032D01*
X485701Y526533D02*
Y526948D01*
X473292Y560677D02*
X483100Y550870D01*
X485200Y549500D02*
X485252Y549448D01*
X489219D01*
X493347Y530462D02*
Y538383D01*
X503376Y531191D02*
X517000D01*
X489219Y549448D02*
X489271Y549396D01*
X473020Y605980D02*
X478000Y610961D01*
X482870D02*
X484575Y609255D01*
X478000Y610961D02*
X482870D01*
X484575Y609220D02*
Y609255D01*
X493659Y603241D02*
X502585D01*
X483331Y605153D02*
X492609D01*
X482059Y603880D02*
X483331Y605153D01*
X477258Y613357D02*
Y620841D01*
X485934Y629516D01*
X467902Y584000D02*
X473292Y578609D01*
X475600Y590000D02*
X483000D01*
X483425Y451999D02*
X483454Y451970D01*
X488134Y572366D02*
Y573447D01*
X484500Y720771D02*
X485018Y720253D01*
X493659Y578877D02*
X502085D01*
X493347Y579189D02*
Y582623D01*
X481970Y594000D02*
X493347Y582623D01*
X466130Y594000D02*
X481970D01*
X506846Y554759D02*
Y555900D01*
X493659Y554514D02*
X506600D01*
X573600Y486630D02*
Y493370D01*
X571470Y484500D02*
X573600Y486630D01*
X576800Y449475D02*
Y509670D01*
X568500Y484500D02*
X571470D01*
X467412Y440000D02*
X567325D01*
X551541Y524441D02*
X562841D01*
X459890Y449785D02*
X468075Y441600D01*
X551700Y506100D02*
X555254D01*
X555592Y495220D02*
X571750D01*
X573600Y493370D01*
X571470Y492529D02*
X571500Y492500D01*
X567229Y492559D02*
X567258Y492529D01*
X571470D01*
X568188Y469882D02*
X568500Y470194D01*
Y472500D01*
X567229Y469882D02*
X568188D01*
X571209Y472029D02*
Y473090D01*
X573500Y450700D02*
Y473978D01*
X569299Y475000D02*
X571209Y473090D01*
Y472029D02*
X571400Y471837D01*
X563153Y484325D02*
X573500Y473978D01*
X469900Y615998D02*
Y662210D01*
X467902Y614000D02*
X469900Y615998D01*
X467902Y609000D02*
X471500Y612598D01*
X484300Y652246D02*
X485934Y653880D01*
X469900Y662210D02*
X485934Y678244D01*
Y629516D02*
X492609D01*
X439500Y579000D02*
X444870D01*
X469000Y688000D02*
X470500Y686500D01*
X472400D01*
X461577Y655281D02*
Y669277D01*
X493659Y725059D02*
X500585D01*
X474500Y715537D02*
X485934Y726971D01*
X461577Y669277D02*
X474500Y682200D01*
X485004Y598504D02*
X485194Y598313D01*
X489081D01*
X489271Y598123D01*
X495655Y600755D02*
X495729Y600682D01*
X491500Y600829D02*
X491573Y600755D01*
X495655D01*
X491523Y625023D02*
X495706D01*
X491500Y625000D02*
X491523Y625023D01*
X567258Y529529D02*
X571470D01*
X476883Y506500D02*
X478500Y508117D01*
X467772Y539500D02*
X470053Y537219D01*
X472000Y456871D02*
Y459000D01*
X470271Y456559D02*
X471688D01*
X472000Y448500D02*
Y451129D01*
X471688Y451441D02*
X472000Y451129D01*
X471688Y456559D02*
X472000Y456871D01*
X470271Y451441D02*
X471688D01*
X488912Y700695D02*
X489271D01*
X488600Y700383D02*
X488912Y700695D01*
X486191Y696587D02*
Y698092D01*
X486000Y698283D02*
X486191Y698092D01*
X488600Y698283D02*
Y700383D01*
X486191Y696587D02*
X487201Y695577D01*
X495729Y722500D02*
X495729Y722500D01*
X491500Y722500D02*
X491500Y722500D01*
X495729D01*
X488312Y725059D02*
X489271D01*
X488000Y722500D02*
Y724747D01*
X488312Y725059D01*
X488446Y573759D02*
X489271D01*
X484462Y671107D02*
X489164D01*
X417500Y526600D02*
X418000Y526100D01*
X468083Y658681D02*
Y673520D01*
X493659Y700695D02*
X500585D01*
X491307Y698210D02*
X495655D01*
X491233Y698283D02*
X491307Y698210D01*
X426800Y641700D02*
X431500D01*
X423500Y645000D02*
X426800Y641700D01*
X566000Y721253D02*
Y723330D01*
X500585Y725059D02*
X501626Y726100D01*
X488959Y720253D02*
X489271Y719941D01*
X492609Y726971D02*
X493347Y726233D01*
X485934Y726971D02*
X492609D01*
X474500Y682200D02*
Y715537D01*
X424900Y521100D02*
X425000Y521000D01*
X483454Y451970D02*
X489243D01*
X485018Y720253D02*
X488959D01*
X432000Y520862D02*
Y527000D01*
X444870Y589000D02*
X450100D01*
X450810Y467117D02*
X451500D01*
X440214Y559974D02*
Y561745D01*
X390000Y555500D02*
X410301D01*
X438140Y557900D02*
X440214Y559974D01*
X412701Y557900D02*
X438140D01*
X400878Y481256D02*
X401000D01*
X400000Y482134D02*
X400878Y481256D01*
X400000Y482134D02*
Y484500D01*
X365000Y474000D02*
X367500Y476500D01*
X567229Y684941D02*
X569299D01*
X459500Y514449D02*
Y520000D01*
X457500Y522000D02*
X459500Y520000D01*
X502585Y603241D02*
X503626Y604282D01*
X517000D01*
X539500Y458100D02*
X550700D01*
X465547Y508721D02*
X470346Y503921D01*
X464689Y451773D02*
X470063Y446400D01*
X550700Y458100D02*
X554062Y454738D01*
X560742Y508970D02*
X560771Y508941D01*
X556530Y508970D02*
X560742D01*
X556500Y509000D02*
X556530Y508970D01*
X555254Y506100D02*
X555536Y506382D01*
X385500Y481000D02*
Y485500D01*
X393500Y480862D02*
X394000Y481362D01*
Y485000D01*
X432000Y474449D02*
X433500Y475949D01*
Y481000D01*
X468747Y484865D02*
Y503258D01*
X566000Y443200D02*
X573500Y450700D01*
X465547Y508721D02*
Y519800D01*
X468737Y443200D02*
X566000D01*
X566663Y441600D02*
X575200Y450137D01*
X458289Y449122D02*
X467412Y440000D01*
X458747Y524336D02*
Y549019D01*
X468075Y441600D02*
X566663D01*
X567325Y440000D02*
X576800Y449475D01*
X463090Y451111D02*
X469400Y444800D01*
X475000Y518138D02*
Y522000D01*
X491000Y454500D02*
X495729D01*
X450810Y455500D02*
X451500D01*
X448055Y452745D02*
X450810Y455500D01*
X448055Y449055D02*
Y452745D01*
X448000Y449000D02*
X448055Y449055D01*
X364028Y456000D02*
X369661D01*
X362528Y457500D02*
X364028Y456000D01*
X362500Y457500D02*
X362528D01*
X381500Y463500D02*
X386272D01*
X382000Y453500D02*
X386272D01*
X416000Y470862D02*
Y474229D01*
X415500Y474729D02*
X416000Y474229D01*
X415500Y474729D02*
Y475000D01*
X407893Y481256D02*
X408000D01*
X407015Y482134D02*
X407893Y481256D01*
X407015Y482134D02*
Y484015D01*
X487201Y505786D02*
X489271D01*
X550000Y522900D02*
X551541Y524441D01*
X473462Y506500D02*
X476883D01*
X571470Y529529D02*
X571500Y529500D01*
X563153Y628208D02*
Y629070D01*
X563891Y627470D02*
X570566D01*
X566312Y720941D02*
X567229D01*
X566000Y721253D02*
X566312Y720941D01*
X467146Y509384D02*
Y520462D01*
X495729Y457059D02*
X500585D01*
X467146Y509384D02*
X471946Y504584D01*
X475000Y518138D02*
X475138Y518000D01*
X558701Y457059D02*
X560771D01*
X441500Y511500D02*
Y515500D01*
X409362Y514500D02*
X409500Y514638D01*
X405000Y514500D02*
X409362D01*
X404500Y508500D02*
X409772D01*
X418000Y521256D02*
Y526100D01*
X405000Y498500D02*
X409772D01*
X405000Y493500D02*
X409772D01*
X409500Y520362D02*
Y525500D01*
X439500Y544500D02*
X444740D01*
X439500Y539500D02*
X444740D01*
X439500Y534500D02*
X444740D01*
X439500Y569500D02*
X444740D01*
X440000Y614000D02*
X444870D01*
X443546Y576383D02*
X448793Y571137D01*
X440000Y633000D02*
X444370D01*
X429000Y705000D02*
X433000D01*
X432900Y698600D02*
X433000Y698701D01*
X429100Y698600D02*
X432900D01*
X429000Y698500D02*
X429100Y698600D01*
X432315Y691000D02*
X432500Y690815D01*
X427500Y691000D02*
X432315D01*
X443752Y697500D02*
X444197Y697055D01*
X439000Y697500D02*
X443752D01*
X443697Y688500D02*
X444197Y688000D01*
X439000Y688500D02*
X443697D01*
X411500Y698000D02*
Y702000D01*
X419500Y698000D02*
Y702000D01*
X487201Y695577D02*
X489271D01*
X495655Y698210D02*
X495729Y698136D01*
X477008Y682446D02*
Y693682D01*
X489164Y671107D02*
X489271Y671214D01*
X488312Y676332D02*
X489271D01*
X488000Y676020D02*
X488312Y676332D01*
X488000Y673626D02*
Y676020D01*
X495655Y673699D02*
X495729Y673773D01*
X491573Y673699D02*
X495655D01*
X491500Y673626D02*
X491573Y673699D01*
X485934Y678244D02*
X492609D01*
X493347Y677505D01*
X493659Y676332D02*
X500585D01*
X487201Y651968D02*
X489271D01*
X486890Y651656D02*
X487201Y651968D01*
X486890Y650260D02*
Y651656D01*
X486400Y649771D02*
X486890Y650260D01*
X486400Y649500D02*
Y649771D01*
X489000Y647121D02*
X489271Y646850D01*
X489000Y647121D02*
Y649500D01*
X495683Y649454D02*
X495729Y649409D01*
X491645Y649454D02*
X495683D01*
X491600Y649500D02*
X491645Y649454D01*
X484300Y649400D02*
Y652246D01*
X487663Y643209D02*
X517000D01*
X484300Y646572D02*
Y652246D01*
X471500Y612598D02*
Y636600D01*
X495706Y625023D02*
X495729Y625045D01*
X488650Y627604D02*
X489271D01*
X488338Y627292D02*
X488650Y627604D01*
X488338Y625334D02*
Y627292D01*
X488312Y622486D02*
X489271D01*
X488000Y622174D02*
X488312Y622486D01*
X488000Y620000D02*
Y622174D01*
X488871Y603241D02*
X489271D01*
X488559Y602929D02*
X488871Y603241D01*
X488559Y600988D02*
Y602929D01*
X488149Y578877D02*
X489271D01*
X487838Y578565D02*
X488149Y578877D01*
X487838Y576334D02*
Y578565D01*
X495655Y576245D02*
X495729Y576318D01*
X491229Y576245D02*
X495655D01*
X491156Y576171D02*
X491229Y576245D01*
X489271Y554514D02*
X489500Y554742D01*
Y557000D01*
X495729Y551955D02*
X496041Y551643D01*
X509300Y523900D02*
X510000D01*
X487201Y525032D02*
X489271D01*
X560459Y472129D02*
X560771Y472441D01*
X557769Y472129D02*
X560459D01*
X550309Y468091D02*
X556928D01*
X550000Y468400D02*
X550309Y468091D01*
X558701Y469882D02*
X560771D01*
X558390Y469570D02*
X558701Y469882D01*
X558390Y469552D02*
Y469570D01*
X556928Y468091D02*
X558390Y469552D01*
X567229Y475000D02*
X569299D01*
X567229Y487441D02*
X567258Y487470D01*
X571470D01*
X571500Y487500D01*
X567229Y506382D02*
X567288Y506441D01*
X571441D01*
X571500Y506500D01*
X567229Y511500D02*
X572000D01*
X461723Y502463D02*
X463946Y500239D01*
X563153Y523267D02*
Y524129D01*
X567229Y524441D02*
X567258Y524471D01*
X571385D01*
X571415Y524500D01*
X457700Y560235D02*
Y562972D01*
X567229Y542441D02*
X567258Y542471D01*
X567229Y547559D02*
X567258Y547530D01*
X560742Y631971D02*
X560771Y631941D01*
X556030Y631971D02*
X560742D01*
X556000Y632000D02*
X556030Y631971D01*
X567229Y634500D02*
X569299D01*
X556000Y650000D02*
X560771D01*
X562841Y647441D02*
X563153Y647129D01*
X560742Y668029D02*
X560771Y668059D01*
X556530Y668029D02*
X560742D01*
X556500Y668000D02*
X556530Y668029D01*
X565812Y690059D02*
X567229D01*
X565500Y689747D02*
X565812Y690059D01*
X565500Y687500D02*
Y689747D01*
X556000Y687500D02*
X560771D01*
X567229Y726059D02*
X568798D01*
X471500Y636600D02*
X484300Y649400D01*
X462386Y504063D02*
X465547Y500902D01*
X451854Y508435D02*
Y554388D01*
X457700Y562972D02*
X464228Y569500D01*
X570001Y516468D02*
X576800Y509670D01*
X449696Y554494D02*
X452200Y556997D01*
X469400Y444800D02*
X565337D01*
X458489Y504063D02*
X462386D01*
X464689Y478545D02*
X470346Y484202D01*
X458289Y481196D02*
X463946Y486853D01*
Y500239D01*
X457826Y502463D02*
X461723D01*
X569952Y516468D02*
X570001D01*
X455054Y509761D02*
X459152Y505663D01*
X453453Y509098D02*
X458489Y504063D01*
X455054Y509761D02*
Y550325D01*
X461489Y479871D02*
X467146Y485528D01*
X463090Y479208D02*
X468747Y484865D01*
X459890Y480533D02*
X465547Y486190D01*
X467146Y485528D02*
Y501565D01*
X463048Y505663D02*
X467146Y501565D01*
X458289Y449122D02*
Y481196D01*
X453453Y509098D02*
Y553725D01*
X463946Y508058D02*
Y519137D01*
X459152Y505663D02*
X463048D01*
X465547Y486190D02*
Y500902D01*
X562841Y524441D02*
X563153Y524129D01*
X453453Y553725D02*
X464228Y564500D01*
X459890Y449785D02*
Y480533D01*
X464228Y564500D02*
X466000D01*
X463946Y508058D02*
X468747Y503258D01*
X461489Y450448D02*
Y479871D01*
X464228Y559500D02*
X466000D01*
X455054Y550325D02*
X464228Y559500D01*
X464689Y451773D02*
Y478545D01*
X463090Y451111D02*
Y479208D01*
X458747Y524336D02*
X463946Y519137D01*
X460347Y524999D02*
X465547Y519800D01*
X460347Y524999D02*
Y545619D01*
X471946Y494298D02*
Y504584D01*
X500585Y457059D02*
X501626Y458100D01*
X563153Y484325D02*
Y487129D01*
X562841Y487441D02*
X563153Y487129D01*
X561647Y469882D02*
X562841D01*
X563153Y469570D01*
X458747Y549019D02*
X464228Y554500D01*
X466000D01*
X466290Y455292D02*
Y457827D01*
Y455292D02*
X467581Y454000D01*
X477600Y466300D02*
Y467000D01*
X470346Y484202D02*
Y503921D01*
X461947Y542219D02*
X464228Y544500D01*
X460347Y545619D02*
X464228Y549500D01*
X501626Y458100D02*
X517000D01*
X464228Y549500D02*
X466000D01*
X562841Y629382D02*
X563153Y629070D01*
X573370Y641400D02*
X578400Y646430D01*
X463858Y623000D02*
X465630D01*
X453723Y633135D02*
X463858Y623000D01*
Y628000D02*
X465630D01*
X450023Y641881D02*
Y658037D01*
X446142Y638000D02*
X450023Y641881D01*
X458377Y648481D02*
X463858Y643000D01*
X456777Y645081D02*
X463858Y638000D01*
X455177Y641681D02*
X463858Y633000D01*
X563153Y646267D02*
Y647129D01*
X459977Y651881D02*
X463858Y648000D01*
X461577Y655281D02*
X463858Y653000D01*
X562841Y665500D02*
X563153Y665188D01*
Y664326D02*
Y665188D01*
Y664326D02*
X563891Y663588D01*
X463858Y633000D02*
X465630D01*
X570566Y683029D02*
X575200Y687663D01*
X563153Y683767D02*
Y684629D01*
X562841Y684941D02*
X563153Y684629D01*
Y683767D02*
X563891Y683029D01*
X463858Y638000D02*
X465630D01*
X563153Y700267D02*
X563891Y699529D01*
X563153Y700267D02*
Y701129D01*
X562841Y701441D02*
X563153Y701129D01*
X463858Y643000D02*
X465630D01*
X463858Y648000D02*
X465630D01*
X562841Y720941D02*
X563153Y720629D01*
X439147Y576383D02*
X443546D01*
X440817Y596719D02*
X443098Y599000D01*
X439397Y630633D02*
X447426D01*
X450393Y558381D02*
Y584167D01*
X419781Y655281D02*
X447779D01*
X444740Y549500D02*
X446512D01*
Y554500D02*
X450393Y558381D01*
X447779Y635281D02*
X450523Y632537D01*
X442598Y643000D02*
X446142D01*
X440817Y587363D02*
X441899Y586281D01*
X443098Y599000D02*
X446642D01*
X444740Y554500D02*
X446512D01*
X447426Y630633D02*
X448923Y629137D01*
X439909Y605810D02*
X443098Y609000D01*
X434300Y598400D02*
X435700D01*
X444870Y594000D02*
Y596133D01*
X445456Y596719D01*
X448279D01*
X452123Y600563D01*
Y633200D01*
X445051Y637319D02*
X448003D01*
X444370Y638000D02*
X445051Y637319D01*
X448003D02*
X452123Y633200D01*
X448923Y611038D02*
Y629137D01*
X446642Y604000D02*
X448923Y606281D01*
X450523Y602881D02*
Y632537D01*
X446642Y599000D02*
X450523Y602881D01*
X448923Y606281D02*
Y610637D01*
X385809Y579691D02*
Y617236D01*
X441399Y635281D02*
X447779D01*
X448722Y610837D02*
X448923Y611038D01*
X441899Y586281D02*
X448279D01*
X447841Y611719D02*
X448923Y610637D01*
X442598Y648000D02*
X444370D01*
X464228Y544500D02*
X466000D01*
X538951Y579315D02*
X543500D01*
X538657Y581284D02*
X543500D01*
X538069Y585221D02*
X543500D01*
X539246Y577347D02*
X543500D01*
X538362Y583252D02*
X543500D01*
X461947Y525661D02*
Y542219D01*
X535500Y452844D02*
X535744Y452600D01*
X539539Y575378D02*
X543500D01*
X524084Y574418D02*
X536855Y587189D01*
X517000Y572718D02*
X518700Y574418D01*
X503126Y572718D02*
X517000D01*
X500585Y476305D02*
X501626Y475264D01*
X543409Y565445D02*
X543500Y565536D01*
X538800Y511600D02*
X550000D01*
X539500Y547600D02*
Y563406D01*
X517700Y548354D02*
X521000Y551654D01*
X518700Y574418D02*
X524084D01*
X495729Y622486D02*
X511459D01*
X517700Y621445D02*
X519400Y619745D01*
X511459Y622386D02*
Y622486D01*
X495729Y719941D02*
X500585D01*
X538800Y673000D02*
X539500D01*
X550800Y707300D02*
X555024D01*
X535500Y633300D02*
X538800Y636600D01*
X555636Y670618D02*
X560771D01*
X495729Y646850D02*
X502241D01*
X505800Y650409D01*
X517700Y670173D02*
X522700Y665173D01*
X500585Y671214D02*
X501626Y670173D01*
X550400Y634900D02*
X555195D01*
X540800Y635300D02*
X550000D01*
X543409Y610902D02*
X543500Y610811D01*
X550000Y635300D02*
X550400Y634900D01*
X517700Y694536D02*
X524300Y687936D01*
X517700Y718900D02*
X525900Y710700D01*
X466130Y575060D02*
X471653Y569537D01*
X461947Y525661D02*
X467146Y520462D01*
X537100Y477300D02*
X538800Y475600D01*
X537100Y477300D02*
Y482244D01*
X540256Y573687D02*
X541500D01*
X540182Y571350D02*
X543409D01*
X543500Y571441D01*
X538800Y493700D02*
X539500D01*
X543409Y567414D02*
X543500Y567504D01*
X540771Y567414D02*
X543409D01*
X539500Y563406D02*
X541539Y565445D01*
X540800Y653500D02*
X550000D01*
X541539Y610902D02*
X543409D01*
X555595Y634500D02*
X560771D01*
X550000Y653500D02*
X550500Y653000D01*
X555615Y652559D02*
X560771D01*
X555154Y671100D02*
X555636Y670618D01*
X540800Y671700D02*
X550000D01*
X550600Y671100D01*
X538800Y691200D02*
X539500D01*
X550000Y708100D02*
X550800Y707300D01*
X540800Y708100D02*
X550000D01*
X538800Y727100D02*
X539500D01*
X466000Y539500D02*
X467772D01*
X466130Y575060D02*
Y579000D01*
X493347Y530462D02*
X493659Y530150D01*
X466130Y584000D02*
X467902D01*
X493347Y554825D02*
X493659Y554514D01*
X493347Y579189D02*
X493659Y578877D01*
X466130Y599000D02*
X467902D01*
X492609Y605153D02*
X493347Y604415D01*
Y603553D02*
Y604415D01*
Y603553D02*
X493659Y603241D01*
X492609Y629516D02*
X493347Y628778D01*
Y627916D02*
X493659Y627604D01*
X503376Y628645D02*
X517000D01*
X493347Y627916D02*
Y628778D01*
X466130Y604000D02*
X467902D01*
X493347Y652280D02*
Y653142D01*
X466130Y609000D02*
X467902D01*
X485934Y653880D02*
X492609D01*
X493347Y652280D02*
X493659Y651968D01*
X492609Y653880D02*
X493347Y653142D01*
X493659Y651968D02*
X495729D01*
X493347Y676644D02*
X493659Y676332D01*
X493347Y676644D02*
Y677505D01*
X466130Y614000D02*
X467902D01*
X463858Y653000D02*
X465630D01*
X493347Y725371D02*
X493659Y725059D01*
X493347Y725371D02*
Y726233D01*
X465630Y658000D02*
X467402D01*
X468083Y658681D01*
X485934Y702607D02*
X492609D01*
X493347Y701869D01*
Y701007D02*
Y701869D01*
X500585Y700695D02*
X501626Y701736D01*
X493347Y701007D02*
X493659Y700695D01*
X476729Y456559D02*
X477041Y456247D01*
X479731D01*
X480711Y455268D01*
Y452732D02*
Y455268D01*
X476729Y451441D02*
X477041Y451753D01*
X479731D01*
X480711Y452732D01*
X472513Y461213D02*
X477600Y466300D01*
X467581Y454000D02*
X476729D01*
X469676Y461213D02*
X472513D01*
X466290Y457827D02*
X469676Y461213D01*
X477500Y467100D02*
Y477500D01*
Y467100D02*
X477600Y467000D01*
X424872Y514616D02*
X425000Y514488D01*
X418128Y514616D02*
X424872D01*
X418000Y514744D02*
X418128Y514616D01*
X431350Y514488D02*
X432000Y515138D01*
X425000Y514488D02*
X431350D01*
X431228Y508500D02*
Y514366D01*
X435177Y505776D02*
X441500D01*
X432902Y503500D02*
X435177Y505776D01*
X431228Y503500D02*
X432902D01*
X441138Y498500D02*
X441500Y498862D01*
X431228Y498500D02*
X441138D01*
X441138Y493500D02*
X441500Y493138D01*
X431228Y493500D02*
X441138D01*
X457087Y493138D02*
X459500Y495551D01*
X441500Y493138D02*
X457087D01*
X431500Y634500D02*
X432200D01*
X390000Y615500D02*
X393781Y611719D01*
X447841D01*
X431500Y630800D02*
Y634500D01*
X422010Y621310D02*
X431500Y630800D01*
X389883Y621310D02*
X422010D01*
X447779Y655281D02*
X448423Y654637D01*
X448279Y586281D02*
X450393Y584167D01*
X448423Y645281D02*
Y654637D01*
X446512Y549500D02*
X449696Y552685D01*
X390000Y625500D02*
X419781Y655281D01*
X446142Y643000D02*
X448423Y645281D01*
X440817Y587363D02*
Y596719D01*
X449696Y552685D02*
Y554494D01*
X444370Y638000D02*
X446142D01*
X385809Y579691D02*
X390000Y575500D01*
X385809Y617236D02*
X389883Y621310D01*
X439909Y602609D02*
Y605810D01*
X401400Y565500D02*
X434300Y598400D01*
X390000Y565500D02*
X401400D01*
X440214Y561745D02*
X442969Y564500D01*
X410301Y555500D02*
X412701Y557900D01*
X442969Y564500D02*
X444740D01*
X443098Y609000D02*
X444870D01*
X435700Y598400D02*
X439909Y602609D01*
X442598Y653000D02*
X444370D01*
X337854Y466500D02*
Y466992D01*
X351579Y463972D02*
Y468142D01*
X349342Y470378D02*
X351579Y468142D01*
X341240Y470378D02*
X349323D01*
X337854Y466992D02*
X341240Y470378D01*
X349323D02*
Y477622D01*
X352339Y456000D02*
Y463213D01*
X351579Y463972D02*
X352339Y463213D01*
X349323Y470378D02*
X349342D01*
X393894Y474744D02*
X401000D01*
X393500Y475138D02*
X393894Y474744D01*
X401000Y474744D02*
X408000D01*
X401000Y474744D02*
X401000Y474744D01*
X407728Y468500D02*
Y474473D01*
X408000Y474744D01*
X407728Y463500D02*
X414362D01*
X416000Y465138D01*
X407728Y458500D02*
X415638D01*
X416000Y458862D01*
Y453138D02*
X429587D01*
X432000Y455551D01*
X407728Y453500D02*
X415638D01*
X416000Y453138D01*
X500585Y719941D02*
X501626Y718900D01*
X495729Y695577D02*
X500585D01*
X501626Y694536D01*
X495729Y671214D02*
X500585D01*
X484300Y646572D02*
X487663Y643209D01*
X511459Y622386D02*
X512400Y621445D01*
X495729Y573759D02*
X502085D01*
X503126Y572718D01*
X536855Y587189D02*
X543500D01*
X495729Y549396D02*
X497799D01*
X500585Y500668D02*
X501626Y499627D01*
X525800Y549666D02*
Y566164D01*
X495729Y451941D02*
X500585D01*
X471946Y494298D02*
X480800Y485444D01*
X499270Y510500D02*
X500500Y511730D01*
X482054Y524737D02*
X485271Y521520D01*
X485934Y523120D02*
X493113D01*
X499396Y508900D02*
X499933D01*
X502085Y578877D02*
X503126Y579918D01*
X517000D01*
X467902Y599000D02*
X472782Y603880D01*
X467902Y604000D02*
X477258Y613357D01*
X502335Y627604D02*
X503376Y628645D01*
X493659Y627604D02*
X502335D01*
X500585Y676332D02*
X501626Y677373D01*
X517000D01*
X468083Y673520D02*
X477008Y682446D01*
X501626Y701736D02*
X517000D01*
X477008Y693682D02*
X485934Y702607D01*
X501626Y726100D02*
X517000D01*
X539776Y547876D02*
X550000D01*
X539500Y547600D02*
X539776Y547876D01*
X550317Y547559D02*
X560771D01*
X550000Y547876D02*
X550317Y547559D01*
X555665Y529559D02*
X560771D01*
X555124Y530100D02*
X555665Y529559D01*
X540000Y530100D02*
X555124D01*
X550100Y511500D02*
X560771D01*
X550000Y511600D02*
X550100Y511500D01*
X539600Y493600D02*
X550000D01*
X539500Y493700D02*
X539600Y493600D01*
X551041Y492559D02*
X560771D01*
X550000Y493600D02*
X551041Y492559D01*
X550600Y475000D02*
X560771D01*
X550000Y475600D02*
X550600Y475000D01*
X539500Y450900D02*
X550000D01*
X539500Y468400D02*
X550000D01*
X539600Y486400D02*
X550000D01*
X539500Y486500D02*
X539600Y486400D01*
X461489Y450448D02*
X468737Y443200D01*
X539500Y504400D02*
X550000D01*
X551700Y506100D01*
X540000Y522900D02*
X550000D01*
X539500Y522400D02*
X540000Y522900D01*
X451854Y554388D02*
X457700Y560235D01*
X513464Y516000D02*
X515029Y517565D01*
X539500Y629400D02*
X539518Y629382D01*
X538800Y636600D02*
X539500D01*
X555195Y634900D02*
X555595Y634500D01*
X539500Y636600D02*
X540800Y635300D01*
X539500Y647600D02*
X539659Y647441D01*
X550500Y653000D02*
X555174D01*
X538800Y654800D02*
X539500D01*
X540800Y653500D01*
X539500Y665800D02*
X539800Y665500D01*
X539500Y673000D02*
X540800Y671700D01*
X550600Y671100D02*
X555154D01*
X539500Y684000D02*
X540441Y684941D01*
X539500Y702200D02*
X540259Y701441D01*
X539500Y691200D02*
X540641Y690059D01*
X538800Y709400D02*
X539500D01*
X540800Y708100D01*
X539500Y719900D02*
X540541Y720941D01*
X539500Y727100D02*
X540541Y726059D01*
D16*
X539500Y654800D02*
D03*
Y647600D02*
D03*
Y691200D02*
D03*
Y684000D02*
D03*
X517000Y694536D02*
D03*
Y701736D02*
D03*
X518000Y597000D02*
D03*
Y604200D02*
D03*
X517000Y499627D02*
D03*
Y506827D02*
D03*
X539500Y475600D02*
D03*
Y468400D02*
D03*
Y547600D02*
D03*
Y540400D02*
D03*
Y727100D02*
D03*
Y719900D02*
D03*
X517000Y650409D02*
D03*
Y643209D02*
D03*
Y548354D02*
D03*
Y555554D02*
D03*
Y450900D02*
D03*
Y458100D02*
D03*
X539500Y511600D02*
D03*
Y504400D02*
D03*
X431500Y634500D02*
D03*
Y641700D02*
D03*
X435000Y598400D02*
D03*
Y605600D02*
D03*
X539500Y709400D02*
D03*
Y702200D02*
D03*
X517000Y670173D02*
D03*
Y677373D02*
D03*
X539500Y636600D02*
D03*
Y629400D02*
D03*
X517000Y572718D02*
D03*
Y579918D02*
D03*
Y475264D02*
D03*
Y482464D02*
D03*
X539500Y493700D02*
D03*
Y486500D02*
D03*
X434000Y557900D02*
D03*
Y565100D02*
D03*
X517000Y718900D02*
D03*
Y726100D02*
D03*
Y621445D02*
D03*
Y628645D02*
D03*
X539500Y673000D02*
D03*
Y665800D02*
D03*
X517000Y523991D02*
D03*
Y531191D02*
D03*
X539500Y450900D02*
D03*
Y458100D02*
D03*
Y529600D02*
D03*
Y522400D02*
D03*
X550000Y690900D02*
D03*
Y683700D02*
D03*
X506500Y694536D02*
D03*
Y701736D02*
D03*
X510500Y596900D02*
D03*
Y604100D02*
D03*
X506500Y499627D02*
D03*
Y506827D02*
D03*
X550000Y475600D02*
D03*
Y468400D02*
D03*
Y547876D02*
D03*
Y540676D02*
D03*
Y654700D02*
D03*
Y647500D02*
D03*
Y727100D02*
D03*
Y719900D02*
D03*
X506500Y650409D02*
D03*
Y643209D02*
D03*
X509000Y548400D02*
D03*
Y555600D02*
D03*
X506500Y450900D02*
D03*
Y458100D02*
D03*
X550000Y511600D02*
D03*
Y504400D02*
D03*
Y709000D02*
D03*
Y701800D02*
D03*
X506500Y670173D02*
D03*
Y677373D02*
D03*
X550000Y636600D02*
D03*
Y629400D02*
D03*
X509500Y572400D02*
D03*
Y579600D02*
D03*
X506500Y475264D02*
D03*
Y482464D02*
D03*
X550000Y493600D02*
D03*
Y486400D02*
D03*
X506500Y718900D02*
D03*
Y726100D02*
D03*
X510000Y621400D02*
D03*
Y628600D02*
D03*
X550000Y672800D02*
D03*
Y665600D02*
D03*
X510000Y523900D02*
D03*
Y531100D02*
D03*
X550000Y450900D02*
D03*
Y458100D02*
D03*
Y530100D02*
D03*
Y522900D02*
D03*
D17*
X567229Y457059D02*
D03*
Y451941D02*
D03*
X560771D02*
D03*
Y454500D02*
D03*
Y457059D02*
D03*
X489271Y451941D02*
D03*
Y457059D02*
D03*
X495729D02*
D03*
Y454500D02*
D03*
Y451941D02*
D03*
X567229Y547559D02*
D03*
Y542441D02*
D03*
X560771D02*
D03*
Y545000D02*
D03*
Y547559D02*
D03*
X567229Y690059D02*
D03*
Y684941D02*
D03*
X560771D02*
D03*
Y687500D02*
D03*
Y690059D02*
D03*
X489271Y695577D02*
D03*
Y700695D02*
D03*
X495729D02*
D03*
Y698136D02*
D03*
Y695577D02*
D03*
X489271Y598123D02*
D03*
Y603241D02*
D03*
X495729D02*
D03*
Y600682D02*
D03*
Y598123D02*
D03*
X489271Y500668D02*
D03*
Y505786D02*
D03*
X495729D02*
D03*
Y503227D02*
D03*
Y500668D02*
D03*
X567229Y475000D02*
D03*
Y469882D02*
D03*
X560771D02*
D03*
Y472441D02*
D03*
Y475000D02*
D03*
X567229Y652559D02*
D03*
Y647441D02*
D03*
X560771D02*
D03*
Y650000D02*
D03*
Y652559D02*
D03*
X567229Y726059D02*
D03*
Y720941D02*
D03*
X560771D02*
D03*
Y723500D02*
D03*
Y726059D02*
D03*
X489271Y646850D02*
D03*
Y651968D02*
D03*
X495729D02*
D03*
Y649409D02*
D03*
Y646850D02*
D03*
X489271Y549396D02*
D03*
Y554514D02*
D03*
X495729D02*
D03*
Y551955D02*
D03*
Y549396D02*
D03*
X567229Y511500D02*
D03*
Y506382D02*
D03*
X560771D02*
D03*
Y508941D02*
D03*
Y511500D02*
D03*
X567229Y706559D02*
D03*
Y701441D02*
D03*
X560771D02*
D03*
Y704000D02*
D03*
Y706559D02*
D03*
X489271Y671214D02*
D03*
Y676332D02*
D03*
X495729D02*
D03*
Y673773D02*
D03*
Y671214D02*
D03*
X567229Y634500D02*
D03*
Y629382D02*
D03*
X560771D02*
D03*
Y631941D02*
D03*
Y634500D02*
D03*
X489271Y573759D02*
D03*
Y578877D02*
D03*
X495729D02*
D03*
Y576318D02*
D03*
Y573759D02*
D03*
X489271Y476305D02*
D03*
Y481423D02*
D03*
X495729D02*
D03*
Y478864D02*
D03*
Y476305D02*
D03*
X567229Y492559D02*
D03*
Y487441D02*
D03*
X560771D02*
D03*
Y490000D02*
D03*
Y492559D02*
D03*
X489271Y719941D02*
D03*
Y725059D02*
D03*
X495729D02*
D03*
Y722500D02*
D03*
Y719941D02*
D03*
X489271Y622486D02*
D03*
Y627604D02*
D03*
X495729D02*
D03*
Y625045D02*
D03*
Y622486D02*
D03*
X567229Y670618D02*
D03*
Y665500D02*
D03*
X560771D02*
D03*
Y668059D02*
D03*
Y670618D02*
D03*
X489271Y525032D02*
D03*
Y530150D02*
D03*
X495729D02*
D03*
Y527591D02*
D03*
Y525032D02*
D03*
X567229Y529559D02*
D03*
Y524441D02*
D03*
X560771D02*
D03*
Y527000D02*
D03*
Y529559D02*
D03*
X470271Y451441D02*
D03*
Y456559D02*
D03*
X476729D02*
D03*
Y454000D02*
D03*
Y451441D02*
D03*
D18*
X543500Y565536D02*
D03*
Y567504D02*
D03*
Y569473D02*
D03*
Y571441D02*
D03*
Y573410D02*
D03*
Y575378D02*
D03*
Y577347D02*
D03*
Y579315D02*
D03*
Y581284D02*
D03*
Y583252D02*
D03*
Y585221D02*
D03*
Y587189D02*
D03*
Y589158D02*
D03*
Y591126D02*
D03*
Y593095D02*
D03*
Y595063D02*
D03*
Y597032D02*
D03*
Y599000D02*
D03*
Y600969D02*
D03*
Y602937D02*
D03*
Y604906D02*
D03*
Y606874D02*
D03*
Y608843D02*
D03*
Y610811D02*
D03*
D19*
X552653Y617465D02*
D03*
Y558882D02*
D03*
D20*
X477600Y467000D02*
D03*
X470400D02*
D03*
X470300Y477500D02*
D03*
X477500D02*
D03*
D21*
X444370Y623000D02*
D03*
Y628000D02*
D03*
Y633000D02*
D03*
Y638000D02*
D03*
Y643000D02*
D03*
Y648000D02*
D03*
Y653000D02*
D03*
Y658000D02*
D03*
X465630D02*
D03*
Y653000D02*
D03*
Y648000D02*
D03*
Y643000D02*
D03*
Y638000D02*
D03*
Y633000D02*
D03*
Y628000D02*
D03*
Y623000D02*
D03*
X444870Y579000D02*
D03*
Y584000D02*
D03*
Y589000D02*
D03*
Y594000D02*
D03*
Y599000D02*
D03*
Y604000D02*
D03*
Y609000D02*
D03*
Y614000D02*
D03*
X466130D02*
D03*
Y609000D02*
D03*
Y604000D02*
D03*
Y599000D02*
D03*
Y594000D02*
D03*
Y589000D02*
D03*
Y584000D02*
D03*
Y579000D02*
D03*
X444740Y534500D02*
D03*
Y539500D02*
D03*
Y544500D02*
D03*
Y549500D02*
D03*
Y554500D02*
D03*
Y559500D02*
D03*
Y564500D02*
D03*
Y569500D02*
D03*
X466000D02*
D03*
Y564500D02*
D03*
Y559500D02*
D03*
Y554500D02*
D03*
Y549500D02*
D03*
Y544500D02*
D03*
Y539500D02*
D03*
Y534500D02*
D03*
D22*
X397000Y461000D02*
D03*
X420500Y501000D02*
D03*
D23*
X407728Y453500D02*
D03*
Y458500D02*
D03*
Y463500D02*
D03*
Y468500D02*
D03*
X386272Y453500D02*
D03*
Y458500D02*
D03*
Y463500D02*
D03*
Y468500D02*
D03*
X431228Y493500D02*
D03*
Y498500D02*
D03*
Y503500D02*
D03*
Y508500D02*
D03*
X409772Y493500D02*
D03*
Y498500D02*
D03*
Y503500D02*
D03*
Y508500D02*
D03*
D24*
X418000Y514744D02*
D03*
Y521256D02*
D03*
X408000Y474744D02*
D03*
Y481256D02*
D03*
X401000Y481256D02*
D03*
Y474744D02*
D03*
X425000Y521000D02*
D03*
Y514488D02*
D03*
D25*
X419500Y698000D02*
D03*
X411500D02*
D03*
X441500Y511500D02*
D03*
Y505776D02*
D03*
X432000Y520862D02*
D03*
Y515138D02*
D03*
X409500Y514638D02*
D03*
Y520362D02*
D03*
X441500Y498862D02*
D03*
Y493138D02*
D03*
X393500Y480862D02*
D03*
Y475138D02*
D03*
X416000Y458862D02*
D03*
Y453138D02*
D03*
Y465138D02*
D03*
Y470862D02*
D03*
X385500Y475276D02*
D03*
Y481000D02*
D03*
D26*
X459500Y514449D02*
D03*
Y495551D02*
D03*
X432000Y474449D02*
D03*
Y455551D02*
D03*
D27*
X444197Y697055D02*
D03*
Y688000D02*
D03*
Y678945D02*
D03*
D28*
X469000Y688000D02*
D03*
D29*
X337854Y466500D02*
D03*
X332146D02*
D03*
D30*
X349323Y470378D02*
D03*
Y477622D02*
D03*
D31*
X365000Y474000D02*
D03*
D32*
X352339Y456000D02*
D03*
X369661D02*
D03*
D33*
X432500Y690815D02*
D03*
Y680185D02*
D03*
D34*
X433000Y698701D02*
D03*
Y705000D02*
D03*
D35*
X480862Y518000D02*
D03*
X475138D02*
D03*
D36*
X478500Y496500D02*
D03*
Y508117D02*
D03*
X451500Y467117D02*
D03*
Y455500D02*
D03*
D52*
X390000Y725500D02*
D03*
Y715500D02*
D03*
Y705500D02*
D03*
Y695500D02*
D03*
Y685500D02*
D03*
Y675500D02*
D03*
Y665500D02*
D03*
Y655500D02*
D03*
Y645500D02*
D03*
Y495500D02*
D03*
X330000Y525500D02*
D03*
Y535500D02*
D03*
Y545500D02*
D03*
Y555500D02*
D03*
Y565500D02*
D03*
Y575500D02*
D03*
Y585500D02*
D03*
Y595500D02*
D03*
Y605500D02*
D03*
Y615500D02*
D03*
Y625500D02*
D03*
Y635500D02*
D03*
Y515500D02*
D03*
Y505500D02*
D03*
Y495500D02*
D03*
Y645500D02*
D03*
Y655500D02*
D03*
Y665500D02*
D03*
Y675500D02*
D03*
Y685500D02*
D03*
Y695500D02*
D03*
Y705500D02*
D03*
Y715500D02*
D03*
Y725500D02*
D03*
X390000Y635500D02*
D03*
Y625500D02*
D03*
Y615500D02*
D03*
Y605500D02*
D03*
Y595500D02*
D03*
Y585500D02*
D03*
Y575500D02*
D03*
Y565500D02*
D03*
Y555500D02*
D03*
Y545500D02*
D03*
Y535500D02*
D03*
Y525500D02*
D03*
Y515500D02*
D03*
D53*
Y505500D02*
D03*
D54*
X329000Y479937D02*
D03*
D55*
Y472063D02*
D03*
D58*
X443000Y674500D02*
X443287Y674787D01*
Y678325D02*
X443907Y678945D01*
X432500Y679398D02*
X437345Y674553D01*
X378500Y475500D02*
X378596Y475404D01*
X384782D01*
Y475500D01*
X368500D02*
X378500D01*
X437345Y674553D02*
X442947D01*
X443287Y674787D02*
Y678325D01*
X443907Y678945D02*
X444197D01*
X432500Y679398D02*
Y680185D01*
X442947Y674553D02*
X443000Y674500D01*
X381500Y468500D02*
X386272D01*
X381500Y458500D02*
X386272D01*
D59*
X367500Y476500D02*
X368500Y475500D01*
X327643Y731190D02*
X411136D01*
X418327Y724000D01*
X323664Y727211D02*
X327643Y731190D01*
X323664Y468250D02*
Y727211D01*
X325437Y466476D02*
X332122D01*
X323664Y468250D02*
X325437Y466476D01*
X411500Y698000D02*
X419500D01*
D60*
X446673Y724000D02*
D03*
D61*
X418327D02*
D03*
D62*
X536700Y640900D02*
D03*
X527500Y598000D02*
D03*
X535358Y658694D02*
D03*
X523785Y499386D02*
D03*
X532500Y482500D02*
D03*
X526529Y516206D02*
D03*
X517585Y544055D02*
D03*
X518400Y568100D02*
D03*
X536700Y621000D02*
D03*
X536188Y697941D02*
D03*
X535500Y678189D02*
D03*
X534000Y716000D02*
D03*
X568000Y659000D02*
D03*
X378500Y475500D02*
D03*
X569400Y677500D02*
D03*
Y695500D02*
D03*
X381500Y468500D02*
D03*
Y458500D02*
D03*
X528500Y586000D02*
D03*
X560500Y640000D02*
D03*
D63*
X556000Y704000D02*
D03*
X569500Y716500D02*
D03*
X448500Y476500D02*
D03*
X423000Y606500D02*
D03*
X569000Y460000D02*
D03*
X484000Y457000D02*
D03*
X484537Y502308D02*
D03*
X492809Y497309D02*
D03*
X485000Y495500D02*
D03*
X488233Y565733D02*
D03*
X485109Y574861D02*
D03*
X559600Y537000D02*
D03*
X559500Y485029D02*
D03*
X553550Y497262D02*
D03*
X556000Y490000D02*
D03*
X556059Y470191D02*
D03*
X422500Y527000D02*
D03*
X435850Y658000D02*
D03*
X570500Y673500D02*
D03*
X570000Y668000D02*
D03*
X568500Y704000D02*
D03*
X485509Y527139D02*
D03*
X476055Y534845D02*
D03*
X479150Y532000D02*
D03*
X487000Y484500D02*
D03*
X500500Y479000D02*
D03*
X484150Y492283D02*
D03*
X483000Y479500D02*
D03*
X554500Y459384D02*
D03*
X568812Y454647D02*
D03*
X525500Y455000D02*
D03*
X483425Y451999D02*
D03*
X436000Y584000D02*
D03*
X432500Y569500D02*
D03*
X436000Y628000D02*
D03*
X439350Y623000D02*
D03*
X563500Y517000D02*
D03*
X551966Y536868D02*
D03*
X556400Y527000D02*
D03*
X556500Y729850D02*
D03*
X491607Y503135D02*
D03*
X559159Y461500D02*
D03*
X571500Y704954D02*
D03*
X573100Y688894D02*
D03*
X569110Y724000D02*
D03*
X399559Y465724D02*
D03*
X394441Y456669D02*
D03*
X399559Y456669D02*
D03*
Y461000D02*
D03*
X394441Y465724D02*
D03*
Y461000D02*
D03*
X423059Y505724D02*
D03*
X417941Y496669D02*
D03*
X423059Y496669D02*
D03*
Y501000D02*
D03*
X417941Y505724D02*
D03*
Y501000D02*
D03*
X508500Y516000D02*
D03*
X515300Y517565D02*
D03*
X498400Y512600D02*
D03*
X504200Y511173D02*
D03*
X539500Y535000D02*
D03*
X537459Y536611D02*
D03*
X499684Y522000D02*
D03*
X479086Y521037D02*
D03*
X556500Y723500D02*
D03*
X569400Y650500D02*
D03*
X572500Y643500D02*
D03*
X565500Y632088D02*
D03*
X571300Y632000D02*
D03*
X556600Y545000D02*
D03*
X508382Y559882D02*
D03*
X500211Y548261D02*
D03*
X573500Y547500D02*
D03*
Y542500D02*
D03*
X505000Y598000D02*
D03*
X473000Y506500D02*
D03*
X485200Y549500D02*
D03*
X481000Y550000D02*
D03*
X484575Y609220D02*
D03*
X473020Y605980D02*
D03*
X475600Y590000D02*
D03*
X475392Y566030D02*
D03*
X488134Y572366D02*
D03*
X483000Y590000D02*
D03*
X571500Y492500D02*
D03*
X568500Y484500D02*
D03*
Y472500D02*
D03*
X571400Y471837D02*
D03*
X473600Y625000D02*
D03*
X480990Y628967D02*
D03*
X439500Y579000D02*
D03*
X472400Y686500D02*
D03*
X482600Y640000D02*
D03*
X482000Y608861D02*
D03*
X485004Y598504D02*
D03*
X491500Y600829D02*
D03*
Y625000D02*
D03*
X484000Y671000D02*
D03*
X473000Y484500D02*
D03*
X472000Y459000D02*
D03*
Y448500D02*
D03*
X488600Y698283D02*
D03*
X486000D02*
D03*
X491500Y722500D02*
D03*
X488000D02*
D03*
X484500Y720500D02*
D03*
X491233Y698283D02*
D03*
X423500Y645000D02*
D03*
X566000Y723330D02*
D03*
X418000Y527000D02*
D03*
X432000D02*
D03*
X450100Y589000D02*
D03*
X457500Y522000D02*
D03*
X556500Y509000D02*
D03*
X394000Y485000D02*
D03*
X433500Y481000D02*
D03*
X475000Y522000D02*
D03*
X491000Y454500D02*
D03*
X400000Y484500D02*
D03*
X382000Y453500D02*
D03*
X362500Y457500D02*
D03*
X381500Y463500D02*
D03*
X385500Y485500D02*
D03*
X404500Y503500D02*
D03*
X407500Y484500D02*
D03*
X404500Y493000D02*
D03*
X415500Y475000D02*
D03*
X448000Y449000D02*
D03*
X459000Y486500D02*
D03*
X409500Y525500D02*
D03*
X442000Y516000D02*
D03*
X439500Y569500D02*
D03*
X440000Y614000D02*
D03*
X411500Y702000D02*
D03*
X488000Y620000D02*
D03*
X489000Y649500D02*
D03*
X565500Y687500D02*
D03*
X571500Y529500D02*
D03*
X572000Y511500D02*
D03*
X559500Y497500D02*
D03*
X405000Y498500D02*
D03*
X404500Y508500D02*
D03*
X405000Y514500D02*
D03*
X439500Y534500D02*
D03*
Y539500D02*
D03*
Y544500D02*
D03*
X440000Y633000D02*
D03*
X427500Y691000D02*
D03*
X429000Y705000D02*
D03*
Y698500D02*
D03*
X439000Y688500D02*
D03*
Y697500D02*
D03*
X419500Y702000D02*
D03*
X488000Y673626D02*
D03*
X491500D02*
D03*
X486400Y649500D02*
D03*
X491600D02*
D03*
X488338Y625334D02*
D03*
X488559Y600988D02*
D03*
X487838Y576334D02*
D03*
X491156Y576171D02*
D03*
X489500Y557000D02*
D03*
X571500Y487500D02*
D03*
Y506500D02*
D03*
X571415Y524500D02*
D03*
X556000Y632000D02*
D03*
Y650000D02*
D03*
X556500Y668000D02*
D03*
X556000Y687500D02*
D03*
X460500Y489500D02*
D03*
D64*
X443000Y674500D02*
D03*
M02*
