G04*
G04 #@! TF.GenerationSoftware,Altium Limited,Altium Designer,23.5.1 (21)*
G04*
G04 Layer_Color=128*
%FSLAX25Y25*%
%MOIN*%
G70*
G04*
G04 #@! TF.SameCoordinates,62E66B6F-0332-4FDC-AC1A-6E2C05ECB38F*
G04*
G04*
G04 #@! TF.FilePolarity,Positive*
G04*
G01*
G75*
%ADD18R,0.04921X0.01181*%
%ADD19R,0.11811X0.07874*%
G04:AMPARAMS|DCode=65|XSize=63.17mil|YSize=20.79mil|CornerRadius=10.39mil|HoleSize=0mil|Usage=FLASHONLY|Rotation=180.000|XOffset=0mil|YOffset=0mil|HoleType=Round|Shape=RoundedRectangle|*
%AMROUNDEDRECTD65*
21,1,0.06317,0.00000,0,0,180.0*
21,1,0.04238,0.02079,0,0,180.0*
1,1,0.02079,-0.02119,0.00000*
1,1,0.02079,0.02119,0.00000*
1,1,0.02079,0.02119,0.00000*
1,1,0.02079,-0.02119,0.00000*
%
%ADD65ROUNDEDRECTD65*%
%ADD66R,0.06317X0.02079*%
%ADD67R,0.03150X0.03543*%
%ADD68R,0.05315X0.04331*%
%ADD69R,0.04331X0.05315*%
D18*
X543424Y610638D02*
D03*
Y608670D02*
D03*
Y606701D02*
D03*
Y604733D02*
D03*
Y602764D02*
D03*
Y600796D02*
D03*
Y598827D02*
D03*
Y596859D02*
D03*
Y594889D02*
D03*
Y592921D02*
D03*
Y590952D02*
D03*
Y588984D02*
D03*
Y587015D02*
D03*
Y585047D02*
D03*
Y583078D02*
D03*
Y581110D02*
D03*
Y579142D02*
D03*
Y577174D02*
D03*
Y575205D02*
D03*
Y573237D02*
D03*
Y571268D02*
D03*
Y569300D02*
D03*
Y567331D02*
D03*
Y565363D02*
D03*
D19*
X552576Y558708D02*
D03*
Y617291D02*
D03*
D65*
X483351Y544500D02*
D03*
Y539500D02*
D03*
Y534500D02*
D03*
Y529500D02*
D03*
Y524500D02*
D03*
Y519500D02*
D03*
Y514500D02*
D03*
Y509500D02*
D03*
X502649D02*
D03*
Y514500D02*
D03*
Y519500D02*
D03*
Y524500D02*
D03*
Y529500D02*
D03*
Y534500D02*
D03*
Y539500D02*
D03*
X483351Y587500D02*
D03*
Y582500D02*
D03*
Y577500D02*
D03*
Y572500D02*
D03*
Y567500D02*
D03*
Y562500D02*
D03*
Y557500D02*
D03*
Y552500D02*
D03*
X502649D02*
D03*
Y557500D02*
D03*
Y562500D02*
D03*
Y567500D02*
D03*
Y572500D02*
D03*
Y577500D02*
D03*
Y582500D02*
D03*
X483851Y636500D02*
D03*
Y631500D02*
D03*
Y626500D02*
D03*
Y621500D02*
D03*
Y616500D02*
D03*
Y611500D02*
D03*
Y606500D02*
D03*
Y601500D02*
D03*
X503149D02*
D03*
Y606500D02*
D03*
Y611500D02*
D03*
Y616500D02*
D03*
Y621500D02*
D03*
Y626500D02*
D03*
Y631500D02*
D03*
D66*
X502649Y544500D02*
D03*
Y587500D02*
D03*
X503149Y636500D02*
D03*
D67*
X555000Y450063D02*
D03*
X558740Y457937D02*
D03*
X551260D02*
D03*
X561000Y691063D02*
D03*
X564740Y698937D02*
D03*
X557260D02*
D03*
X526500Y613063D02*
D03*
X530240Y620937D02*
D03*
X522760D02*
D03*
X527000Y690563D02*
D03*
X530740Y698437D02*
D03*
X523260D02*
D03*
X556260Y532626D02*
D03*
X560000Y540500D02*
D03*
X552520D02*
D03*
X524000Y494063D02*
D03*
X527740Y501937D02*
D03*
X520260D02*
D03*
X525000Y534563D02*
D03*
X528740Y542437D02*
D03*
X521260D02*
D03*
X524500Y451063D02*
D03*
X528240Y458937D02*
D03*
X520760D02*
D03*
X556000Y493563D02*
D03*
X559740Y501437D02*
D03*
X552260D02*
D03*
X527240Y593626D02*
D03*
X530980Y601500D02*
D03*
X523500D02*
D03*
X560500Y650063D02*
D03*
X564240Y657937D02*
D03*
X556760D02*
D03*
X526500Y650063D02*
D03*
X530240Y657937D02*
D03*
X522760D02*
D03*
X556000Y473563D02*
D03*
X559740Y481437D02*
D03*
X552260D02*
D03*
X561500Y709063D02*
D03*
X565240Y716937D02*
D03*
X557760D02*
D03*
X527000Y669063D02*
D03*
X530740Y676937D02*
D03*
X523260D02*
D03*
X525500Y555063D02*
D03*
X529240Y562937D02*
D03*
X521760D02*
D03*
X560000Y631563D02*
D03*
X563740Y639437D02*
D03*
X556260D02*
D03*
X556500Y512563D02*
D03*
X560240Y520437D02*
D03*
X552760D02*
D03*
X524000Y512563D02*
D03*
X527740Y520437D02*
D03*
X520260D02*
D03*
X525500Y574063D02*
D03*
X529240Y581937D02*
D03*
X521760D02*
D03*
X561500Y669063D02*
D03*
X565240Y676937D02*
D03*
X557760D02*
D03*
X526500Y632063D02*
D03*
X530240Y639937D02*
D03*
X522760D02*
D03*
X524000Y474063D02*
D03*
X527740Y481937D02*
D03*
X520260D02*
D03*
X526500Y708563D02*
D03*
X530240Y716437D02*
D03*
X522760D02*
D03*
D68*
X465000Y490256D02*
D03*
Y484744D02*
D03*
D69*
X475000Y489000D02*
D03*
X480512D02*
D03*
X490500Y489500D02*
D03*
X496012D02*
D03*
M02*
