G04*
G04 #@! TF.GenerationSoftware,Altium Limited,Altium Designer,23.5.1 (21)*
G04*
G04 Layer_Physical_Order=2*
G04 Layer_Color=36540*
%FSLAX25Y25*%
%MOIN*%
G70*
G04*
G04 #@! TF.SameCoordinates,62E66B6F-0332-4FDC-AC1A-6E2C05ECB38F*
G04*
G04*
G04 #@! TF.FilePolarity,Positive*
G04*
G01*
G75*
%ADD52C,0.06181*%
%ADD53R,0.06181X0.06181*%
%ADD54C,0.05472*%
%ADD55R,0.05472X0.05472*%
%ADD59C,0.04000*%
%ADD60C,0.23622*%
%ADD62C,0.03000*%
%ADD63C,0.02000*%
%ADD64C,0.04000*%
G36*
X576957Y440750D02*
X322043D01*
Y742457D01*
X576957D01*
Y440750D01*
D02*
G37*
%LPC*%
G36*
X556818Y731450D02*
X556182D01*
X555594Y731206D01*
X555144Y730756D01*
X554900Y730168D01*
Y729532D01*
X555144Y728944D01*
X555594Y728494D01*
X556182Y728250D01*
X556818D01*
X557406Y728494D01*
X557856Y728944D01*
X558100Y729532D01*
Y730168D01*
X557856Y730756D01*
X557406Y731206D01*
X556818Y731450D01*
D02*
G37*
G36*
X491818Y724100D02*
X491182D01*
X490594Y723856D01*
X490144Y723406D01*
X490021Y723109D01*
X489479D01*
X489356Y723406D01*
X488906Y723856D01*
X488318Y724100D01*
X487682D01*
X487094Y723856D01*
X486644Y723406D01*
X486400Y722818D01*
Y722182D01*
X486644Y721594D01*
X487094Y721144D01*
X487682Y720900D01*
X488318D01*
X488906Y721144D01*
X489356Y721594D01*
X489479Y721891D01*
X490021D01*
X490144Y721594D01*
X490594Y721144D01*
X491182Y720900D01*
X491818D01*
X492406Y721144D01*
X492856Y721594D01*
X493100Y722182D01*
Y722818D01*
X492856Y723406D01*
X492406Y723856D01*
X491818Y724100D01*
D02*
G37*
G36*
X556818Y725100D02*
X556182D01*
X555594Y724856D01*
X555144Y724406D01*
X554900Y723818D01*
Y723182D01*
X555144Y722594D01*
X555594Y722144D01*
X556182Y721900D01*
X556818D01*
X557406Y722144D01*
X557856Y722594D01*
X558100Y723182D01*
Y723818D01*
X557856Y724406D01*
X557406Y724856D01*
X556818Y725100D01*
D02*
G37*
G36*
X390486Y729190D02*
X389514D01*
X388576Y728939D01*
X387734Y728453D01*
X387047Y727766D01*
X386561Y726925D01*
X386310Y725986D01*
Y725014D01*
X386561Y724076D01*
X387047Y723234D01*
X387734Y722547D01*
X388576Y722061D01*
X389514Y721809D01*
X390486D01*
X391424Y722061D01*
X392266Y722547D01*
X392953Y723234D01*
X393439Y724076D01*
X393690Y725014D01*
Y725986D01*
X393439Y726925D01*
X392953Y727766D01*
X392266Y728453D01*
X391424Y728939D01*
X390486Y729190D01*
D02*
G37*
G36*
X330486D02*
X329514D01*
X328575Y728939D01*
X327734Y728453D01*
X327047Y727766D01*
X326561Y726925D01*
X326309Y725986D01*
Y725014D01*
X326561Y724076D01*
X327047Y723234D01*
X327734Y722547D01*
X328575Y722061D01*
X329514Y721809D01*
X330486D01*
X331424Y722061D01*
X332266Y722547D01*
X332953Y723234D01*
X333439Y724076D01*
X333691Y725014D01*
Y725986D01*
X333439Y726925D01*
X332953Y727766D01*
X332266Y728453D01*
X331424Y728939D01*
X330486Y729190D01*
D02*
G37*
G36*
X566318Y724930D02*
X565682D01*
X565094Y724686D01*
X564644Y724236D01*
X564400Y723648D01*
Y723011D01*
X564644Y722423D01*
X565094Y721973D01*
X565682Y721730D01*
X566318D01*
X566906Y721973D01*
X567356Y722423D01*
X567600Y723011D01*
Y723648D01*
X567356Y724236D01*
X566906Y724686D01*
X566318Y724930D01*
D02*
G37*
G36*
X569818Y718100D02*
X569182D01*
X568594Y717856D01*
X568144Y717406D01*
X567900Y716818D01*
Y716182D01*
X568144Y715594D01*
X568594Y715144D01*
X569182Y714900D01*
X569818D01*
X570406Y715144D01*
X570856Y715594D01*
X571100Y716182D01*
Y716818D01*
X570856Y717406D01*
X570406Y717856D01*
X569818Y718100D01*
D02*
G37*
G36*
X534418D02*
X533582D01*
X532810Y717780D01*
X532220Y717190D01*
X531900Y716418D01*
Y715582D01*
X532220Y714811D01*
X532810Y714220D01*
X533582Y713900D01*
X534418D01*
X535189Y714220D01*
X535780Y714811D01*
X536100Y715582D01*
Y716418D01*
X535780Y717190D01*
X535189Y717780D01*
X534418Y718100D01*
D02*
G37*
G36*
X390486Y719191D02*
X389514D01*
X388576Y718939D01*
X387734Y718453D01*
X387047Y717766D01*
X386561Y716924D01*
X386310Y715986D01*
Y715014D01*
X386561Y714076D01*
X387047Y713234D01*
X387734Y712547D01*
X388576Y712061D01*
X389514Y711809D01*
X390486D01*
X391424Y712061D01*
X392266Y712547D01*
X392953Y713234D01*
X393439Y714076D01*
X393690Y715014D01*
Y715986D01*
X393439Y716924D01*
X392953Y717766D01*
X392266Y718453D01*
X391424Y718939D01*
X390486Y719191D01*
D02*
G37*
G36*
X330486D02*
X329514D01*
X328575Y718939D01*
X327734Y718453D01*
X327047Y717766D01*
X326561Y716924D01*
X326309Y715986D01*
Y715014D01*
X326561Y714076D01*
X327047Y713234D01*
X327734Y712547D01*
X328575Y712061D01*
X329514Y711809D01*
X330486D01*
X331424Y712061D01*
X332266Y712547D01*
X332953Y713234D01*
X333439Y714076D01*
X333691Y715014D01*
Y715986D01*
X333439Y716924D01*
X332953Y717766D01*
X332266Y718453D01*
X331424Y718939D01*
X330486Y719191D01*
D02*
G37*
G36*
X419304Y736411D02*
X417350D01*
X415420Y736105D01*
X413563Y735502D01*
X411822Y734615D01*
X410242Y733467D01*
X408860Y732085D01*
X407712Y730505D01*
X406825Y728764D01*
X406221Y726906D01*
X405916Y724977D01*
Y723023D01*
X406221Y721094D01*
X406825Y719236D01*
X407712Y717495D01*
X408860Y715915D01*
X410242Y714533D01*
X411822Y713385D01*
X413563Y712498D01*
X415420Y711895D01*
X417350Y711589D01*
X419304D01*
X421233Y711895D01*
X423091Y712498D01*
X424832Y713385D01*
X426412Y714533D01*
X427793Y715915D01*
X428942Y717495D01*
X429829Y719236D01*
X430432Y721094D01*
X430738Y723023D01*
Y724977D01*
X430432Y726906D01*
X429829Y728764D01*
X428942Y730505D01*
X427793Y732085D01*
X426412Y733467D01*
X424832Y734615D01*
X423091Y735502D01*
X421233Y736105D01*
X419304Y736411D01*
D02*
G37*
G36*
X571818Y706554D02*
X571182D01*
X570594Y706310D01*
X570144Y705860D01*
X569900Y705272D01*
Y704635D01*
X570144Y704047D01*
X570594Y703597D01*
X571182Y703354D01*
X571818D01*
X572406Y703597D01*
X572856Y704047D01*
X573100Y704635D01*
Y705272D01*
X572856Y705860D01*
X572406Y706310D01*
X571818Y706554D01*
D02*
G37*
G36*
X556318Y705600D02*
X555682D01*
X555094Y705356D01*
X554644Y704906D01*
X554400Y704318D01*
Y703682D01*
X554644Y703094D01*
X555094Y702644D01*
X555682Y702400D01*
X556318D01*
X556906Y702644D01*
X557356Y703094D01*
X557600Y703682D01*
Y704318D01*
X557356Y704906D01*
X556906Y705356D01*
X556318Y705600D01*
D02*
G37*
G36*
X390486Y709191D02*
X389514D01*
X388576Y708939D01*
X387734Y708453D01*
X387047Y707766D01*
X386561Y706924D01*
X386310Y705986D01*
Y705014D01*
X386561Y704075D01*
X387047Y703234D01*
X387734Y702547D01*
X388576Y702061D01*
X389514Y701810D01*
X390486D01*
X391424Y702061D01*
X392266Y702547D01*
X392953Y703234D01*
X393439Y704075D01*
X393690Y705014D01*
Y705986D01*
X393439Y706924D01*
X392953Y707766D01*
X392266Y708453D01*
X391424Y708939D01*
X390486Y709191D01*
D02*
G37*
G36*
X330486D02*
X329514D01*
X328575Y708939D01*
X327734Y708453D01*
X327047Y707766D01*
X326561Y706924D01*
X326309Y705986D01*
Y705014D01*
X326561Y704075D01*
X327047Y703234D01*
X327734Y702547D01*
X328575Y702061D01*
X329514Y701810D01*
X330486D01*
X331424Y702061D01*
X332266Y702547D01*
X332953Y703234D01*
X333439Y704075D01*
X333691Y705014D01*
Y705986D01*
X333439Y706924D01*
X332953Y707766D01*
X332266Y708453D01*
X331424Y708939D01*
X330486Y709191D01*
D02*
G37*
G36*
X491552Y699883D02*
X490915D01*
X490327Y699640D01*
X489917Y699229D01*
X489506Y699640D01*
X488918Y699883D01*
X488282D01*
X487694Y699640D01*
X487244Y699190D01*
X487000Y698602D01*
Y697965D01*
X487244Y697377D01*
X487694Y696927D01*
X488282Y696683D01*
X488918D01*
X489506Y696927D01*
X489917Y697337D01*
X490327Y696927D01*
X490915Y696683D01*
X491552D01*
X492140Y696927D01*
X492590Y697377D01*
X492833Y697965D01*
Y698602D01*
X492590Y699190D01*
X492140Y699640D01*
X491552Y699883D01*
D02*
G37*
G36*
X536606Y700041D02*
X535770D01*
X534999Y699721D01*
X534408Y699130D01*
X534088Y698358D01*
Y697523D01*
X534408Y696751D01*
X534999Y696161D01*
X535770Y695841D01*
X536606D01*
X537378Y696161D01*
X537968Y696751D01*
X538288Y697523D01*
Y698358D01*
X537968Y699130D01*
X537378Y699721D01*
X536606Y700041D01*
D02*
G37*
G36*
X569818Y697600D02*
X568982D01*
X568211Y697280D01*
X567620Y696690D01*
X567300Y695918D01*
Y695082D01*
X567620Y694311D01*
X568211Y693720D01*
X568982Y693400D01*
X569818D01*
X570589Y693720D01*
X571180Y694311D01*
X571500Y695082D01*
Y695918D01*
X571180Y696690D01*
X570589Y697280D01*
X569818Y697600D01*
D02*
G37*
G36*
X390486Y699191D02*
X389514D01*
X388576Y698939D01*
X387734Y698453D01*
X387047Y697766D01*
X386561Y696924D01*
X386310Y695986D01*
Y695014D01*
X386561Y694075D01*
X387047Y693234D01*
X387734Y692547D01*
X388576Y692061D01*
X389514Y691810D01*
X390486D01*
X391424Y692061D01*
X392266Y692547D01*
X392953Y693234D01*
X393439Y694075D01*
X393690Y695014D01*
Y695986D01*
X393439Y696924D01*
X392953Y697766D01*
X392266Y698453D01*
X391424Y698939D01*
X390486Y699191D01*
D02*
G37*
G36*
X330486D02*
X329514D01*
X328575Y698939D01*
X327734Y698453D01*
X327047Y697766D01*
X326561Y696924D01*
X326309Y695986D01*
Y695014D01*
X326561Y694075D01*
X327047Y693234D01*
X327734Y692547D01*
X328575Y692061D01*
X329514Y691810D01*
X330486D01*
X331424Y692061D01*
X332266Y692547D01*
X332953Y693234D01*
X333439Y694075D01*
X333691Y695014D01*
Y695986D01*
X333439Y696924D01*
X332953Y697766D01*
X332266Y698453D01*
X331424Y698939D01*
X330486Y699191D01*
D02*
G37*
G36*
X573418Y690494D02*
X572782D01*
X572194Y690251D01*
X571744Y689801D01*
X571500Y689213D01*
Y688576D01*
X571744Y687988D01*
X572194Y687538D01*
X572782Y687294D01*
X573418D01*
X574006Y687538D01*
X574456Y687988D01*
X574700Y688576D01*
Y689213D01*
X574456Y689801D01*
X574006Y690251D01*
X573418Y690494D01*
D02*
G37*
G36*
X556318Y689100D02*
X555682D01*
X555094Y688856D01*
X554644Y688406D01*
X554400Y687818D01*
Y687182D01*
X554644Y686594D01*
X555094Y686144D01*
X555682Y685900D01*
X556318D01*
X556906Y686144D01*
X557356Y686594D01*
X557600Y687182D01*
Y687818D01*
X557356Y688406D01*
X556906Y688856D01*
X556318Y689100D01*
D02*
G37*
G36*
X390486Y689190D02*
X389514D01*
X388576Y688939D01*
X387734Y688453D01*
X387047Y687766D01*
X386561Y686925D01*
X386310Y685986D01*
Y685014D01*
X386561Y684075D01*
X387047Y683234D01*
X387734Y682547D01*
X388576Y682061D01*
X389514Y681810D01*
X390486D01*
X391424Y682061D01*
X392266Y682547D01*
X392953Y683234D01*
X393439Y684075D01*
X393690Y685014D01*
Y685986D01*
X393439Y686925D01*
X392953Y687766D01*
X392266Y688453D01*
X391424Y688939D01*
X390486Y689190D01*
D02*
G37*
G36*
X330486D02*
X329514D01*
X328575Y688939D01*
X327734Y688453D01*
X327047Y687766D01*
X326561Y686925D01*
X326309Y685986D01*
Y685014D01*
X326561Y684075D01*
X327047Y683234D01*
X327734Y682547D01*
X328575Y682061D01*
X329514Y681810D01*
X330486D01*
X331424Y682061D01*
X332266Y682547D01*
X332953Y683234D01*
X333439Y684075D01*
X333691Y685014D01*
Y685986D01*
X333439Y686925D01*
X332953Y687766D01*
X332266Y688453D01*
X331424Y688939D01*
X330486Y689190D01*
D02*
G37*
G36*
X535918Y680289D02*
X535082D01*
X534310Y679970D01*
X533720Y679379D01*
X533400Y678607D01*
Y677772D01*
X533720Y677000D01*
X534310Y676409D01*
X535082Y676089D01*
X535918D01*
X536690Y676409D01*
X537280Y677000D01*
X537600Y677772D01*
Y678607D01*
X537280Y679379D01*
X536690Y679970D01*
X535918Y680289D01*
D02*
G37*
G36*
X569818Y679600D02*
X568982D01*
X568211Y679280D01*
X567620Y678689D01*
X567300Y677918D01*
Y677082D01*
X567620Y676310D01*
X568211Y675720D01*
X568982Y675400D01*
X569818D01*
X570589Y675720D01*
X571180Y676310D01*
X571500Y677082D01*
Y677918D01*
X571180Y678689D01*
X570589Y679280D01*
X569818Y679600D01*
D02*
G37*
G36*
X491818Y675226D02*
X491182D01*
X490594Y674982D01*
X490144Y674532D01*
X490021Y674235D01*
X489479D01*
X489356Y674532D01*
X488906Y674982D01*
X488318Y675226D01*
X487682D01*
X487094Y674982D01*
X486644Y674532D01*
X486400Y673944D01*
Y673307D01*
X486644Y672719D01*
X487094Y672269D01*
X487682Y672026D01*
X488318D01*
X488906Y672269D01*
X489356Y672719D01*
X489479Y673016D01*
X490021D01*
X490144Y672719D01*
X490594Y672269D01*
X491182Y672026D01*
X491818D01*
X492406Y672269D01*
X492856Y672719D01*
X493100Y673307D01*
Y673944D01*
X492856Y674532D01*
X492406Y674982D01*
X491818Y675226D01*
D02*
G37*
G36*
X429318Y706600D02*
X428682D01*
X428094Y706356D01*
X427644Y705906D01*
X427400Y705318D01*
Y704682D01*
X427378Y704649D01*
X415500D01*
X415041Y704459D01*
X414851Y704000D01*
Y684500D01*
X415041Y684041D01*
X415500Y683851D01*
X435778D01*
Y661250D01*
X435778Y661250D01*
X435867Y660571D01*
X436129Y659939D01*
X436546Y659396D01*
X437378Y658564D01*
Y629592D01*
X436906Y629356D01*
X436318Y629600D01*
X435682D01*
X435094Y629356D01*
X434644Y628906D01*
X434400Y628318D01*
Y627682D01*
X434644Y627094D01*
X435094Y626644D01*
X435682Y626400D01*
X436318D01*
X436906Y626644D01*
X436970Y626707D01*
X437079Y626719D01*
X437545Y626575D01*
X437729Y626130D01*
X438146Y625587D01*
X438720Y625012D01*
X438603Y624422D01*
X438444Y624356D01*
X437994Y623906D01*
X437750Y623318D01*
Y622682D01*
X437994Y622094D01*
X438444Y621644D01*
X439032Y621400D01*
X439668D01*
X440256Y621644D01*
X440706Y622094D01*
X440772Y622253D01*
X441362Y622370D01*
X447478Y616255D01*
Y556186D01*
X437646Y546354D01*
X437229Y545811D01*
X436967Y545179D01*
X436877Y544500D01*
X436967Y543821D01*
X437229Y543189D01*
X437646Y542646D01*
X438189Y542229D01*
X438821Y541967D01*
X439500Y541878D01*
X440179Y541967D01*
X440811Y542229D01*
X441354Y542646D01*
X451954Y553246D01*
X451954Y553246D01*
X452371Y553789D01*
X452633Y554421D01*
X452722Y555100D01*
Y617341D01*
X452723Y617341D01*
X452633Y618020D01*
X452371Y618652D01*
X451954Y619196D01*
X451954Y619196D01*
X442622Y628527D01*
Y659650D01*
X442623Y659650D01*
X442533Y660329D01*
X442271Y660961D01*
X441854Y661504D01*
X441854Y661504D01*
X441022Y662336D01*
Y672157D01*
X441522Y672351D01*
X441996Y672077D01*
X442658Y671900D01*
X443342D01*
X444004Y672077D01*
X444596Y672420D01*
X445081Y672904D01*
X445423Y673496D01*
X445600Y674158D01*
Y674842D01*
X445423Y675504D01*
X445081Y676096D01*
X444596Y676580D01*
X444004Y676923D01*
X443342Y677100D01*
X442658D01*
X441996Y676923D01*
X441522Y676649D01*
X441022Y676843D01*
Y683851D01*
X474500D01*
X474959Y684041D01*
X475149Y684500D01*
Y704000D01*
X474959Y704459D01*
X474500Y704649D01*
X430622D01*
X430600Y704682D01*
Y705318D01*
X430356Y705906D01*
X429906Y706356D01*
X429318Y706600D01*
D02*
G37*
G36*
X390486Y679190D02*
X389514D01*
X388576Y678939D01*
X387734Y678453D01*
X387047Y677766D01*
X386561Y676925D01*
X386310Y675986D01*
Y675014D01*
X386561Y674076D01*
X387047Y673234D01*
X387734Y672547D01*
X388576Y672061D01*
X389514Y671809D01*
X390486D01*
X391424Y672061D01*
X392266Y672547D01*
X392953Y673234D01*
X393439Y674076D01*
X393690Y675014D01*
Y675986D01*
X393439Y676925D01*
X392953Y677766D01*
X392266Y678453D01*
X391424Y678939D01*
X390486Y679190D01*
D02*
G37*
G36*
X330486D02*
X329514D01*
X328575Y678939D01*
X327734Y678453D01*
X327047Y677766D01*
X326561Y676925D01*
X326309Y675986D01*
Y675014D01*
X326561Y674076D01*
X327047Y673234D01*
X327734Y672547D01*
X328575Y672061D01*
X329514Y671809D01*
X330486D01*
X331424Y672061D01*
X332266Y672547D01*
X332953Y673234D01*
X333439Y674076D01*
X333691Y675014D01*
Y675986D01*
X333439Y676925D01*
X332953Y677766D01*
X332266Y678453D01*
X331424Y678939D01*
X330486Y679190D01*
D02*
G37*
G36*
X570318Y669600D02*
X569682D01*
X569094Y669356D01*
X568644Y668906D01*
X568400Y668318D01*
Y667682D01*
X568644Y667094D01*
X569094Y666644D01*
X569682Y666400D01*
X570318D01*
X570906Y666644D01*
X571356Y667094D01*
X571600Y667682D01*
Y668318D01*
X571356Y668906D01*
X570906Y669356D01*
X570318Y669600D01*
D02*
G37*
G36*
X556818D02*
X556182D01*
X555594Y669356D01*
X555144Y668906D01*
X554900Y668318D01*
Y667682D01*
X555144Y667094D01*
X555594Y666644D01*
X556182Y666400D01*
X556818D01*
X557406Y666644D01*
X557856Y667094D01*
X558100Y667682D01*
Y668318D01*
X557856Y668906D01*
X557406Y669356D01*
X556818Y669600D01*
D02*
G37*
G36*
X390486Y669191D02*
X389514D01*
X388576Y668939D01*
X387734Y668453D01*
X387047Y667766D01*
X386561Y666924D01*
X386310Y665986D01*
Y665014D01*
X386561Y664076D01*
X387047Y663234D01*
X387734Y662547D01*
X388576Y662061D01*
X389514Y661809D01*
X390486D01*
X391424Y662061D01*
X392266Y662547D01*
X392953Y663234D01*
X393439Y664076D01*
X393690Y665014D01*
Y665986D01*
X393439Y666924D01*
X392953Y667766D01*
X392266Y668453D01*
X391424Y668939D01*
X390486Y669191D01*
D02*
G37*
G36*
X330486D02*
X329514D01*
X328575Y668939D01*
X327734Y668453D01*
X327047Y667766D01*
X326561Y666924D01*
X326309Y665986D01*
Y665014D01*
X326561Y664076D01*
X327047Y663234D01*
X327734Y662547D01*
X328575Y662061D01*
X329514Y661809D01*
X330486D01*
X331424Y662061D01*
X332266Y662547D01*
X332953Y663234D01*
X333439Y664076D01*
X333691Y665014D01*
Y665986D01*
X333439Y666924D01*
X332953Y667766D01*
X332266Y668453D01*
X331424Y668939D01*
X330486Y669191D01*
D02*
G37*
G36*
X568418Y661100D02*
X567582D01*
X566811Y660780D01*
X566220Y660189D01*
X565900Y659418D01*
Y658582D01*
X566220Y657810D01*
X566811Y657220D01*
X567582Y656900D01*
X568418D01*
X569190Y657220D01*
X569780Y657810D01*
X570100Y658582D01*
Y659418D01*
X569780Y660189D01*
X569190Y660780D01*
X568418Y661100D01*
D02*
G37*
G36*
X535776Y660793D02*
X534940D01*
X534169Y660474D01*
X533578Y659883D01*
X533258Y659111D01*
Y658276D01*
X533578Y657504D01*
X534169Y656913D01*
X534940Y656594D01*
X535776D01*
X536548Y656913D01*
X537138Y657504D01*
X537458Y658276D01*
Y659111D01*
X537138Y659883D01*
X536548Y660474D01*
X535776Y660793D01*
D02*
G37*
G36*
X390486Y659191D02*
X389514D01*
X388576Y658939D01*
X387734Y658453D01*
X387047Y657766D01*
X386561Y656924D01*
X386310Y655986D01*
Y655014D01*
X386561Y654075D01*
X387047Y653234D01*
X387734Y652547D01*
X388576Y652061D01*
X389514Y651810D01*
X390486D01*
X391424Y652061D01*
X392266Y652547D01*
X392953Y653234D01*
X393439Y654075D01*
X393690Y655014D01*
Y655986D01*
X393439Y656924D01*
X392953Y657766D01*
X392266Y658453D01*
X391424Y658939D01*
X390486Y659191D01*
D02*
G37*
G36*
X330486D02*
X329514D01*
X328575Y658939D01*
X327734Y658453D01*
X327047Y657766D01*
X326561Y656924D01*
X326309Y655986D01*
Y655014D01*
X326561Y654075D01*
X327047Y653234D01*
X327734Y652547D01*
X328575Y652061D01*
X329514Y651810D01*
X330486D01*
X331424Y652061D01*
X332266Y652547D01*
X332953Y653234D01*
X333439Y654075D01*
X333691Y655014D01*
Y655986D01*
X333439Y656924D01*
X332953Y657766D01*
X332266Y658453D01*
X331424Y658939D01*
X330486Y659191D01*
D02*
G37*
G36*
X556318Y651600D02*
X555682D01*
X555094Y651356D01*
X554644Y650906D01*
X554400Y650318D01*
Y649682D01*
X554644Y649094D01*
X555094Y648644D01*
X555682Y648400D01*
X556318D01*
X556906Y648644D01*
X557356Y649094D01*
X557600Y649682D01*
Y650318D01*
X557356Y650906D01*
X556906Y651356D01*
X556318Y651600D01*
D02*
G37*
G36*
X491918Y651100D02*
X491282D01*
X490694Y650856D01*
X490244Y650406D01*
X490000Y649818D01*
Y649182D01*
X490244Y648594D01*
X490694Y648144D01*
X491282Y647900D01*
X491918D01*
X492506Y648144D01*
X492956Y648594D01*
X493200Y649182D01*
Y649818D01*
X492956Y650406D01*
X492506Y650856D01*
X491918Y651100D01*
D02*
G37*
G36*
X486718D02*
X486082D01*
X485494Y650856D01*
X485044Y650406D01*
X484800Y649818D01*
Y649182D01*
X485044Y648594D01*
X485494Y648144D01*
X486082Y647900D01*
X486718D01*
X487306Y648144D01*
X487756Y648594D01*
X488000Y649182D01*
Y649818D01*
X487756Y650406D01*
X487306Y650856D01*
X486718Y651100D01*
D02*
G37*
G36*
X423818Y646600D02*
X423182D01*
X422594Y646356D01*
X422144Y645906D01*
X421900Y645318D01*
Y644682D01*
X422144Y644094D01*
X422594Y643644D01*
X423182Y643400D01*
X423818D01*
X424406Y643644D01*
X424856Y644094D01*
X425100Y644682D01*
Y645318D01*
X424856Y645906D01*
X424406Y646356D01*
X423818Y646600D01*
D02*
G37*
G36*
X572818Y645100D02*
X572182D01*
X571594Y644856D01*
X571144Y644406D01*
X570900Y643818D01*
Y643182D01*
X571144Y642594D01*
X571594Y642144D01*
X572182Y641900D01*
X572818D01*
X573406Y642144D01*
X573856Y642594D01*
X574100Y643182D01*
Y643818D01*
X573856Y644406D01*
X573406Y644856D01*
X572818Y645100D01*
D02*
G37*
G36*
X390486Y649191D02*
X389514D01*
X388576Y648939D01*
X387734Y648453D01*
X387047Y647766D01*
X386561Y646924D01*
X386310Y645986D01*
Y645014D01*
X386561Y644075D01*
X387047Y643234D01*
X387734Y642547D01*
X388576Y642061D01*
X389514Y641810D01*
X390486D01*
X391424Y642061D01*
X392266Y642547D01*
X392953Y643234D01*
X393439Y644075D01*
X393690Y645014D01*
Y645986D01*
X393439Y646924D01*
X392953Y647766D01*
X392266Y648453D01*
X391424Y648939D01*
X390486Y649191D01*
D02*
G37*
G36*
X330486D02*
X329514D01*
X328575Y648939D01*
X327734Y648453D01*
X327047Y647766D01*
X326561Y646924D01*
X326309Y645986D01*
Y645014D01*
X326561Y644075D01*
X327047Y643234D01*
X327734Y642547D01*
X328575Y642061D01*
X329514Y641810D01*
X330486D01*
X331424Y642061D01*
X332266Y642547D01*
X332953Y643234D01*
X333439Y644075D01*
X333691Y645014D01*
Y645986D01*
X333439Y646924D01*
X332953Y647766D01*
X332266Y648453D01*
X331424Y648939D01*
X330486Y649191D01*
D02*
G37*
G36*
X537118Y643000D02*
X536282D01*
X535510Y642680D01*
X534920Y642090D01*
X534600Y641318D01*
Y640482D01*
X534920Y639711D01*
X535510Y639120D01*
X536282Y638800D01*
X537118D01*
X537889Y639120D01*
X538480Y639711D01*
X538800Y640482D01*
Y641318D01*
X538480Y642090D01*
X537889Y642680D01*
X537118Y643000D01*
D02*
G37*
G36*
X482918Y641600D02*
X482282D01*
X481694Y641356D01*
X481244Y640906D01*
X481000Y640318D01*
Y639682D01*
X481244Y639094D01*
X481694Y638644D01*
X482282Y638400D01*
X482918D01*
X483506Y638644D01*
X483956Y639094D01*
X484200Y639682D01*
Y640318D01*
X483956Y640906D01*
X483506Y641356D01*
X482918Y641600D01*
D02*
G37*
G36*
X560918Y642100D02*
X560082D01*
X559310Y641780D01*
X558720Y641189D01*
X558400Y640418D01*
Y639582D01*
X558720Y638810D01*
X559310Y638220D01*
X560082Y637900D01*
X560918D01*
X561690Y638220D01*
X562280Y638810D01*
X562600Y639582D01*
Y640418D01*
X562280Y641189D01*
X561690Y641780D01*
X560918Y642100D01*
D02*
G37*
G36*
X390486Y639190D02*
X389514D01*
X388576Y638939D01*
X387734Y638453D01*
X387047Y637766D01*
X386561Y636925D01*
X386310Y635986D01*
Y635014D01*
X386561Y634075D01*
X387047Y633234D01*
X387734Y632547D01*
X388576Y632061D01*
X389514Y631810D01*
X390486D01*
X391424Y632061D01*
X392266Y632547D01*
X392953Y633234D01*
X393439Y634075D01*
X393690Y635014D01*
Y635986D01*
X393439Y636925D01*
X392953Y637766D01*
X392266Y638453D01*
X391424Y638939D01*
X390486Y639190D01*
D02*
G37*
G36*
X565818Y633688D02*
X565182D01*
X564594Y633444D01*
X564144Y632994D01*
X563900Y632406D01*
Y631770D01*
X564144Y631182D01*
X564594Y630732D01*
X565182Y630488D01*
X565818D01*
X566406Y630732D01*
X566856Y631182D01*
X567100Y631770D01*
Y632406D01*
X566856Y632994D01*
X566406Y633444D01*
X565818Y633688D01*
D02*
G37*
G36*
X556318Y633600D02*
X555682D01*
X555094Y633356D01*
X554644Y632906D01*
X554400Y632318D01*
Y631682D01*
X554644Y631094D01*
X555094Y630644D01*
X555682Y630400D01*
X556318D01*
X556906Y630644D01*
X557356Y631094D01*
X557600Y631682D01*
Y632318D01*
X557356Y632906D01*
X556906Y633356D01*
X556318Y633600D01*
D02*
G37*
G36*
X481309Y630567D02*
X480672D01*
X480084Y630323D01*
X479634Y629873D01*
X479390Y629285D01*
Y628649D01*
X479634Y628061D01*
X480084Y627610D01*
X480672Y627367D01*
X481309D01*
X481897Y627610D01*
X482347Y628061D01*
X482590Y628649D01*
Y629285D01*
X482347Y629873D01*
X481897Y630323D01*
X481309Y630567D01*
D02*
G37*
G36*
X488656Y626934D02*
X488019D01*
X487431Y626690D01*
X486981Y626240D01*
X486737Y625652D01*
Y625015D01*
X486981Y624427D01*
X487431Y623977D01*
X488019Y623734D01*
X488656D01*
X489244Y623977D01*
X489532Y624265D01*
X490077Y624202D01*
X490105Y624186D01*
X490144Y624094D01*
X490594Y623644D01*
X491182Y623400D01*
X491818D01*
X492406Y623644D01*
X492856Y624094D01*
X493100Y624682D01*
Y625318D01*
X492856Y625906D01*
X492406Y626356D01*
X491818Y626600D01*
X491182D01*
X490594Y626356D01*
X490306Y626069D01*
X489760Y626131D01*
X489732Y626148D01*
X489694Y626240D01*
X489244Y626690D01*
X488656Y626934D01*
D02*
G37*
G36*
X473918Y626600D02*
X473282D01*
X472694Y626356D01*
X472244Y625906D01*
X472000Y625318D01*
Y624682D01*
X472244Y624094D01*
X472694Y623644D01*
X473282Y623400D01*
X473918D01*
X474506Y623644D01*
X474956Y624094D01*
X475200Y624682D01*
Y625318D01*
X474956Y625906D01*
X474506Y626356D01*
X473918Y626600D01*
D02*
G37*
G36*
X390486Y629190D02*
X389514D01*
X388576Y628939D01*
X387734Y628453D01*
X387047Y627766D01*
X386561Y626925D01*
X386310Y625986D01*
Y625014D01*
X386561Y624076D01*
X387047Y623234D01*
X387734Y622547D01*
X388576Y622061D01*
X389514Y621809D01*
X390486D01*
X391424Y622061D01*
X392266Y622547D01*
X392953Y623234D01*
X393439Y624076D01*
X393690Y625014D01*
Y625986D01*
X393439Y626925D01*
X392953Y627766D01*
X392266Y628453D01*
X391424Y628939D01*
X390486Y629190D01*
D02*
G37*
G36*
X330486D02*
X329514D01*
X328575Y628939D01*
X327734Y628453D01*
X327047Y627766D01*
X326561Y626925D01*
X326309Y625986D01*
Y625014D01*
X326561Y624076D01*
X327047Y623234D01*
X327734Y622547D01*
X328575Y622061D01*
X329514Y621809D01*
X330486D01*
X331424Y622061D01*
X332266Y622547D01*
X332953Y623234D01*
X333439Y624076D01*
X333691Y625014D01*
Y625986D01*
X333439Y626925D01*
X332953Y627766D01*
X332266Y628453D01*
X331424Y628939D01*
X330486Y629190D01*
D02*
G37*
G36*
X537118Y623100D02*
X536282D01*
X535510Y622780D01*
X534920Y622190D01*
X534600Y621418D01*
Y620582D01*
X534920Y619810D01*
X535510Y619220D01*
X536282Y618900D01*
X537118D01*
X537889Y619220D01*
X538480Y619810D01*
X538800Y620582D01*
Y621418D01*
X538480Y622190D01*
X537889Y622780D01*
X537118Y623100D01*
D02*
G37*
G36*
X390486Y619191D02*
X389514D01*
X388576Y618939D01*
X387734Y618453D01*
X387047Y617766D01*
X386561Y616924D01*
X386310Y615986D01*
Y615014D01*
X386561Y614076D01*
X387047Y613234D01*
X387734Y612547D01*
X388576Y612061D01*
X389514Y611809D01*
X390486D01*
X391424Y612061D01*
X392266Y612547D01*
X392953Y613234D01*
X393439Y614076D01*
X393690Y615014D01*
Y615986D01*
X393439Y616924D01*
X392953Y617766D01*
X392266Y618453D01*
X391424Y618939D01*
X390486Y619191D01*
D02*
G37*
G36*
X330486D02*
X329514D01*
X328575Y618939D01*
X327734Y618453D01*
X327047Y617766D01*
X326561Y616924D01*
X326309Y615986D01*
Y615014D01*
X326561Y614076D01*
X327047Y613234D01*
X327734Y612547D01*
X328575Y612061D01*
X329514Y611809D01*
X330486D01*
X331424Y612061D01*
X332266Y612547D01*
X332953Y613234D01*
X333439Y614076D01*
X333691Y615014D01*
Y615986D01*
X333439Y616924D01*
X332953Y617766D01*
X332266Y618453D01*
X331424Y618939D01*
X330486Y619191D01*
D02*
G37*
G36*
X484893Y610819D02*
X484257D01*
X483669Y610576D01*
X483219Y610126D01*
X482743Y610285D01*
X482318Y610461D01*
X481682D01*
X481094Y610217D01*
X480644Y609767D01*
X480400Y609179D01*
Y608542D01*
X480644Y607954D01*
X481094Y607504D01*
X481682Y607261D01*
X482318D01*
X482906Y607504D01*
X483356Y607954D01*
X483832Y607795D01*
X484257Y607619D01*
X484893D01*
X485481Y607863D01*
X485931Y608313D01*
X486175Y608901D01*
Y609538D01*
X485931Y610126D01*
X485481Y610576D01*
X484893Y610819D01*
D02*
G37*
G36*
X423318Y608100D02*
X422682D01*
X422094Y607856D01*
X421644Y607406D01*
X421400Y606818D01*
Y606182D01*
X421644Y605594D01*
X422094Y605144D01*
X422682Y604900D01*
X423318D01*
X423906Y605144D01*
X424356Y605594D01*
X424600Y606182D01*
Y606818D01*
X424356Y607406D01*
X423906Y607856D01*
X423318Y608100D01*
D02*
G37*
G36*
X473338Y607580D02*
X472702D01*
X472114Y607337D01*
X471663Y606886D01*
X471420Y606298D01*
Y605662D01*
X471663Y605074D01*
X472114Y604624D01*
X472702Y604380D01*
X473338D01*
X473926Y604624D01*
X474376Y605074D01*
X474620Y605662D01*
Y606298D01*
X474376Y606886D01*
X473926Y607337D01*
X473338Y607580D01*
D02*
G37*
G36*
X390486Y609191D02*
X389514D01*
X388576Y608939D01*
X387734Y608453D01*
X387047Y607766D01*
X386561Y606924D01*
X386310Y605986D01*
Y605014D01*
X386561Y604075D01*
X387047Y603234D01*
X387734Y602547D01*
X388576Y602061D01*
X389514Y601810D01*
X390486D01*
X391424Y602061D01*
X392266Y602547D01*
X392953Y603234D01*
X393439Y604075D01*
X393690Y605014D01*
Y605986D01*
X393439Y606924D01*
X392953Y607766D01*
X392266Y608453D01*
X391424Y608939D01*
X390486Y609191D01*
D02*
G37*
G36*
X330486D02*
X329514D01*
X328575Y608939D01*
X327734Y608453D01*
X327047Y607766D01*
X326561Y606924D01*
X326309Y605986D01*
Y605014D01*
X326561Y604075D01*
X327047Y603234D01*
X327734Y602547D01*
X328575Y602061D01*
X329514Y601810D01*
X330486D01*
X331424Y602061D01*
X332266Y602547D01*
X332953Y603234D01*
X333439Y604075D01*
X333691Y605014D01*
Y605986D01*
X333439Y606924D01*
X332953Y607766D01*
X332266Y608453D01*
X331424Y608939D01*
X330486Y609191D01*
D02*
G37*
G36*
X488877Y602588D02*
X488241D01*
X487653Y602345D01*
X487203Y601895D01*
X486959Y601307D01*
Y600670D01*
X487203Y600082D01*
X487653Y599632D01*
X488241Y599388D01*
X488877D01*
X489465Y599632D01*
X489647Y599814D01*
X490119Y599917D01*
X490276Y599790D01*
X490594Y599473D01*
X491182Y599229D01*
X491818D01*
X492406Y599473D01*
X492856Y599923D01*
X493100Y600511D01*
Y601147D01*
X492856Y601735D01*
X492406Y602185D01*
X491818Y602429D01*
X491182D01*
X490594Y602185D01*
X490412Y602003D01*
X489940Y601900D01*
X489783Y602028D01*
X489465Y602345D01*
X488877Y602588D01*
D02*
G37*
G36*
X527918Y600100D02*
X527082D01*
X526310Y599780D01*
X525720Y599190D01*
X525400Y598418D01*
Y597582D01*
X525720Y596810D01*
X526310Y596220D01*
X527082Y595900D01*
X527918D01*
X528689Y596220D01*
X529280Y596810D01*
X529600Y597582D01*
Y598418D01*
X529280Y599190D01*
X528689Y599780D01*
X527918Y600100D01*
D02*
G37*
G36*
X390486Y599191D02*
X389514D01*
X388576Y598939D01*
X387734Y598453D01*
X387047Y597766D01*
X386561Y596924D01*
X386310Y595986D01*
Y595014D01*
X386561Y594075D01*
X387047Y593234D01*
X387734Y592547D01*
X388576Y592061D01*
X389514Y591810D01*
X390486D01*
X391424Y592061D01*
X392266Y592547D01*
X392953Y593234D01*
X393439Y594075D01*
X393690Y595014D01*
Y595986D01*
X393439Y596924D01*
X392953Y597766D01*
X392266Y598453D01*
X391424Y598939D01*
X390486Y599191D01*
D02*
G37*
G36*
X330486D02*
X329514D01*
X328575Y598939D01*
X327734Y598453D01*
X327047Y597766D01*
X326561Y596924D01*
X326309Y595986D01*
Y595014D01*
X326561Y594075D01*
X327047Y593234D01*
X327734Y592547D01*
X328575Y592061D01*
X329514Y591810D01*
X330486D01*
X331424Y592061D01*
X332266Y592547D01*
X332953Y593234D01*
X333439Y594075D01*
X333691Y595014D01*
Y595986D01*
X333439Y596924D01*
X332953Y597766D01*
X332266Y598453D01*
X331424Y598939D01*
X330486Y599191D01*
D02*
G37*
G36*
X483318Y591600D02*
X482682D01*
X482094Y591356D01*
X481644Y590906D01*
X481400Y590318D01*
Y589682D01*
X481644Y589094D01*
X482094Y588644D01*
X482682Y588400D01*
X483318D01*
X483906Y588644D01*
X484356Y589094D01*
X484600Y589682D01*
Y590318D01*
X484356Y590906D01*
X483906Y591356D01*
X483318Y591600D01*
D02*
G37*
G36*
X475918D02*
X475282D01*
X474694Y591356D01*
X474244Y590906D01*
X474000Y590318D01*
Y589682D01*
X474244Y589094D01*
X474694Y588644D01*
X475282Y588400D01*
X475918D01*
X476506Y588644D01*
X476956Y589094D01*
X477200Y589682D01*
Y590318D01*
X476956Y590906D01*
X476506Y591356D01*
X475918Y591600D01*
D02*
G37*
G36*
X528918Y588100D02*
X528082D01*
X527311Y587780D01*
X526720Y587189D01*
X526400Y586418D01*
Y585582D01*
X526720Y584810D01*
X527311Y584220D01*
X528082Y583900D01*
X528918D01*
X529690Y584220D01*
X530280Y584810D01*
X530600Y585582D01*
Y586418D01*
X530280Y587189D01*
X529690Y587780D01*
X528918Y588100D01*
D02*
G37*
G36*
X436318Y585600D02*
X435682D01*
X435094Y585356D01*
X434644Y584906D01*
X434400Y584318D01*
Y583682D01*
X434644Y583094D01*
X435094Y582644D01*
X435682Y582400D01*
X436318D01*
X436906Y582644D01*
X437356Y583094D01*
X437600Y583682D01*
Y584318D01*
X437356Y584906D01*
X436906Y585356D01*
X436318Y585600D01*
D02*
G37*
G36*
X390486Y589190D02*
X389514D01*
X388576Y588939D01*
X387734Y588453D01*
X387047Y587766D01*
X386561Y586925D01*
X386310Y585986D01*
Y585014D01*
X386561Y584075D01*
X387047Y583234D01*
X387734Y582547D01*
X388576Y582061D01*
X389514Y581810D01*
X390486D01*
X391424Y582061D01*
X392266Y582547D01*
X392953Y583234D01*
X393439Y584075D01*
X393690Y585014D01*
Y585986D01*
X393439Y586925D01*
X392953Y587766D01*
X392266Y588453D01*
X391424Y588939D01*
X390486Y589190D01*
D02*
G37*
G36*
X330486D02*
X329514D01*
X328575Y588939D01*
X327734Y588453D01*
X327047Y587766D01*
X326561Y586925D01*
X326309Y585986D01*
Y585014D01*
X326561Y584075D01*
X327047Y583234D01*
X327734Y582547D01*
X328575Y582061D01*
X329514Y581810D01*
X330486D01*
X331424Y582061D01*
X332266Y582547D01*
X332953Y583234D01*
X333439Y584075D01*
X333691Y585014D01*
Y585986D01*
X333439Y586925D01*
X332953Y587766D01*
X332266Y588453D01*
X331424Y588939D01*
X330486Y589190D01*
D02*
G37*
G36*
X439818Y580600D02*
X439182D01*
X438594Y580356D01*
X438144Y579906D01*
X437900Y579318D01*
Y578682D01*
X438144Y578094D01*
X438594Y577644D01*
X439182Y577400D01*
X439818D01*
X440406Y577644D01*
X440856Y578094D01*
X441100Y578682D01*
Y579318D01*
X440856Y579906D01*
X440406Y580356D01*
X439818Y580600D01*
D02*
G37*
G36*
X488156Y577934D02*
X487519D01*
X486931Y577690D01*
X486481Y577240D01*
X486237Y576652D01*
Y576016D01*
X486481Y575427D01*
X486931Y574977D01*
X487519Y574734D01*
X488156D01*
X488744Y574977D01*
X489194Y575427D01*
X489734Y575424D01*
X489799Y575265D01*
X490249Y574815D01*
X490838Y574571D01*
X491474D01*
X492062Y574815D01*
X492512Y575265D01*
X492756Y575853D01*
Y576489D01*
X492512Y577077D01*
X492062Y577528D01*
X491474Y577771D01*
X490838D01*
X490249Y577528D01*
X489799Y577077D01*
X489260Y577081D01*
X489194Y577240D01*
X488744Y577690D01*
X488156Y577934D01*
D02*
G37*
G36*
X390486Y579190D02*
X389514D01*
X388576Y578939D01*
X387734Y578453D01*
X387047Y577766D01*
X386561Y576925D01*
X386310Y575986D01*
Y575014D01*
X386561Y574076D01*
X387047Y573234D01*
X387734Y572547D01*
X388576Y572061D01*
X389514Y571809D01*
X390486D01*
X391424Y572061D01*
X392266Y572547D01*
X392953Y573234D01*
X393439Y574076D01*
X393690Y575014D01*
Y575986D01*
X393439Y576925D01*
X392953Y577766D01*
X392266Y578453D01*
X391424Y578939D01*
X390486Y579190D01*
D02*
G37*
G36*
X330486D02*
X329514D01*
X328575Y578939D01*
X327734Y578453D01*
X327047Y577766D01*
X326561Y576925D01*
X326309Y575986D01*
Y575014D01*
X326561Y574076D01*
X327047Y573234D01*
X327734Y572547D01*
X328575Y572061D01*
X329514Y571809D01*
X330486D01*
X331424Y572061D01*
X332266Y572547D01*
X332953Y573234D01*
X333439Y574076D01*
X333691Y575014D01*
Y575986D01*
X333439Y576925D01*
X332953Y577766D01*
X332266Y578453D01*
X331424Y578939D01*
X330486Y579190D01*
D02*
G37*
G36*
X432818Y571100D02*
X432182D01*
X431594Y570856D01*
X431144Y570406D01*
X430900Y569818D01*
Y569182D01*
X431144Y568594D01*
X431594Y568144D01*
X432182Y567900D01*
X432818D01*
X433406Y568144D01*
X433856Y568594D01*
X434100Y569182D01*
Y569818D01*
X433856Y570406D01*
X433406Y570856D01*
X432818Y571100D01*
D02*
G37*
G36*
X518818Y570200D02*
X517982D01*
X517210Y569880D01*
X516620Y569289D01*
X516300Y568517D01*
Y567682D01*
X516620Y566910D01*
X517210Y566319D01*
X517982Y566000D01*
X518818D01*
X519590Y566319D01*
X520180Y566910D01*
X520500Y567682D01*
Y568517D01*
X520180Y569289D01*
X519590Y569880D01*
X518818Y570200D01*
D02*
G37*
G36*
X475711Y567630D02*
X475074D01*
X474486Y567387D01*
X474036Y566936D01*
X473793Y566348D01*
Y565712D01*
X474036Y565124D01*
X474486Y564674D01*
X475074Y564430D01*
X475711D01*
X476299Y564674D01*
X476749Y565124D01*
X476993Y565712D01*
Y566348D01*
X476749Y566936D01*
X476299Y567387D01*
X475711Y567630D01*
D02*
G37*
G36*
X488551Y567333D02*
X487914D01*
X487326Y567089D01*
X486876Y566639D01*
X486633Y566051D01*
Y565414D01*
X486876Y564826D01*
X487326Y564376D01*
X487914Y564133D01*
X488551D01*
X489139Y564376D01*
X489589Y564826D01*
X489833Y565414D01*
Y566051D01*
X489589Y566639D01*
X489139Y567089D01*
X488551Y567333D01*
D02*
G37*
G36*
X390486Y569191D02*
X389514D01*
X388576Y568939D01*
X387734Y568453D01*
X387047Y567766D01*
X386561Y566924D01*
X386310Y565986D01*
Y565014D01*
X386561Y564076D01*
X387047Y563234D01*
X387734Y562547D01*
X388576Y562061D01*
X389514Y561809D01*
X390486D01*
X391424Y562061D01*
X392266Y562547D01*
X392953Y563234D01*
X393439Y564076D01*
X393690Y565014D01*
Y565986D01*
X393439Y566924D01*
X392953Y567766D01*
X392266Y568453D01*
X391424Y568939D01*
X390486Y569191D01*
D02*
G37*
G36*
X330486D02*
X329514D01*
X328575Y568939D01*
X327734Y568453D01*
X327047Y567766D01*
X326561Y566924D01*
X326309Y565986D01*
Y565014D01*
X326561Y564076D01*
X327047Y563234D01*
X327734Y562547D01*
X328575Y562061D01*
X329514Y561809D01*
X330486D01*
X331424Y562061D01*
X332266Y562547D01*
X332953Y563234D01*
X333439Y564076D01*
X333691Y565014D01*
Y565986D01*
X333439Y566924D01*
X332953Y567766D01*
X332266Y568453D01*
X331424Y568939D01*
X330486Y569191D01*
D02*
G37*
G36*
X489818Y558600D02*
X489182D01*
X488594Y558356D01*
X488144Y557906D01*
X487900Y557318D01*
Y556682D01*
X488144Y556094D01*
X488594Y555644D01*
X489182Y555400D01*
X489818D01*
X490406Y555644D01*
X490856Y556094D01*
X491100Y556682D01*
Y557318D01*
X490856Y557906D01*
X490406Y558356D01*
X489818Y558600D01*
D02*
G37*
G36*
X390486Y559191D02*
X389514D01*
X388576Y558939D01*
X387734Y558453D01*
X387047Y557766D01*
X386561Y556924D01*
X386310Y555986D01*
Y555014D01*
X386561Y554075D01*
X387047Y553234D01*
X387734Y552547D01*
X388576Y552061D01*
X389514Y551810D01*
X390486D01*
X391424Y552061D01*
X392266Y552547D01*
X392953Y553234D01*
X393439Y554075D01*
X393690Y555014D01*
Y555986D01*
X393439Y556924D01*
X392953Y557766D01*
X392266Y558453D01*
X391424Y558939D01*
X390486Y559191D01*
D02*
G37*
G36*
X330486D02*
X329514D01*
X328575Y558939D01*
X327734Y558453D01*
X327047Y557766D01*
X326561Y556924D01*
X326309Y555986D01*
Y555014D01*
X326561Y554075D01*
X327047Y553234D01*
X327734Y552547D01*
X328575Y552061D01*
X329514Y551810D01*
X330486D01*
X331424Y552061D01*
X332266Y552547D01*
X332953Y553234D01*
X333439Y554075D01*
X333691Y555014D01*
Y555986D01*
X333439Y556924D01*
X332953Y557766D01*
X332266Y558453D01*
X331424Y558939D01*
X330486Y559191D01*
D02*
G37*
G36*
X481318Y551600D02*
X480682D01*
X480094Y551356D01*
X479644Y550906D01*
X479400Y550318D01*
Y549682D01*
X479644Y549094D01*
X480094Y548644D01*
X480682Y548400D01*
X481318D01*
X481906Y548644D01*
X482356Y549094D01*
X482600Y549682D01*
Y550318D01*
X482356Y550906D01*
X481906Y551356D01*
X481318Y551600D01*
D02*
G37*
G36*
X500529Y549861D02*
X499892D01*
X499304Y549617D01*
X498854Y549167D01*
X498610Y548579D01*
Y547942D01*
X498854Y547354D01*
X499304Y546904D01*
X499892Y546661D01*
X500529D01*
X501117Y546904D01*
X501567Y547354D01*
X501811Y547942D01*
Y548579D01*
X501567Y549167D01*
X501117Y549617D01*
X500529Y549861D01*
D02*
G37*
G36*
X556918Y546600D02*
X556282D01*
X555694Y546356D01*
X555244Y545906D01*
X555000Y545318D01*
Y544682D01*
X555244Y544094D01*
X555694Y543644D01*
X556282Y543400D01*
X556918D01*
X557506Y543644D01*
X557956Y544094D01*
X558200Y544682D01*
Y545318D01*
X557956Y545906D01*
X557506Y546356D01*
X556918Y546600D01*
D02*
G37*
G36*
X518003Y546154D02*
X517167D01*
X516396Y545835D01*
X515805Y545244D01*
X515485Y544472D01*
Y543637D01*
X515805Y542865D01*
X516396Y542274D01*
X517167Y541955D01*
X518003D01*
X518775Y542274D01*
X519365Y542865D01*
X519685Y543637D01*
Y544472D01*
X519365Y545244D01*
X518775Y545835D01*
X518003Y546154D01*
D02*
G37*
G36*
X390486Y549191D02*
X389514D01*
X388576Y548939D01*
X387734Y548453D01*
X387047Y547766D01*
X386561Y546924D01*
X386310Y545986D01*
Y545014D01*
X386561Y544075D01*
X387047Y543234D01*
X387734Y542547D01*
X388576Y542061D01*
X389514Y541810D01*
X390486D01*
X391424Y542061D01*
X392266Y542547D01*
X392953Y543234D01*
X393439Y544075D01*
X393690Y545014D01*
Y545986D01*
X393439Y546924D01*
X392953Y547766D01*
X392266Y548453D01*
X391424Y548939D01*
X390486Y549191D01*
D02*
G37*
G36*
X330486D02*
X329514D01*
X328575Y548939D01*
X327734Y548453D01*
X327047Y547766D01*
X326561Y546924D01*
X326309Y545986D01*
Y545014D01*
X326561Y544075D01*
X327047Y543234D01*
X327734Y542547D01*
X328575Y542061D01*
X329514Y541810D01*
X330486D01*
X331424Y542061D01*
X332266Y542547D01*
X332953Y543234D01*
X333439Y544075D01*
X333691Y545014D01*
Y545986D01*
X333439Y546924D01*
X332953Y547766D01*
X332266Y548453D01*
X331424Y548939D01*
X330486Y549191D01*
D02*
G37*
G36*
X573818Y544100D02*
X573182D01*
X572594Y543856D01*
X572144Y543406D01*
X571900Y542818D01*
Y542182D01*
X572144Y541594D01*
X572594Y541144D01*
X573182Y540900D01*
X573818D01*
X574406Y541144D01*
X574856Y541594D01*
X575100Y542182D01*
Y542818D01*
X574856Y543406D01*
X574406Y543856D01*
X573818Y544100D01*
D02*
G37*
G36*
X439818Y541100D02*
X439182D01*
X438594Y540856D01*
X438144Y540406D01*
X437900Y539818D01*
Y539182D01*
X438144Y538594D01*
X438594Y538144D01*
X439182Y537900D01*
X439818D01*
X440406Y538144D01*
X440856Y538594D01*
X441100Y539182D01*
Y539818D01*
X440856Y540406D01*
X440406Y540856D01*
X439818Y541100D01*
D02*
G37*
G36*
X559918Y538600D02*
X559282D01*
X558694Y538356D01*
X558244Y537906D01*
X558000Y537318D01*
Y536682D01*
X558244Y536094D01*
X558694Y535644D01*
X559282Y535400D01*
X559918D01*
X560506Y535644D01*
X560956Y536094D01*
X561200Y536682D01*
Y537318D01*
X560956Y537906D01*
X560506Y538356D01*
X559918Y538600D01*
D02*
G37*
G36*
X552285Y538469D02*
X551648D01*
X551060Y538225D01*
X550610Y537775D01*
X550366Y537187D01*
Y536550D01*
X550610Y535962D01*
X551060Y535512D01*
X551648Y535268D01*
X552285D01*
X552873Y535512D01*
X553323Y535962D01*
X553566Y536550D01*
Y537187D01*
X553323Y537775D01*
X552873Y538225D01*
X552285Y538469D01*
D02*
G37*
G36*
X537778Y538211D02*
X537141D01*
X536553Y537967D01*
X536103Y537517D01*
X535859Y536929D01*
Y536293D01*
X536103Y535705D01*
X536553Y535255D01*
X537141Y535011D01*
X537778D01*
X537900Y534692D01*
Y534682D01*
X538144Y534094D01*
X538594Y533644D01*
X539182Y533400D01*
X539818D01*
X540406Y533644D01*
X540856Y534094D01*
X541100Y534682D01*
Y535318D01*
X540856Y535906D01*
X540406Y536356D01*
X539818Y536600D01*
X539182D01*
X539059Y536919D01*
Y536929D01*
X538816Y537517D01*
X538366Y537967D01*
X537778Y538211D01*
D02*
G37*
G36*
X476373Y536445D02*
X475737D01*
X475149Y536201D01*
X474699Y535751D01*
X474455Y535163D01*
Y534527D01*
X474699Y533939D01*
X475149Y533488D01*
X475737Y533245D01*
X476373D01*
X476962Y533488D01*
X477412Y533939D01*
X477655Y534527D01*
Y535163D01*
X477412Y535751D01*
X476962Y536201D01*
X476373Y536445D01*
D02*
G37*
G36*
X439818Y536100D02*
X439182D01*
X438594Y535856D01*
X438144Y535406D01*
X437900Y534818D01*
Y534182D01*
X438144Y533594D01*
X438594Y533144D01*
X439182Y532900D01*
X439818D01*
X440406Y533144D01*
X440856Y533594D01*
X441100Y534182D01*
Y534818D01*
X440856Y535406D01*
X440406Y535856D01*
X439818Y536100D01*
D02*
G37*
G36*
X390486Y539190D02*
X389514D01*
X388576Y538939D01*
X387734Y538453D01*
X387047Y537766D01*
X386561Y536925D01*
X386310Y535986D01*
Y535014D01*
X386561Y534075D01*
X387047Y533234D01*
X387734Y532547D01*
X388576Y532061D01*
X389514Y531810D01*
X390486D01*
X391424Y532061D01*
X392266Y532547D01*
X392953Y533234D01*
X393439Y534075D01*
X393690Y535014D01*
Y535986D01*
X393439Y536925D01*
X392953Y537766D01*
X392266Y538453D01*
X391424Y538939D01*
X390486Y539190D01*
D02*
G37*
G36*
X330486D02*
X329514D01*
X328575Y538939D01*
X327734Y538453D01*
X327047Y537766D01*
X326561Y536925D01*
X326309Y535986D01*
Y535014D01*
X326561Y534075D01*
X327047Y533234D01*
X327734Y532547D01*
X328575Y532061D01*
X329514Y531810D01*
X330486D01*
X331424Y532061D01*
X332266Y532547D01*
X332953Y533234D01*
X333439Y534075D01*
X333691Y535014D01*
Y535986D01*
X333439Y536925D01*
X332953Y537766D01*
X332266Y538453D01*
X331424Y538939D01*
X330486Y539190D01*
D02*
G37*
G36*
X479468Y533600D02*
X478832D01*
X478244Y533356D01*
X477794Y532906D01*
X477550Y532318D01*
Y531682D01*
X477794Y531094D01*
X478244Y530644D01*
X478832Y530400D01*
X479468D01*
X480056Y530644D01*
X480506Y531094D01*
X480750Y531682D01*
Y532318D01*
X480506Y532906D01*
X480056Y533356D01*
X479468Y533600D01*
D02*
G37*
G36*
X556718Y528600D02*
X556082D01*
X555494Y528356D01*
X555044Y527906D01*
X554800Y527318D01*
Y526682D01*
X555044Y526094D01*
X555494Y525644D01*
X556082Y525400D01*
X556718D01*
X557306Y525644D01*
X557756Y526094D01*
X558000Y526682D01*
Y527318D01*
X557756Y527906D01*
X557306Y528356D01*
X556718Y528600D01*
D02*
G37*
G36*
X432318D02*
X431682D01*
X431094Y528356D01*
X430644Y527906D01*
X430400Y527318D01*
Y526682D01*
X430644Y526094D01*
X431094Y525644D01*
X431682Y525400D01*
X432318D01*
X432906Y525644D01*
X433356Y526094D01*
X433600Y526682D01*
Y527318D01*
X433356Y527906D01*
X432906Y528356D01*
X432318Y528600D01*
D02*
G37*
G36*
X422818D02*
X422182D01*
X421594Y528356D01*
X421144Y527906D01*
X420900Y527318D01*
Y526682D01*
X421144Y526094D01*
X421594Y525644D01*
X422182Y525400D01*
X422818D01*
X423406Y525644D01*
X423856Y526094D01*
X424100Y526682D01*
Y527318D01*
X423856Y527906D01*
X423406Y528356D01*
X422818Y528600D01*
D02*
G37*
G36*
X571733Y526100D02*
X571097D01*
X570509Y525856D01*
X570059Y525406D01*
X569815Y524818D01*
Y524182D01*
X570059Y523594D01*
X570509Y523144D01*
X571097Y522900D01*
X571733D01*
X572321Y523144D01*
X572771Y523594D01*
X573015Y524182D01*
Y524818D01*
X572771Y525406D01*
X572321Y525856D01*
X571733Y526100D01*
D02*
G37*
G36*
X390486Y529190D02*
X389514D01*
X388576Y528939D01*
X387734Y528453D01*
X387047Y527766D01*
X386561Y526925D01*
X386310Y525986D01*
Y525014D01*
X386561Y524076D01*
X387047Y523234D01*
X387734Y522547D01*
X388576Y522061D01*
X389514Y521809D01*
X390486D01*
X391424Y522061D01*
X392266Y522547D01*
X392953Y523234D01*
X393439Y524076D01*
X393690Y525014D01*
Y525986D01*
X393439Y526925D01*
X392953Y527766D01*
X392266Y528453D01*
X391424Y528939D01*
X390486Y529190D01*
D02*
G37*
G36*
X330486D02*
X329514D01*
X328575Y528939D01*
X327734Y528453D01*
X327047Y527766D01*
X326561Y526925D01*
X326309Y525986D01*
Y525014D01*
X326561Y524076D01*
X327047Y523234D01*
X327734Y522547D01*
X328575Y522061D01*
X329514Y521809D01*
X330486D01*
X331424Y522061D01*
X332266Y522547D01*
X332953Y523234D01*
X333439Y524076D01*
X333691Y525014D01*
Y525986D01*
X333439Y526925D01*
X332953Y527766D01*
X332266Y528453D01*
X331424Y528939D01*
X330486Y529190D01*
D02*
G37*
G36*
X500002Y523600D02*
X499366D01*
X498778Y523356D01*
X498327Y522906D01*
X498084Y522318D01*
Y521682D01*
X498327Y521094D01*
X498778Y520644D01*
X499366Y520400D01*
X500002D01*
X500590Y520644D01*
X501040Y521094D01*
X501284Y521682D01*
Y522318D01*
X501040Y522906D01*
X500590Y523356D01*
X500002Y523600D01*
D02*
G37*
G36*
X457818D02*
X457182D01*
X456594Y523356D01*
X456144Y522906D01*
X455900Y522318D01*
Y521682D01*
X456144Y521094D01*
X456594Y520644D01*
X457182Y520400D01*
X457818D01*
X458406Y520644D01*
X458856Y521094D01*
X459100Y521682D01*
Y522318D01*
X458856Y522906D01*
X458406Y523356D01*
X457818Y523600D01*
D02*
G37*
G36*
X479404Y522637D02*
X478768D01*
X478180Y522393D01*
X477730Y521943D01*
X477486Y521355D01*
Y520718D01*
X477730Y520130D01*
X478180Y519680D01*
X478768Y519437D01*
X479404D01*
X479992Y519680D01*
X480442Y520130D01*
X480686Y520718D01*
Y521355D01*
X480442Y521943D01*
X479992Y522393D01*
X479404Y522637D01*
D02*
G37*
G36*
X515618Y519165D02*
X514982D01*
X514394Y518922D01*
X513944Y518472D01*
X513700Y517884D01*
Y517247D01*
X513944Y516659D01*
X514394Y516209D01*
X514982Y515965D01*
X515618D01*
X516206Y516209D01*
X516656Y516659D01*
X516900Y517247D01*
Y517884D01*
X516656Y518472D01*
X516206Y518922D01*
X515618Y519165D01*
D02*
G37*
G36*
X563818Y518600D02*
X563182D01*
X562594Y518356D01*
X562144Y517906D01*
X561900Y517318D01*
Y516682D01*
X562144Y516094D01*
X562594Y515644D01*
X563182Y515400D01*
X563818D01*
X564406Y515644D01*
X564856Y516094D01*
X565100Y516682D01*
Y517318D01*
X564856Y517906D01*
X564406Y518356D01*
X563818Y518600D01*
D02*
G37*
G36*
X508818Y517600D02*
X508182D01*
X507594Y517356D01*
X507144Y516906D01*
X506900Y516318D01*
Y515682D01*
X507144Y515094D01*
X507594Y514644D01*
X508182Y514400D01*
X508818D01*
X509406Y514644D01*
X509856Y515094D01*
X510100Y515682D01*
Y516318D01*
X509856Y516906D01*
X509406Y517356D01*
X508818Y517600D01*
D02*
G37*
G36*
X526946Y518306D02*
X526111D01*
X525339Y517986D01*
X524748Y517395D01*
X524429Y516623D01*
Y515788D01*
X524748Y515016D01*
X525339Y514425D01*
X526111Y514106D01*
X526946D01*
X527718Y514425D01*
X528309Y515016D01*
X528629Y515788D01*
Y516623D01*
X528309Y517395D01*
X527718Y517986D01*
X526946Y518306D01*
D02*
G37*
G36*
X405318Y516100D02*
X404682D01*
X404094Y515856D01*
X403644Y515406D01*
X403400Y514818D01*
Y514182D01*
X403644Y513594D01*
X404094Y513144D01*
X404682Y512900D01*
X405318D01*
X405906Y513144D01*
X406356Y513594D01*
X406600Y514182D01*
Y514818D01*
X406356Y515406D01*
X405906Y515856D01*
X405318Y516100D01*
D02*
G37*
G36*
X390486Y519191D02*
X389514D01*
X388576Y518939D01*
X387734Y518453D01*
X387047Y517766D01*
X386561Y516924D01*
X386310Y515986D01*
Y515014D01*
X386561Y514076D01*
X387047Y513234D01*
X387734Y512547D01*
X388576Y512061D01*
X389514Y511809D01*
X390486D01*
X391424Y512061D01*
X392266Y512547D01*
X392953Y513234D01*
X393439Y514076D01*
X393690Y515014D01*
Y515986D01*
X393439Y516924D01*
X392953Y517766D01*
X392266Y518453D01*
X391424Y518939D01*
X390486Y519191D01*
D02*
G37*
G36*
X330486D02*
X329514D01*
X328575Y518939D01*
X327734Y518453D01*
X327047Y517766D01*
X326561Y516924D01*
X326309Y515986D01*
Y515014D01*
X326561Y514076D01*
X327047Y513234D01*
X327734Y512547D01*
X328575Y512061D01*
X329514Y511809D01*
X330486D01*
X331424Y512061D01*
X332266Y512547D01*
X332953Y513234D01*
X333439Y514076D01*
X333691Y515014D01*
Y515986D01*
X333439Y516924D01*
X332953Y517766D01*
X332266Y518453D01*
X331424Y518939D01*
X330486Y519191D01*
D02*
G37*
G36*
X498718Y514200D02*
X498082D01*
X497494Y513956D01*
X497044Y513506D01*
X496800Y512918D01*
Y512282D01*
X497044Y511694D01*
X497494Y511244D01*
X498082Y511000D01*
X498718D01*
X499306Y511244D01*
X499756Y511694D01*
X500000Y512282D01*
Y512918D01*
X499756Y513506D01*
X499306Y513956D01*
X498718Y514200D01*
D02*
G37*
G36*
X556818Y510600D02*
X556182D01*
X555594Y510356D01*
X555144Y509906D01*
X554900Y509318D01*
Y508682D01*
X555144Y508094D01*
X555594Y507644D01*
X556182Y507400D01*
X556818D01*
X557406Y507644D01*
X557856Y508094D01*
X558100Y508682D01*
Y509318D01*
X557856Y509906D01*
X557406Y510356D01*
X556818Y510600D01*
D02*
G37*
G36*
X404818Y510100D02*
X404182D01*
X403594Y509856D01*
X403144Y509406D01*
X402900Y508818D01*
Y508182D01*
X403144Y507594D01*
X403594Y507144D01*
X404182Y506900D01*
X404818D01*
X405406Y507144D01*
X405856Y507594D01*
X406100Y508182D01*
Y508818D01*
X405856Y509406D01*
X405406Y509856D01*
X404818Y510100D01*
D02*
G37*
G36*
X571818Y508100D02*
X571182D01*
X570594Y507856D01*
X570144Y507406D01*
X569900Y506818D01*
Y506182D01*
X570144Y505594D01*
X570594Y505144D01*
X571182Y504900D01*
X571818D01*
X572406Y505144D01*
X572856Y505594D01*
X573100Y506182D01*
Y506818D01*
X572856Y507406D01*
X572406Y507856D01*
X571818Y508100D01*
D02*
G37*
G36*
X393690Y509191D02*
X386310D01*
Y501810D01*
X393690D01*
Y509191D01*
D02*
G37*
G36*
X491925Y504735D02*
X491288D01*
X490700Y504492D01*
X490250Y504042D01*
X490007Y503453D01*
Y502817D01*
X490250Y502229D01*
X490700Y501779D01*
X491288Y501535D01*
X491925D01*
X492513Y501779D01*
X492963Y502229D01*
X493207Y502817D01*
Y503453D01*
X492963Y504042D01*
X492513Y504492D01*
X491925Y504735D01*
D02*
G37*
G36*
X484855Y503908D02*
X484219D01*
X483631Y503665D01*
X483181Y503215D01*
X482937Y502627D01*
Y501990D01*
X483181Y501402D01*
X483631Y500952D01*
X484219Y500708D01*
X484855D01*
X485443Y500952D01*
X485893Y501402D01*
X486137Y501990D01*
Y502627D01*
X485893Y503215D01*
X485443Y503665D01*
X484855Y503908D01*
D02*
G37*
G36*
X524202Y501486D02*
X523367D01*
X522595Y501166D01*
X522005Y500576D01*
X521685Y499804D01*
Y498969D01*
X522005Y498197D01*
X522595Y497606D01*
X523367Y497286D01*
X524202D01*
X524974Y497606D01*
X525565Y498197D01*
X525885Y498969D01*
Y499804D01*
X525565Y500576D01*
X524974Y501166D01*
X524202Y501486D01*
D02*
G37*
G36*
X405318Y500100D02*
X404682D01*
X404094Y499856D01*
X403644Y499406D01*
X403400Y498818D01*
Y498182D01*
X403644Y497594D01*
X404094Y497144D01*
X404682Y496900D01*
X405318D01*
X405906Y497144D01*
X406356Y497594D01*
X406600Y498182D01*
Y498818D01*
X406356Y499406D01*
X405906Y499856D01*
X405318Y500100D01*
D02*
G37*
G36*
X559818Y499100D02*
X559182D01*
X558594Y498856D01*
X558144Y498406D01*
X557900Y497818D01*
Y497182D01*
X558144Y496594D01*
X558594Y496144D01*
X559182Y495900D01*
X559818D01*
X560406Y496144D01*
X560856Y496594D01*
X561100Y497182D01*
Y497818D01*
X560856Y498406D01*
X560406Y498856D01*
X559818Y499100D01*
D02*
G37*
G36*
X553868Y498862D02*
X553232D01*
X552644Y498618D01*
X552194Y498168D01*
X551950Y497580D01*
Y496944D01*
X552194Y496356D01*
X552644Y495906D01*
X553232Y495662D01*
X553868D01*
X554456Y495906D01*
X554906Y496356D01*
X555150Y496944D01*
Y497580D01*
X554906Y498168D01*
X554456Y498618D01*
X553868Y498862D01*
D02*
G37*
G36*
X330486Y499191D02*
X329514D01*
X328575Y498939D01*
X327734Y498453D01*
X327047Y497766D01*
X326561Y496924D01*
X326309Y495986D01*
Y495014D01*
X326561Y494075D01*
X327047Y493234D01*
X327734Y492547D01*
X328575Y492061D01*
X329514Y491810D01*
X330486D01*
X331424Y492061D01*
X332266Y492547D01*
X332953Y493234D01*
X333439Y494075D01*
X333691Y495014D01*
Y495986D01*
X333439Y496924D01*
X332953Y497766D01*
X332266Y498453D01*
X331424Y498939D01*
X330486Y499191D01*
D02*
G37*
G36*
X485318Y497100D02*
X484682D01*
X484094Y496856D01*
X483644Y496406D01*
X483400Y495818D01*
Y495182D01*
X483644Y494594D01*
X483855Y494383D01*
X483847Y494222D01*
X483702Y493829D01*
X483244Y493639D01*
X482794Y493189D01*
X482550Y492601D01*
Y491964D01*
X482794Y491376D01*
X483244Y490926D01*
X483832Y490683D01*
X484468D01*
X485056Y490926D01*
X485506Y491376D01*
X485750Y491964D01*
Y492601D01*
X485506Y493189D01*
X485295Y493400D01*
X485303Y493561D01*
X485449Y493954D01*
X485906Y494144D01*
X486356Y494594D01*
X486600Y495182D01*
Y495818D01*
X486356Y496406D01*
X485906Y496856D01*
X485318Y497100D01*
D02*
G37*
G36*
X556318Y491600D02*
X555682D01*
X555094Y491356D01*
X554644Y490906D01*
X554400Y490318D01*
Y489682D01*
X554644Y489094D01*
X555094Y488644D01*
X555682Y488400D01*
X556318D01*
X556906Y488644D01*
X557356Y489094D01*
X557600Y489682D01*
Y490318D01*
X557356Y490906D01*
X556906Y491356D01*
X556318Y491600D01*
D02*
G37*
G36*
X460818Y491100D02*
X460182D01*
X459594Y490856D01*
X459144Y490406D01*
X458900Y489818D01*
Y489182D01*
X459144Y488594D01*
X459594Y488144D01*
X460182Y487900D01*
X460818D01*
X461406Y488144D01*
X461856Y488594D01*
X462100Y489182D01*
Y489818D01*
X461856Y490406D01*
X461406Y490856D01*
X460818Y491100D01*
D02*
G37*
G36*
X571818Y489100D02*
X571182D01*
X570594Y488856D01*
X570144Y488406D01*
X569900Y487818D01*
Y487182D01*
X570144Y486594D01*
X570594Y486144D01*
X571182Y485900D01*
X571818D01*
X572406Y486144D01*
X572856Y486594D01*
X573100Y487182D01*
Y487818D01*
X572856Y488406D01*
X572406Y488856D01*
X571818Y489100D01*
D02*
G37*
G36*
X559818Y486629D02*
X559182D01*
X558594Y486385D01*
X558144Y485935D01*
X557900Y485347D01*
Y484711D01*
X558144Y484123D01*
X558594Y483673D01*
X559182Y483429D01*
X559818D01*
X560406Y483673D01*
X560856Y484123D01*
X561100Y484711D01*
Y485347D01*
X560856Y485935D01*
X560406Y486385D01*
X559818Y486629D01*
D02*
G37*
G36*
X394318Y486600D02*
X393682D01*
X393094Y486356D01*
X392644Y485906D01*
X392400Y485318D01*
Y484682D01*
X392644Y484094D01*
X393094Y483644D01*
X393682Y483400D01*
X394318D01*
X394906Y483644D01*
X395356Y484094D01*
X395600Y484682D01*
Y485318D01*
X395356Y485906D01*
X394906Y486356D01*
X394318Y486600D01*
D02*
G37*
G36*
X568818Y486100D02*
X568182D01*
X567594Y485856D01*
X567144Y485406D01*
X566900Y484818D01*
Y484182D01*
X567144Y483594D01*
X567594Y483144D01*
X568182Y482900D01*
X568818D01*
X569406Y483144D01*
X569856Y483594D01*
X570100Y484182D01*
Y484818D01*
X569856Y485406D01*
X569406Y485856D01*
X568818Y486100D01*
D02*
G37*
G36*
X487318D02*
X486682D01*
X486094Y485856D01*
X485644Y485406D01*
X485400Y484818D01*
Y484182D01*
X485644Y483594D01*
X486094Y483144D01*
X486682Y482900D01*
X487318D01*
X487906Y483144D01*
X488356Y483594D01*
X488600Y484182D01*
Y484818D01*
X488356Y485406D01*
X487906Y485856D01*
X487318Y486100D01*
D02*
G37*
G36*
X473318D02*
X472682D01*
X472094Y485856D01*
X471644Y485406D01*
X471400Y484818D01*
Y484182D01*
X471644Y483594D01*
X472094Y483144D01*
X472682Y482900D01*
X473318D01*
X473906Y483144D01*
X474356Y483594D01*
X474600Y484182D01*
Y484818D01*
X474356Y485406D01*
X473906Y485856D01*
X473318Y486100D01*
D02*
G37*
G36*
X400318D02*
X399682D01*
X399094Y485856D01*
X398644Y485406D01*
X398400Y484818D01*
Y484182D01*
X398644Y483594D01*
X399094Y483144D01*
X399682Y482900D01*
X400318D01*
X400906Y483144D01*
X401356Y483594D01*
X401600Y484182D01*
Y484818D01*
X401356Y485406D01*
X400906Y485856D01*
X400318Y486100D01*
D02*
G37*
G36*
X532918Y484600D02*
X532082D01*
X531311Y484280D01*
X530720Y483689D01*
X530400Y482918D01*
Y482082D01*
X530720Y481311D01*
X531311Y480720D01*
X532082Y480400D01*
X532918D01*
X533689Y480720D01*
X534280Y481311D01*
X534600Y482082D01*
Y482918D01*
X534280Y483689D01*
X533689Y484280D01*
X532918Y484600D01*
D02*
G37*
G36*
X433818Y482600D02*
X433182D01*
X432594Y482356D01*
X432144Y481906D01*
X431900Y481318D01*
Y480682D01*
X432144Y480094D01*
X432594Y479644D01*
X433182Y479400D01*
X433818D01*
X434406Y479644D01*
X434856Y480094D01*
X435100Y480682D01*
Y481318D01*
X434856Y481906D01*
X434406Y482356D01*
X433818Y482600D01*
D02*
G37*
G36*
X500818Y480600D02*
X500182D01*
X499594Y480356D01*
X499144Y479906D01*
X498900Y479318D01*
Y478682D01*
X499144Y478094D01*
X499594Y477644D01*
X500182Y477400D01*
X500818D01*
X501406Y477644D01*
X501856Y478094D01*
X502100Y478682D01*
Y479318D01*
X501856Y479906D01*
X501406Y480356D01*
X500818Y480600D01*
D02*
G37*
G36*
X329439Y483273D02*
X328561D01*
X327712Y483046D01*
X326952Y482607D01*
X326330Y481986D01*
X325891Y481225D01*
X325664Y480376D01*
Y479498D01*
X325891Y478649D01*
X326330Y477888D01*
X326952Y477267D01*
X327712Y476828D01*
X328561Y476601D01*
X329439D01*
X330288Y476828D01*
X331048Y477267D01*
X331670Y477888D01*
X332109Y478649D01*
X332336Y479498D01*
Y480376D01*
X332109Y481225D01*
X331670Y481986D01*
X331048Y482607D01*
X330288Y483046D01*
X329439Y483273D01*
D02*
G37*
G36*
X448818Y478100D02*
X448182D01*
X447594Y477856D01*
X447144Y477406D01*
X446900Y476818D01*
Y476182D01*
X447144Y475594D01*
X447594Y475144D01*
X448182Y474900D01*
X448818D01*
X449406Y475144D01*
X449856Y475594D01*
X450100Y476182D01*
Y476818D01*
X449856Y477406D01*
X449406Y477856D01*
X448818Y478100D01*
D02*
G37*
G36*
X378918Y477600D02*
X378082D01*
X377310Y477280D01*
X376720Y476689D01*
X376400Y475918D01*
Y475082D01*
X376720Y474310D01*
X377310Y473720D01*
X378082Y473400D01*
X378918D01*
X379690Y473720D01*
X380280Y474310D01*
X380600Y475082D01*
Y475918D01*
X380280Y476689D01*
X379690Y477280D01*
X378918Y477600D01*
D02*
G37*
G36*
X568818Y474100D02*
X568182D01*
X567594Y473856D01*
X567144Y473406D01*
X566900Y472818D01*
Y472182D01*
X567144Y471594D01*
X567594Y471144D01*
X568182Y470900D01*
X568818D01*
X569406Y471144D01*
X569856Y471594D01*
X570100Y472182D01*
Y472818D01*
X569856Y473406D01*
X569406Y473856D01*
X568818Y474100D01*
D02*
G37*
G36*
X332336Y475399D02*
X325664D01*
Y468727D01*
X332336D01*
Y475399D01*
D02*
G37*
G36*
X556377Y471791D02*
X555740D01*
X555152Y471548D01*
X554702Y471098D01*
X554459Y470510D01*
Y469873D01*
X554702Y469285D01*
X555152Y468835D01*
X555740Y468591D01*
X556377D01*
X556965Y468835D01*
X557415Y469285D01*
X557659Y469873D01*
Y470510D01*
X557415Y471098D01*
X556965Y471548D01*
X556377Y471791D01*
D02*
G37*
G36*
X381918Y470600D02*
X381082D01*
X380310Y470280D01*
X379720Y469690D01*
X379400Y468918D01*
Y468082D01*
X379720Y467310D01*
X380310Y466720D01*
X381082Y466400D01*
X381918D01*
X382690Y466720D01*
X383280Y467310D01*
X383600Y468082D01*
Y468918D01*
X383280Y469690D01*
X382690Y470280D01*
X381918Y470600D01*
D02*
G37*
G36*
X559477Y463100D02*
X558840D01*
X558252Y462856D01*
X557802Y462406D01*
X557559Y461818D01*
Y461182D01*
X557802Y460594D01*
X558252Y460144D01*
X558840Y459900D01*
X559477D01*
X560065Y460144D01*
X560515Y460594D01*
X560759Y461182D01*
Y461818D01*
X560515Y462406D01*
X560065Y462856D01*
X559477Y463100D01*
D02*
G37*
G36*
X554818Y460984D02*
X554182D01*
X553594Y460741D01*
X553144Y460290D01*
X552900Y459702D01*
Y459066D01*
X553144Y458478D01*
X553594Y458028D01*
X554182Y457784D01*
X554818D01*
X555406Y458028D01*
X555856Y458478D01*
X556100Y459066D01*
Y459702D01*
X555856Y460290D01*
X555406Y460741D01*
X554818Y460984D01*
D02*
G37*
G36*
X381918Y460600D02*
X381082D01*
X380310Y460280D01*
X379720Y459690D01*
X379400Y458918D01*
Y458082D01*
X379720Y457310D01*
X380310Y456720D01*
X381082Y456400D01*
X381918D01*
X382690Y456720D01*
X383280Y457310D01*
X383600Y458082D01*
Y458918D01*
X383280Y459690D01*
X382690Y460280D01*
X381918Y460600D01*
D02*
G37*
G36*
X484318Y458600D02*
X483682D01*
X483094Y458356D01*
X482644Y457906D01*
X482400Y457318D01*
Y456682D01*
X482644Y456094D01*
X483094Y455644D01*
X483682Y455400D01*
X484318D01*
X484906Y455644D01*
X485356Y456094D01*
X485600Y456682D01*
Y457318D01*
X485356Y457906D01*
X484906Y458356D01*
X484318Y458600D01*
D02*
G37*
G36*
X525818Y456600D02*
X525182D01*
X524594Y456356D01*
X524144Y455906D01*
X523900Y455318D01*
Y454682D01*
X524144Y454094D01*
X524594Y453644D01*
X525182Y453400D01*
X525818D01*
X526406Y453644D01*
X526856Y454094D01*
X527100Y454682D01*
Y455318D01*
X526856Y455906D01*
X526406Y456356D01*
X525818Y456600D01*
D02*
G37*
G36*
X569130Y456247D02*
X568494D01*
X567906Y456004D01*
X567456Y455553D01*
X567212Y454965D01*
Y454329D01*
X567456Y453741D01*
X567906Y453291D01*
X568494Y453047D01*
X569130D01*
X569718Y453291D01*
X570168Y453741D01*
X570412Y454329D01*
Y454965D01*
X570168Y455553D01*
X569718Y456004D01*
X569130Y456247D01*
D02*
G37*
G36*
X491318Y456100D02*
X490682D01*
X490094Y455856D01*
X489644Y455406D01*
X489400Y454818D01*
Y454182D01*
X489644Y453594D01*
X490094Y453144D01*
X490682Y452900D01*
X491318D01*
X491906Y453144D01*
X492356Y453594D01*
X492600Y454182D01*
Y454818D01*
X492356Y455406D01*
X491906Y455856D01*
X491318Y456100D01*
D02*
G37*
G36*
X472318Y450100D02*
X471682D01*
X471094Y449856D01*
X470644Y449406D01*
X470400Y448818D01*
Y448182D01*
X470644Y447594D01*
X471094Y447144D01*
X471682Y446900D01*
X472318D01*
X472906Y447144D01*
X473356Y447594D01*
X473600Y448182D01*
Y448818D01*
X473356Y449406D01*
X472906Y449856D01*
X472318Y450100D01*
D02*
G37*
%LPD*%
G36*
X474500Y684500D02*
X415500D01*
Y704000D01*
X427737D01*
X428094Y703644D01*
X428682Y703400D01*
X429318D01*
X429906Y703644D01*
X430263Y704000D01*
X474500D01*
Y684500D01*
D02*
G37*
G36*
X441973Y628527D02*
X442163Y628068D01*
X451465Y618766D01*
X451804Y618325D01*
X452000Y617850D01*
X452073Y617299D01*
Y555142D01*
X452000Y554591D01*
X451804Y554116D01*
X451465Y553675D01*
X440925Y543135D01*
X440484Y542796D01*
X440009Y542600D01*
X439500Y542533D01*
X438991Y542600D01*
X438516Y542796D01*
X438109Y543109D01*
X437796Y543516D01*
X437600Y543991D01*
X437533Y544500D01*
X437600Y545009D01*
X437796Y545484D01*
X438135Y545925D01*
X447937Y555727D01*
X448127Y556186D01*
Y616255D01*
X447937Y616714D01*
X441821Y622829D01*
X441760Y622855D01*
X441723Y622910D01*
X441537Y622947D01*
X441362Y623020D01*
X440950Y623297D01*
Y623318D01*
X440706Y623906D01*
X440256Y624356D01*
X439668Y624600D01*
X439647D01*
X439370Y625012D01*
X439297Y625187D01*
X439260Y625373D01*
X439205Y625410D01*
X439180Y625471D01*
X438635Y626016D01*
X438296Y626458D01*
X438145Y626823D01*
X438122Y626846D01*
X438119Y626877D01*
X437949Y627018D01*
X437793Y627175D01*
X437563Y627593D01*
X437600Y627682D01*
Y628318D01*
X437374Y628864D01*
X437668Y629011D01*
X437738Y629092D01*
X437837Y629133D01*
X437895Y629273D01*
X437994Y629387D01*
X437986Y629494D01*
X438027Y629592D01*
Y654000D01*
X441973D01*
Y628527D01*
D02*
G37*
%LPC*%
G36*
X439318Y699100D02*
X438682D01*
X438094Y698856D01*
X437644Y698406D01*
X437400Y697818D01*
Y697182D01*
X437644Y696594D01*
X438094Y696144D01*
X438682Y695900D01*
X439318D01*
X439906Y696144D01*
X440356Y696594D01*
X440600Y697182D01*
Y697818D01*
X440356Y698406D01*
X439906Y698856D01*
X439318Y699100D01*
D02*
G37*
%LPD*%
D52*
X390000Y725500D02*
D03*
Y715500D02*
D03*
Y705500D02*
D03*
Y695500D02*
D03*
Y685500D02*
D03*
Y675500D02*
D03*
Y665500D02*
D03*
Y655500D02*
D03*
Y645500D02*
D03*
Y495500D02*
D03*
X330000Y525500D02*
D03*
Y535500D02*
D03*
Y545500D02*
D03*
Y555500D02*
D03*
Y565500D02*
D03*
Y575500D02*
D03*
Y585500D02*
D03*
Y595500D02*
D03*
Y605500D02*
D03*
Y615500D02*
D03*
Y625500D02*
D03*
Y635500D02*
D03*
Y515500D02*
D03*
Y505500D02*
D03*
Y495500D02*
D03*
Y645500D02*
D03*
Y655500D02*
D03*
Y665500D02*
D03*
Y675500D02*
D03*
Y685500D02*
D03*
Y695500D02*
D03*
Y705500D02*
D03*
Y715500D02*
D03*
Y725500D02*
D03*
X390000Y635500D02*
D03*
Y625500D02*
D03*
Y615500D02*
D03*
Y605500D02*
D03*
Y595500D02*
D03*
Y585500D02*
D03*
Y575500D02*
D03*
Y565500D02*
D03*
Y555500D02*
D03*
Y545500D02*
D03*
Y535500D02*
D03*
Y525500D02*
D03*
Y515500D02*
D03*
D53*
Y505500D02*
D03*
D54*
X329000Y479937D02*
D03*
D55*
Y472063D02*
D03*
D59*
X438400Y687900D02*
X439000Y688500D01*
X450100Y555100D02*
Y617341D01*
X440000Y627441D02*
Y659650D01*
X438400Y661250D02*
X440000Y659650D01*
X439500Y544500D02*
X450100Y555100D01*
X440000Y627441D02*
X450100Y617341D01*
X438400Y661250D02*
Y687900D01*
D60*
X446673Y724000D02*
D03*
X418327D02*
D03*
D62*
X536700Y640900D02*
D03*
X527500Y598000D02*
D03*
X535358Y658694D02*
D03*
X523785Y499386D02*
D03*
X532500Y482500D02*
D03*
X526529Y516206D02*
D03*
X517585Y544055D02*
D03*
X518400Y568100D02*
D03*
X536700Y621000D02*
D03*
X536188Y697941D02*
D03*
X535500Y678189D02*
D03*
X534000Y716000D02*
D03*
X568000Y659000D02*
D03*
X378500Y475500D02*
D03*
X569400Y677500D02*
D03*
Y695500D02*
D03*
X381500Y468500D02*
D03*
Y458500D02*
D03*
X528500Y586000D02*
D03*
X560500Y640000D02*
D03*
D63*
X556000Y704000D02*
D03*
X569500Y716500D02*
D03*
X448500Y476500D02*
D03*
X423000Y606500D02*
D03*
X569000Y460000D02*
D03*
X484000Y457000D02*
D03*
X484537Y502308D02*
D03*
X492809Y497309D02*
D03*
X485000Y495500D02*
D03*
X488233Y565733D02*
D03*
X485109Y574861D02*
D03*
X559600Y537000D02*
D03*
X559500Y485029D02*
D03*
X553550Y497262D02*
D03*
X556000Y490000D02*
D03*
X556059Y470191D02*
D03*
X422500Y527000D02*
D03*
X435850Y658000D02*
D03*
X570500Y673500D02*
D03*
X570000Y668000D02*
D03*
X568500Y704000D02*
D03*
X485509Y527139D02*
D03*
X476055Y534845D02*
D03*
X479150Y532000D02*
D03*
X487000Y484500D02*
D03*
X500500Y479000D02*
D03*
X484150Y492283D02*
D03*
X483000Y479500D02*
D03*
X554500Y459384D02*
D03*
X568812Y454647D02*
D03*
X525500Y455000D02*
D03*
X483425Y451999D02*
D03*
X436000Y584000D02*
D03*
X432500Y569500D02*
D03*
X436000Y628000D02*
D03*
X439350Y623000D02*
D03*
X563500Y517000D02*
D03*
X551966Y536868D02*
D03*
X556400Y527000D02*
D03*
X556500Y729850D02*
D03*
X491607Y503135D02*
D03*
X559159Y461500D02*
D03*
X571500Y704954D02*
D03*
X573100Y688894D02*
D03*
X569110Y724000D02*
D03*
X399559Y465724D02*
D03*
X394441Y456669D02*
D03*
X399559Y456669D02*
D03*
Y461000D02*
D03*
X394441Y465724D02*
D03*
Y461000D02*
D03*
X423059Y505724D02*
D03*
X417941Y496669D02*
D03*
X423059Y496669D02*
D03*
Y501000D02*
D03*
X417941Y505724D02*
D03*
Y501000D02*
D03*
X508500Y516000D02*
D03*
X515300Y517565D02*
D03*
X498400Y512600D02*
D03*
X504200Y511173D02*
D03*
X539500Y535000D02*
D03*
X537459Y536611D02*
D03*
X499684Y522000D02*
D03*
X479086Y521037D02*
D03*
X556500Y723500D02*
D03*
X569400Y650500D02*
D03*
X572500Y643500D02*
D03*
X565500Y632088D02*
D03*
X571300Y632000D02*
D03*
X556600Y545000D02*
D03*
X508382Y559882D02*
D03*
X500211Y548261D02*
D03*
X573500Y547500D02*
D03*
Y542500D02*
D03*
X505000Y598000D02*
D03*
X473000Y506500D02*
D03*
X485200Y549500D02*
D03*
X481000Y550000D02*
D03*
X484575Y609220D02*
D03*
X473020Y605980D02*
D03*
X475600Y590000D02*
D03*
X475392Y566030D02*
D03*
X488134Y572366D02*
D03*
X483000Y590000D02*
D03*
X571500Y492500D02*
D03*
X568500Y484500D02*
D03*
Y472500D02*
D03*
X571400Y471837D02*
D03*
X473600Y625000D02*
D03*
X480990Y628967D02*
D03*
X439500Y579000D02*
D03*
X472400Y686500D02*
D03*
X482600Y640000D02*
D03*
X482000Y608861D02*
D03*
X485004Y598504D02*
D03*
X491500Y600829D02*
D03*
Y625000D02*
D03*
X484000Y671000D02*
D03*
X473000Y484500D02*
D03*
X472000Y459000D02*
D03*
Y448500D02*
D03*
X488600Y698283D02*
D03*
X486000D02*
D03*
X491500Y722500D02*
D03*
X488000D02*
D03*
X484500Y720500D02*
D03*
X491233Y698283D02*
D03*
X423500Y645000D02*
D03*
X566000Y723330D02*
D03*
X418000Y527000D02*
D03*
X432000D02*
D03*
X450100Y589000D02*
D03*
X457500Y522000D02*
D03*
X556500Y509000D02*
D03*
X394000Y485000D02*
D03*
X433500Y481000D02*
D03*
X475000Y522000D02*
D03*
X491000Y454500D02*
D03*
X400000Y484500D02*
D03*
X382000Y453500D02*
D03*
X362500Y457500D02*
D03*
X381500Y463500D02*
D03*
X385500Y485500D02*
D03*
X404500Y503500D02*
D03*
X407500Y484500D02*
D03*
X404500Y493000D02*
D03*
X415500Y475000D02*
D03*
X448000Y449000D02*
D03*
X459000Y486500D02*
D03*
X409500Y525500D02*
D03*
X442000Y516000D02*
D03*
X439500Y569500D02*
D03*
X440000Y614000D02*
D03*
X411500Y702000D02*
D03*
X488000Y620000D02*
D03*
X489000Y649500D02*
D03*
X565500Y687500D02*
D03*
X571500Y529500D02*
D03*
X572000Y511500D02*
D03*
X559500Y497500D02*
D03*
X405000Y498500D02*
D03*
X404500Y508500D02*
D03*
X405000Y514500D02*
D03*
X439500Y534500D02*
D03*
Y539500D02*
D03*
Y544500D02*
D03*
X440000Y633000D02*
D03*
X427500Y691000D02*
D03*
X429000Y705000D02*
D03*
Y698500D02*
D03*
X439000Y688500D02*
D03*
Y697500D02*
D03*
X419500Y702000D02*
D03*
X488000Y673626D02*
D03*
X491500D02*
D03*
X486400Y649500D02*
D03*
X491600D02*
D03*
X488338Y625334D02*
D03*
X488559Y600988D02*
D03*
X487838Y576334D02*
D03*
X491156Y576171D02*
D03*
X489500Y557000D02*
D03*
X571500Y487500D02*
D03*
Y506500D02*
D03*
X571415Y524500D02*
D03*
X556000Y632000D02*
D03*
Y650000D02*
D03*
X556500Y668000D02*
D03*
X556000Y687500D02*
D03*
X460500Y489500D02*
D03*
D64*
X443000Y674500D02*
D03*
M02*
