G04*
G04 #@! TF.GenerationSoftware,Altium Limited,Altium Designer,23.5.1 (21)*
G04*
G04 Layer_Color=8421504*
%FSLAX25Y25*%
%MOIN*%
G70*
G04*
G04 #@! TF.SameCoordinates,62E66B6F-0332-4FDC-AC1A-6E2C05ECB38F*
G04*
G04*
G04 #@! TF.FilePolarity,Positive*
G04*
G01*
G75*
%ADD16R,0.05800X0.04400*%
%ADD17R,0.05764X0.01624*%
%ADD18R,0.04921X0.01181*%
%ADD19R,0.11811X0.07874*%
%ADD20R,0.04400X0.05800*%
%ADD21R,0.05906X0.02362*%
G04:AMPARAMS|DCode=22|XSize=94.49mil|YSize=122.05mil|CornerRadius=1.89mil|HoleSize=0mil|Usage=FLASHONLY|Rotation=180.000|XOffset=0mil|YOffset=0mil|HoleType=Round|Shape=RoundedRectangle|*
%AMROUNDEDRECTD22*
21,1,0.09449,0.11827,0,0,180.0*
21,1,0.09071,0.12205,0,0,180.0*
1,1,0.00378,-0.04535,0.05913*
1,1,0.00378,0.04535,0.05913*
1,1,0.00378,0.04535,-0.05913*
1,1,0.00378,-0.04535,-0.05913*
%
%ADD22ROUNDEDRECTD22*%
G04:AMPARAMS|DCode=23|XSize=23.62mil|YSize=57.09mil|CornerRadius=2.01mil|HoleSize=0mil|Usage=FLASHONLY|Rotation=270.000|XOffset=0mil|YOffset=0mil|HoleType=Round|Shape=RoundedRectangle|*
%AMROUNDEDRECTD23*
21,1,0.02362,0.05307,0,0,270.0*
21,1,0.01961,0.05709,0,0,270.0*
1,1,0.00402,-0.02653,-0.00980*
1,1,0.00402,-0.02653,0.00980*
1,1,0.00402,0.02653,0.00980*
1,1,0.00402,0.02653,-0.00980*
%
%ADD23ROUNDEDRECTD23*%
%ADD24R,0.03543X0.02756*%
%ADD25R,0.03937X0.03937*%
%ADD26R,0.06693X0.08465*%
%ADD27R,0.06890X0.03740*%
%ADD28R,0.06890X0.12598*%
%ADD29R,0.02559X0.03543*%
%ADD30R,0.05512X0.05472*%
%ADD31R,0.19134X0.13228*%
%ADD32R,0.08268X0.07087*%
%ADD33R,0.05118X0.06693*%
%ADD34R,0.03701X0.02126*%
%ADD35R,0.03937X0.03937*%
%ADD36R,0.07890X0.06510*%
G36*
X332347Y468716D02*
Y475410D01*
X325654D01*
X325654Y473579D01*
X325644Y473479D01*
X325567Y473294D01*
X325426Y473153D01*
X325242Y473077D01*
X325142Y473067D01*
X325142D01*
X321244D01*
Y471059D01*
X325142Y471059D01*
X325242Y471049D01*
X325426Y470973D01*
X325567Y470832D01*
X325644Y470647D01*
X325654Y470547D01*
X325654D01*
Y468716D01*
X332347D01*
D02*
G37*
G36*
X325654Y483284D02*
Y476590D01*
X332347D01*
Y478421D01*
X332356Y478521D01*
X332433Y478706D01*
X332574Y478847D01*
X332758Y478923D01*
X332858Y478933D01*
D01*
X336756D01*
Y480941D01*
X332858D01*
X332758Y480951D01*
X332574Y481027D01*
X332433Y481168D01*
X332356Y481353D01*
X332347Y481453D01*
X332347Y481453D01*
Y483284D01*
X325654D01*
D02*
G37*
D16*
X539500Y654800D02*
D03*
Y647600D02*
D03*
Y691200D02*
D03*
Y684000D02*
D03*
X517000Y694536D02*
D03*
Y701736D02*
D03*
X518000Y597000D02*
D03*
Y604200D02*
D03*
X517000Y499627D02*
D03*
Y506827D02*
D03*
X539500Y475600D02*
D03*
Y468400D02*
D03*
Y547600D02*
D03*
Y540400D02*
D03*
Y727100D02*
D03*
Y719900D02*
D03*
X517000Y650409D02*
D03*
Y643209D02*
D03*
Y548354D02*
D03*
Y555554D02*
D03*
Y450900D02*
D03*
Y458100D02*
D03*
X539500Y511600D02*
D03*
Y504400D02*
D03*
X431500Y634500D02*
D03*
Y641700D02*
D03*
X435000Y598400D02*
D03*
Y605600D02*
D03*
X539500Y709400D02*
D03*
Y702200D02*
D03*
X517000Y670173D02*
D03*
Y677373D02*
D03*
X539500Y636600D02*
D03*
Y629400D02*
D03*
X517000Y572718D02*
D03*
Y579918D02*
D03*
Y475264D02*
D03*
Y482464D02*
D03*
X539500Y493700D02*
D03*
Y486500D02*
D03*
X434000Y557900D02*
D03*
Y565100D02*
D03*
X517000Y718900D02*
D03*
Y726100D02*
D03*
Y621445D02*
D03*
Y628645D02*
D03*
X539500Y673000D02*
D03*
Y665800D02*
D03*
X517000Y523991D02*
D03*
Y531191D02*
D03*
X539500Y450900D02*
D03*
Y458100D02*
D03*
Y529600D02*
D03*
Y522400D02*
D03*
X550000Y690900D02*
D03*
Y683700D02*
D03*
X506500Y694536D02*
D03*
Y701736D02*
D03*
X510500Y596900D02*
D03*
Y604100D02*
D03*
X506500Y499627D02*
D03*
Y506827D02*
D03*
X550000Y475600D02*
D03*
Y468400D02*
D03*
Y547876D02*
D03*
Y540676D02*
D03*
Y654700D02*
D03*
Y647500D02*
D03*
Y727100D02*
D03*
Y719900D02*
D03*
X506500Y650409D02*
D03*
Y643209D02*
D03*
X509000Y548400D02*
D03*
Y555600D02*
D03*
X506500Y450900D02*
D03*
Y458100D02*
D03*
X550000Y511600D02*
D03*
Y504400D02*
D03*
Y709000D02*
D03*
Y701800D02*
D03*
X506500Y670173D02*
D03*
Y677373D02*
D03*
X550000Y636600D02*
D03*
Y629400D02*
D03*
X509500Y572400D02*
D03*
Y579600D02*
D03*
X506500Y475264D02*
D03*
Y482464D02*
D03*
X550000Y493600D02*
D03*
Y486400D02*
D03*
X506500Y718900D02*
D03*
Y726100D02*
D03*
X510000Y621400D02*
D03*
Y628600D02*
D03*
X550000Y672800D02*
D03*
Y665600D02*
D03*
X510000Y523900D02*
D03*
Y531100D02*
D03*
X550000Y450900D02*
D03*
Y458100D02*
D03*
Y530100D02*
D03*
Y522900D02*
D03*
D17*
X567229Y457059D02*
D03*
Y451941D02*
D03*
X560771D02*
D03*
Y454500D02*
D03*
Y457059D02*
D03*
X489271Y451941D02*
D03*
Y457059D02*
D03*
X495729D02*
D03*
Y454500D02*
D03*
Y451941D02*
D03*
X567229Y547559D02*
D03*
Y542441D02*
D03*
X560771D02*
D03*
Y545000D02*
D03*
Y547559D02*
D03*
X567229Y690059D02*
D03*
Y684941D02*
D03*
X560771D02*
D03*
Y687500D02*
D03*
Y690059D02*
D03*
X489271Y695577D02*
D03*
Y700695D02*
D03*
X495729D02*
D03*
Y698136D02*
D03*
Y695577D02*
D03*
X489271Y598123D02*
D03*
Y603241D02*
D03*
X495729D02*
D03*
Y600682D02*
D03*
Y598123D02*
D03*
X489271Y500668D02*
D03*
Y505786D02*
D03*
X495729D02*
D03*
Y503227D02*
D03*
Y500668D02*
D03*
X567229Y475000D02*
D03*
Y469882D02*
D03*
X560771D02*
D03*
Y472441D02*
D03*
Y475000D02*
D03*
X567229Y652559D02*
D03*
Y647441D02*
D03*
X560771D02*
D03*
Y650000D02*
D03*
Y652559D02*
D03*
X567229Y726059D02*
D03*
Y720941D02*
D03*
X560771D02*
D03*
Y723500D02*
D03*
Y726059D02*
D03*
X489271Y646850D02*
D03*
Y651968D02*
D03*
X495729D02*
D03*
Y649409D02*
D03*
Y646850D02*
D03*
X489271Y549396D02*
D03*
Y554514D02*
D03*
X495729D02*
D03*
Y551955D02*
D03*
Y549396D02*
D03*
X567229Y511500D02*
D03*
Y506382D02*
D03*
X560771D02*
D03*
Y508941D02*
D03*
Y511500D02*
D03*
X567229Y706559D02*
D03*
Y701441D02*
D03*
X560771D02*
D03*
Y704000D02*
D03*
Y706559D02*
D03*
X489271Y671214D02*
D03*
Y676332D02*
D03*
X495729D02*
D03*
Y673773D02*
D03*
Y671214D02*
D03*
X567229Y634500D02*
D03*
Y629382D02*
D03*
X560771D02*
D03*
Y631941D02*
D03*
Y634500D02*
D03*
X489271Y573759D02*
D03*
Y578877D02*
D03*
X495729D02*
D03*
Y576318D02*
D03*
Y573759D02*
D03*
X489271Y476305D02*
D03*
Y481423D02*
D03*
X495729D02*
D03*
Y478864D02*
D03*
Y476305D02*
D03*
X567229Y492559D02*
D03*
Y487441D02*
D03*
X560771D02*
D03*
Y490000D02*
D03*
Y492559D02*
D03*
X489271Y719941D02*
D03*
Y725059D02*
D03*
X495729D02*
D03*
Y722500D02*
D03*
Y719941D02*
D03*
X489271Y622486D02*
D03*
Y627604D02*
D03*
X495729D02*
D03*
Y625045D02*
D03*
Y622486D02*
D03*
X567229Y670618D02*
D03*
Y665500D02*
D03*
X560771D02*
D03*
Y668059D02*
D03*
Y670618D02*
D03*
X489271Y525032D02*
D03*
Y530150D02*
D03*
X495729D02*
D03*
Y527591D02*
D03*
Y525032D02*
D03*
X567229Y529559D02*
D03*
Y524441D02*
D03*
X560771D02*
D03*
Y527000D02*
D03*
Y529559D02*
D03*
X470271Y451441D02*
D03*
Y456559D02*
D03*
X476729D02*
D03*
Y454000D02*
D03*
Y451441D02*
D03*
D18*
X543500Y565536D02*
D03*
Y567504D02*
D03*
Y569473D02*
D03*
Y571441D02*
D03*
Y573410D02*
D03*
Y575378D02*
D03*
Y577347D02*
D03*
Y579315D02*
D03*
Y581284D02*
D03*
Y583252D02*
D03*
Y585221D02*
D03*
Y587189D02*
D03*
Y589158D02*
D03*
Y591126D02*
D03*
Y593095D02*
D03*
Y595063D02*
D03*
Y597032D02*
D03*
Y599000D02*
D03*
Y600969D02*
D03*
Y602937D02*
D03*
Y604906D02*
D03*
Y606874D02*
D03*
Y608843D02*
D03*
Y610811D02*
D03*
D19*
X552653Y617465D02*
D03*
Y558882D02*
D03*
D20*
X477600Y467000D02*
D03*
X470400D02*
D03*
X470300Y477500D02*
D03*
X477500D02*
D03*
D21*
X444370Y623000D02*
D03*
Y628000D02*
D03*
Y633000D02*
D03*
Y638000D02*
D03*
Y643000D02*
D03*
Y648000D02*
D03*
Y653000D02*
D03*
Y658000D02*
D03*
X465630D02*
D03*
Y653000D02*
D03*
Y648000D02*
D03*
Y643000D02*
D03*
Y638000D02*
D03*
Y633000D02*
D03*
Y628000D02*
D03*
Y623000D02*
D03*
X444870Y579000D02*
D03*
Y584000D02*
D03*
Y589000D02*
D03*
Y594000D02*
D03*
Y599000D02*
D03*
Y604000D02*
D03*
Y609000D02*
D03*
Y614000D02*
D03*
X466130D02*
D03*
Y609000D02*
D03*
Y604000D02*
D03*
Y599000D02*
D03*
Y594000D02*
D03*
Y589000D02*
D03*
Y584000D02*
D03*
Y579000D02*
D03*
X444740Y534500D02*
D03*
Y539500D02*
D03*
Y544500D02*
D03*
Y549500D02*
D03*
Y554500D02*
D03*
Y559500D02*
D03*
Y564500D02*
D03*
Y569500D02*
D03*
X466000D02*
D03*
Y564500D02*
D03*
Y559500D02*
D03*
Y554500D02*
D03*
Y549500D02*
D03*
Y544500D02*
D03*
Y539500D02*
D03*
Y534500D02*
D03*
D22*
X397000Y461000D02*
D03*
X420500Y501000D02*
D03*
D23*
X407728Y453500D02*
D03*
Y458500D02*
D03*
Y463500D02*
D03*
Y468500D02*
D03*
X386272Y453500D02*
D03*
Y458500D02*
D03*
Y463500D02*
D03*
Y468500D02*
D03*
X431228Y493500D02*
D03*
Y498500D02*
D03*
Y503500D02*
D03*
Y508500D02*
D03*
X409772Y493500D02*
D03*
Y498500D02*
D03*
Y503500D02*
D03*
Y508500D02*
D03*
D24*
X418000Y514744D02*
D03*
Y521256D02*
D03*
X408000Y474744D02*
D03*
Y481256D02*
D03*
X401000Y481256D02*
D03*
Y474744D02*
D03*
X425000Y521000D02*
D03*
Y514488D02*
D03*
D25*
X419500Y698000D02*
D03*
X411500D02*
D03*
X441500Y511500D02*
D03*
Y505776D02*
D03*
X432000Y520862D02*
D03*
Y515138D02*
D03*
X409500Y514638D02*
D03*
Y520362D02*
D03*
X441500Y498862D02*
D03*
Y493138D02*
D03*
X393500Y480862D02*
D03*
Y475138D02*
D03*
X416000Y458862D02*
D03*
Y453138D02*
D03*
Y465138D02*
D03*
Y470862D02*
D03*
X385500Y475276D02*
D03*
Y481000D02*
D03*
D26*
X459500Y514449D02*
D03*
Y495551D02*
D03*
X432000Y474449D02*
D03*
Y455551D02*
D03*
D27*
X444197Y697055D02*
D03*
Y688000D02*
D03*
Y678945D02*
D03*
D28*
X469000Y688000D02*
D03*
D29*
X337854Y466500D02*
D03*
X332146D02*
D03*
D30*
X349323Y470378D02*
D03*
Y477622D02*
D03*
D31*
X365000Y474000D02*
D03*
D32*
X352339Y456000D02*
D03*
X369661D02*
D03*
D33*
X432500Y690815D02*
D03*
Y680185D02*
D03*
D34*
X433000Y698701D02*
D03*
Y705000D02*
D03*
D35*
X480862Y518000D02*
D03*
X475138D02*
D03*
D36*
X478500Y496500D02*
D03*
Y508117D02*
D03*
X451500Y467117D02*
D03*
Y455500D02*
D03*
M02*
