G04*
G04 #@! TF.GenerationSoftware,Altium Limited,Altium Designer,23.5.1 (21)*
G04*
G04 Layer_Color=65535*
%FSLAX25Y25*%
%MOIN*%
G70*
G04*
G04 #@! TF.SameCoordinates,62E66B6F-0332-4FDC-AC1A-6E2C05ECB38F*
G04*
G04*
G04 #@! TF.FilePolarity,Positive*
G04*
G01*
G75*
%ADD10C,0.00600*%
%ADD11C,0.00984*%
%ADD12C,0.00591*%
%ADD13C,0.01000*%
%ADD14C,0.00787*%
%ADD15C,0.00500*%
G36*
X543077Y563937D02*
X542077Y561937D01*
X544077D01*
X543077Y563937D01*
D01*
D02*
G37*
D10*
X539800Y660300D02*
G03*
X539800Y660300I-300J0D01*
G01*
X483400Y467000D02*
G03*
X483400Y467000I-300J0D01*
G01*
X539800Y696700D02*
G03*
X539800Y696700I-300J0D01*
G01*
X517300Y689036D02*
G03*
X517300Y689036I-300J0D01*
G01*
X518300Y591500D02*
G03*
X518300Y591500I-300J0D01*
G01*
X517300Y494127D02*
G03*
X517300Y494127I-300J0D01*
G01*
X539800Y481100D02*
G03*
X539800Y481100I-300J0D01*
G01*
Y553100D02*
G03*
X539800Y553100I-300J0D01*
G01*
Y732600D02*
G03*
X539800Y732600I-300J0D01*
G01*
X517300Y655909D02*
G03*
X517300Y655909I-300J0D01*
G01*
Y542854D02*
G03*
X517300Y542854I-300J0D01*
G01*
Y445400D02*
G03*
X517300Y445400I-300J0D01*
G01*
X539800Y517100D02*
G03*
X539800Y517100I-300J0D01*
G01*
X431800Y629000D02*
G03*
X431800Y629000I-300J0D01*
G01*
X435300Y592900D02*
G03*
X435300Y592900I-300J0D01*
G01*
X539800Y714900D02*
G03*
X539800Y714900I-300J0D01*
G01*
X517300Y664673D02*
G03*
X517300Y664673I-300J0D01*
G01*
X539800Y642100D02*
G03*
X539800Y642100I-300J0D01*
G01*
X517300Y567218D02*
G03*
X517300Y567218I-300J0D01*
G01*
Y469764D02*
G03*
X517300Y469764I-300J0D01*
G01*
X539800Y499200D02*
G03*
X539800Y499200I-300J0D01*
G01*
X434300Y552400D02*
G03*
X434300Y552400I-300J0D01*
G01*
X517300Y713400D02*
G03*
X517300Y713400I-300J0D01*
G01*
Y615945D02*
G03*
X517300Y615945I-300J0D01*
G01*
X539800Y678500D02*
G03*
X539800Y678500I-300J0D01*
G01*
X517300Y518491D02*
G03*
X517300Y518491I-300J0D01*
G01*
X539800Y445400D02*
G03*
X539800Y445400I-300J0D01*
G01*
Y535100D02*
G03*
X539800Y535100I-300J0D01*
G01*
X465100Y477500D02*
G03*
X465100Y477500I-300J0D01*
G01*
X550300Y696400D02*
G03*
X550300Y696400I-300J0D01*
G01*
X506800Y689036D02*
G03*
X506800Y689036I-300J0D01*
G01*
X510800Y591400D02*
G03*
X510800Y591400I-300J0D01*
G01*
X506800Y494127D02*
G03*
X506800Y494127I-300J0D01*
G01*
X550300Y481100D02*
G03*
X550300Y481100I-300J0D01*
G01*
Y553376D02*
G03*
X550300Y553376I-300J0D01*
G01*
Y660200D02*
G03*
X550300Y660200I-300J0D01*
G01*
Y732600D02*
G03*
X550300Y732600I-300J0D01*
G01*
X506800Y655909D02*
G03*
X506800Y655909I-300J0D01*
G01*
X509300Y542900D02*
G03*
X509300Y542900I-300J0D01*
G01*
X506800Y445400D02*
G03*
X506800Y445400I-300J0D01*
G01*
X550300Y517100D02*
G03*
X550300Y517100I-300J0D01*
G01*
Y714500D02*
G03*
X550300Y714500I-300J0D01*
G01*
X506800Y664673D02*
G03*
X506800Y664673I-300J0D01*
G01*
X550300Y642100D02*
G03*
X550300Y642100I-300J0D01*
G01*
X509800Y566900D02*
G03*
X509800Y566900I-300J0D01*
G01*
X506800Y469764D02*
G03*
X506800Y469764I-300J0D01*
G01*
X550300Y499100D02*
G03*
X550300Y499100I-300J0D01*
G01*
X506800Y713400D02*
G03*
X506800Y713400I-300J0D01*
G01*
X510300Y615900D02*
G03*
X510300Y615900I-300J0D01*
G01*
X550300Y678300D02*
G03*
X550300Y678300I-300J0D01*
G01*
X510300Y518400D02*
G03*
X510300Y518400I-300J0D01*
G01*
X550300Y445400D02*
G03*
X550300Y445400I-300J0D01*
G01*
Y535600D02*
G03*
X550300Y535600I-300J0D01*
G01*
D11*
X556216Y457059D02*
G03*
X556216Y457059I-492J0D01*
G01*
X501268Y451941D02*
G03*
X501268Y451941I-492J0D01*
G01*
X556216Y547559D02*
G03*
X556216Y547559I-492J0D01*
G01*
Y690059D02*
G03*
X556216Y690059I-492J0D01*
G01*
X501268Y695577D02*
G03*
X501268Y695577I-492J0D01*
G01*
Y598123D02*
G03*
X501268Y598123I-492J0D01*
G01*
Y500668D02*
G03*
X501268Y500668I-492J0D01*
G01*
X556216Y475000D02*
G03*
X556216Y475000I-492J0D01*
G01*
Y652559D02*
G03*
X556216Y652559I-492J0D01*
G01*
Y726059D02*
G03*
X556216Y726059I-492J0D01*
G01*
X501268Y646850D02*
G03*
X501268Y646850I-492J0D01*
G01*
Y549396D02*
G03*
X501268Y549396I-492J0D01*
G01*
X556216Y511500D02*
G03*
X556216Y511500I-492J0D01*
G01*
X471240Y623000D02*
G03*
X471240Y623000I-492J0D01*
G01*
X471740Y579000D02*
G03*
X471740Y579000I-492J0D01*
G01*
X556216Y706559D02*
G03*
X556216Y706559I-492J0D01*
G01*
X501268Y671214D02*
G03*
X501268Y671214I-492J0D01*
G01*
X556216Y634500D02*
G03*
X556216Y634500I-492J0D01*
G01*
X501268Y573759D02*
G03*
X501268Y573759I-492J0D01*
G01*
Y476305D02*
G03*
X501268Y476305I-492J0D01*
G01*
X556216Y492559D02*
G03*
X556216Y492559I-492J0D01*
G01*
X471610Y534500D02*
G03*
X471610Y534500I-492J0D01*
G01*
X501268Y719941D02*
G03*
X501268Y719941I-492J0D01*
G01*
Y622486D02*
G03*
X501268Y622486I-492J0D01*
G01*
X556216Y670618D02*
G03*
X556216Y670618I-492J0D01*
G01*
X501268Y525032D02*
G03*
X501268Y525032I-492J0D01*
G01*
X556216Y529559D02*
G03*
X556216Y529559I-492J0D01*
G01*
X482268Y451441D02*
G03*
X482268Y451441I-492J0D01*
G01*
X408220Y450153D02*
G03*
X408220Y450153I-492J0D01*
G01*
X431720Y490154D02*
G03*
X431720Y490154I-492J0D01*
G01*
X399153Y505657D02*
G03*
X399153Y505657I-492J0D01*
G01*
X329492Y466157D02*
G03*
X329492Y466157I-492J0D01*
G01*
D12*
X378843Y474000D02*
G03*
X378843Y474000I-1245J0D01*
G01*
X559866Y449579D02*
X568134D01*
X559866Y459421D02*
X568134D01*
X488366D02*
X496634D01*
X488366Y449579D02*
X496634D01*
X559866Y540079D02*
X568134D01*
X559866Y549921D02*
X568134D01*
X559866Y682579D02*
X568134D01*
X559866Y692421D02*
X568134D01*
X488366Y703058D02*
X496634D01*
X488366Y693215D02*
X496634D01*
X488366Y605603D02*
X496634D01*
X488366Y595760D02*
X496634D01*
X488366Y508148D02*
X496634D01*
X488366Y498306D02*
X496634D01*
X559866Y467520D02*
X568134D01*
X559866Y477362D02*
X568134D01*
X559866Y645079D02*
X568134D01*
X559866Y654921D02*
X568134D01*
X559866Y718579D02*
X568134D01*
X559866Y728421D02*
X568134D01*
X488366Y654330D02*
X496634D01*
X488366Y644488D02*
X496634D01*
X488366Y556876D02*
X496634D01*
X488366Y547033D02*
X496634D01*
X559866Y504020D02*
X568134D01*
X559866Y513862D02*
X568134D01*
X559866Y699079D02*
X568134D01*
X559866Y708921D02*
X568134D01*
X488366Y678694D02*
X496634D01*
X488366Y668851D02*
X496634D01*
X559866Y627020D02*
X568134D01*
X559866Y636862D02*
X568134D01*
X488366Y581239D02*
X496634D01*
X488366Y571397D02*
X496634D01*
X488366Y483785D02*
X496634D01*
X488366Y473942D02*
X496634D01*
X559866Y485079D02*
X568134D01*
X559866Y494921D02*
X568134D01*
X488366Y727421D02*
X496634D01*
X488366Y717579D02*
X496634D01*
X488366Y629967D02*
X496634D01*
X488366Y620124D02*
X496634D01*
X559866Y663138D02*
X568134D01*
X559866Y672980D02*
X568134D01*
X488366Y532512D02*
X496634D01*
X488366Y522670D02*
X496634D01*
X559866Y522079D02*
X568134D01*
X559866Y531921D02*
X568134D01*
X469366Y458921D02*
X477634D01*
X469366Y449079D02*
X477634D01*
D13*
X559469Y555693D02*
X567591D01*
X545577D02*
Y564035D01*
Y555693D02*
X545838D01*
X559469Y620654D02*
X567591D01*
X545577Y612312D02*
Y620653D01*
X545838D01*
X567591Y555693D02*
Y620654D01*
X407500Y702000D02*
X423500D01*
Y694000D02*
Y702000D01*
X407500Y694000D02*
X423500D01*
X407500D02*
Y702000D01*
X347284Y465339D02*
X372874D01*
X347284Y482661D02*
X372874D01*
D14*
X448799Y660185D02*
X461201D01*
X448799Y620815D02*
X461201D01*
X449299Y616185D02*
X461701D01*
X449299Y576815D02*
X461701D01*
X449169Y571685D02*
X461571D01*
X449169Y532315D02*
X461571D01*
X403299Y451158D02*
Y470843D01*
X390701Y451158D02*
Y470843D01*
Y451158D02*
X403299D01*
X390701Y470843D02*
X403299D01*
X426799Y491157D02*
Y510843D01*
X414201Y491157D02*
Y510843D01*
Y491157D02*
X426799D01*
X414201Y510843D02*
X426799D01*
X323819Y490500D02*
X396181D01*
Y730500D01*
X323819D02*
X396181D01*
X323819Y490500D02*
Y730500D01*
X469736Y493780D02*
Y516221D01*
X449264Y493780D02*
Y516221D01*
X442236Y453780D02*
Y476221D01*
X421764Y453780D02*
Y476221D01*
X324866Y467732D02*
X333134D01*
Y484150D02*
Y484268D01*
Y467732D02*
Y467850D01*
X324866Y484268D02*
X333134D01*
X324866Y484150D02*
Y484268D01*
Y467732D02*
Y467850D01*
X449020Y700795D02*
X464177D01*
Y675205D02*
Y700795D01*
X449020Y675205D02*
X464177D01*
X449020D02*
Y700795D01*
X440752Y700303D02*
X447642D01*
X334902Y464728D02*
X335098D01*
X334902Y468272D02*
X335098D01*
X351945Y461512D02*
X370055D01*
X351945Y450488D02*
X370055D01*
X435551Y679201D02*
Y691799D01*
X429449Y676839D02*
Y691799D01*
X431819Y701850D02*
X434181D01*
X482445Y500936D02*
Y503681D01*
X474555Y500936D02*
Y503681D01*
X447555Y459936D02*
Y462681D01*
X455445Y459936D02*
Y462681D01*
D15*
X465965Y724000D02*
X469902D01*
X451988Y708055D02*
X463012Y717701D01*
X451988Y739945D02*
X463012Y730299D01*
X397067Y722031D02*
Y725969D01*
X395098Y724000D02*
X399035D01*
X401988Y708055D02*
Y739945D01*
Y708055D02*
X451988D01*
X463012Y717701D02*
Y730299D01*
X401988Y739945D02*
X451988D01*
M02*
